<mxfile host="app.diagrams.net" agent="Mozilla/5.0 (Windows NT 10.0; Win64; x64) AppleWebKit/537.36 (KHTML, like Gecko) Chrome/126.0.0.0 Safari/537.36" version="24.7.6">
  <diagram name="第 1 页" id="kJn3MRz9FqQPhj0D6191">
    <mxGraphModel dx="1147" dy="737" grid="1" gridSize="10" guides="1" tooltips="1" connect="1" arrows="1" fold="1" page="1" pageScale="1" pageWidth="827" pageHeight="1169" math="0" shadow="0">
      <root>
        <mxCell id="0" />
        <mxCell id="1" parent="0" />
        <mxCell id="HlH4zOy5IhziWRLoiVb8-52" style="edgeStyle=orthogonalEdgeStyle;rounded=0;orthogonalLoop=1;jettySize=auto;html=1;exitX=0;exitY=0.25;exitDx=0;exitDy=0;entryX=0.5;entryY=0;entryDx=0;entryDy=0;" edge="1" parent="1" source="HlH4zOy5IhziWRLoiVb8-50" target="HlH4zOy5IhziWRLoiVb8-51">
          <mxGeometry relative="1" as="geometry" />
        </mxCell>
        <mxCell id="HlH4zOy5IhziWRLoiVb8-50" value="" style="rounded=0;whiteSpace=wrap;html=1;dashed=1;fillColor=none;" vertex="1" parent="1">
          <mxGeometry x="230" y="790" width="440" height="410" as="geometry" />
        </mxCell>
        <mxCell id="HlH4zOy5IhziWRLoiVb8-5" style="edgeStyle=orthogonalEdgeStyle;rounded=0;orthogonalLoop=1;jettySize=auto;html=1;exitX=0.5;exitY=1;exitDx=0;exitDy=0;exitPerimeter=0;entryX=0.5;entryY=0;entryDx=0;entryDy=0;" edge="1" parent="1" source="HlH4zOy5IhziWRLoiVb8-1" target="HlH4zOy5IhziWRLoiVb8-3">
          <mxGeometry relative="1" as="geometry" />
        </mxCell>
        <mxCell id="HlH4zOy5IhziWRLoiVb8-1" value="Sass下发启动录像分析" style="strokeWidth=2;html=1;shape=mxgraph.flowchart.start_1;whiteSpace=wrap;fillColor=#d5e8d4;strokeColor=#82b366;" vertex="1" parent="1">
          <mxGeometry x="364" y="60" width="100" height="60" as="geometry" />
        </mxCell>
        <mxCell id="HlH4zOy5IhziWRLoiVb8-2" value="" style="shape=image;verticalLabelPosition=bottom;labelBackgroundColor=default;verticalAlign=top;aspect=fixed;imageAspect=0;image=data:image/png,iVBORw0KGgoAAAANSUhEUgAAB64AAAG+CAYAAAAjlipCAAAAAXNSR0IArs4c6QAAIABJREFUeAHs3UmQHNd57v3rcMRdeenVDW1shyVbCn9WeLrWXfgq7kIL2yHLYYZ29rfwXXghSCYpNAmAJMB5AgmQEMEJoEiIFCdI4CCS4jyI4DyAk0iaEgn0gG4MjaEbaFTBZpzve97uN3Xq1MmsrOoCqoc/IzqyuirzZObJX2aD9Zzhv/03/qMGqAFqgBqgBqgBaoAaoAaoAWqAGqAGqAFqgBqgBqgBaoAaoAaoAWqAGqAGqAFqgBqgBgZdA6Hkv88//zz853/+p/2cPHky8EMdYAADGMAABjCAAQxgAAMYwAAGMIABDGAAAxjAAAYwgAEMYAADGMBAtwY8d1YGnfvPMvP0Aw+su90Z6wMUAxjAAAYwgAEMYAADGMAABjCAAQxgAAMYwAAGMIABDGAAAxjAAAaqDCjETgPstuD6v/7rv+hZTe9yDGAAAxjAAAYwgAEMYAADGMAABjCAAQxgAAMYwAAGMIABDGAAAxg4pQaUTft/LcE1oTUtH6paPvAZPjCAAQxgAAMYwAAGMIABDGAAAxjAAAYwgAEMYAADGMAABjCAgX4a8PC6CK7VFbufO6AswGIAAxjAAAYwgAEMYAADGMAABjCAAQxgAAMYwAAGMIABDGAAAxjAQCcDyqqL4FrjiHfagM9BhQEMYAADGMAABjCAAQxgAAMYwAAGMIABDGAAAxjAAAYwgAEMYAAD/TSgrNqCa3pbA6ufsCgLTxjAAAYwgAEMYAADGMAABjCAAQxgAAMYwAAGMIABDGAAAxjAQDcGLLimtzVoukHDunjBAAYwgAEMYAADGMAABjCAAQxgAAMYwAAGMIABDGAAAxjAAAb6aYDg+iSg+gmKsvCEAQxgAAMYwAAGMIABDGAAAxjAAAYwgAEMYAADGMAABjCAAQx0a8CC6243Yn2gYQADGMAABjCAAQxgAAMYwAAGMIABDGAAAxjAAAYwgAEMYAADGMBAvwwQXNPjOvQLE+XwYMIABjCAAQxgAAMYwAAGMIABDGAAAxjAAAYwgAEMYAADGMAABnoxQHBNcE1wjQEMYAADGMAABjCAAQxgAAMYwAAGMIABDGAAAxjAAAYwgAEMYGCgBgiuAThQgL20tmAbWulgAAMYwAAGMIABDGAAAxjAAAYwgAEMYAADGMAABjCAAQxgYGkZILgmuCa4xgAGMIABDGAAAxjAAAYwgAEMYAADGMAABjCAAQxgAAMYwAAGMDBQAwTXABwoQFrCLK2WMFxPricGMIABDGAAAxjAAAYwgAEMYAADGMAABjCAAQxgAAMYwEAvBgiuCa4JrjGAAQxgAAMYwAAGMIABDGAAAxjAAAYwgAEMYAADGMAABjCAAQwM1ADBNQAHCrCX1hZsQysdDGAAAxjAAAYwgAEMYAADGMAABjCAAQxgAAMYwAAGMIABDCwtAwTXBNcE1xjAAAYwgAEMYAADGMAABjCAAQxgAAMYwAAGMIABDGAAAxjAAAYGaoDgGoADBUhLmKXVEobryfXEAAYwgAEMYAADGMAABjCAAQxgAAMYwAAGMIABDGAAAxjoxQDBNcE1wTUGMIABDGAAAxjAAAYwgAEMYAADGMAABjCAAQxgAAMYwAAGMICBgRoguAbgQAH20tqCbWilgwEMYAADGMAABjCAAQxgAAMYwAAGMIABDGAAAxjAAAYwgIGlZYDgmuCa4BoDGMAABjCAAQxgAAMYwAAGMIABDGAAAxjAAAYwgAEMYAADGMDAQA0QXANwoABpCbO0WsJwPbmeGMAABjCAAQxgAAMYwAAGMIABDGAAAxjAAAYwgAEMYAADvRgguCa4JrjGAAYwgAEMYAADGMAABjCAAQxgAAMYwAAGMIABDGAAAxjAAAYwMFADBNcAHCjAXlpbsA2tdDCAAQxgAAMYwAAGMIABDGAAAxjAAAYwgAEMYAADGMAABjCwtAwQXBNcE1xjAAMYwAAGMIABDGAAAxjAAAYwgAEMYAADGMAABjCAAQxgAAMYGKgBgmsADhQgLWGWVksYrifXEwMYwAAGMIABDGAAAxjAAAYwgAEMYAADGMAABjCAAQxgoBcDBNcE1wTXGMAABjCAAQxgAAMYwAAGMIABDGAAAxjAAAYwgAEMYAADGMAABgZqgOAagAMF2EtrC7ahlQ4GMIABDGAAAxjAAAYwgAEMYAADGMAABjCAAQxgAAMYwAAGlpYBgmuCa4JrDGAAAxjAAAYwgAEMYAADGMAABjCAAQxgAAMYwAAGMIABDGAAAwM1QHANwIECpCXM0moJw/XkemIAAxjAAAYwgAEMYAADGMAABjCAAQxgAAMYwAAGMIABDPRiYEEH182ZmXDsjdfD4R3bw+TtW+1Hr/WePuvlhPu5TbMxE6ZHXwyHPrgjHHxro/3otd7TZ/3cVy9lHW/MhBf27gy3fXxnWP/eJvvRa72nz3opk2140GAAAxjAAAYwgAEMYAADGMAABjCAAQxgAAMYwAAGMIABDGAAA/02sCCDawXT+9ecE3Z/4+th/Ixvhslv/0M4/E9/Zz96rff0mdbRuv2ulE7lTY38Iux7+v+Gz7b9YRjb/ufh4I6vhkM7vmw/eq339JnW0bqdyuv35wqm//nFfwtfuP8r4cuP/K/wR49/Lfz+E39pP3r95Ue+Fr6w/Su2jtbt9/4pjwcVBjCAAQxgAAMYwAAGMIABDGAAAxjAAAYwgAEMYAADGMAABjDQjYEFFVyfmBi3MHrsW38bps74+/D5v5wRwv/77eyPPtM6WlcBtrbt5sR7WffE0VELo0fu+Wo4+uCXw+dP/kkIT/8/2R99pnW0rgJsbdvLPrvZZvTomIXRX3ror8LvPfWX4Ysv/0340qv/O/ujz7SO1lXIrW272Rfr8qDBAAYwgAEMYAADGMAABjCAAQxgAAMYwAAGMIABDGAAAxjAAAb6ZWDBBNfqOT3yrdle1WVhddn76o2tbU9l72v1nN5zz2zP6rKwuux99cbWtqey97V6Tv/RA//TelWXhdVl76s3tral9zUPln49WCgHSxjAAAYwgAEMYAADGMAABjCAAQxgAAMYwAAGMIABDGAAA90YWBDBtQLnPd/4ejj+7W9me1eXBdbx+8e+PTt8+KkIrxU4a+jvYz/7SrZ3dVlgHb+vbVXGqQivFThr6O8/ePavs72rywLr+P0/eOavbWhxwmseIN08QFgXLxjAAAYwgAEMYAADGMAABjCAAQxgAAMYwAAGMIABDGAAA/0wMPDgWkN8q7f0fEJrD7AVXqusfg4briG+1Vt6PqG1B9gqQ2X1c9jw0akx6y09n9DaA2yF1+p5rTL7gYsyeEhhAAMYwAAGMIABDGAAAxjAAAYwgAEMYAADGMAABjCAAQxgAAN1DAw8uNb81Brq28Pn+S5Vlsqsc/J11tH81Brq28Pn+S5Vlsqss+866/zzzn/raXhwD6vTpYYN15zXdfbNOjxkMIABDGAAAxjAAAYwgAEMYAADGMAABjCAAQxgAAMYwAAGMICBfhgYaHA9/fprYexbf9u30NpDb5WpsudbQRrWe+Ser/YttPbQW2X2Y8jw58deDF966K96Hh48Da2L3x/6q6Cy51t/bM9DCgMYwAAGMIABDGAAAxjAAAYwgAEMYAADGMAABjCAAQxgAAMYqGNgoMG1ekZPnfH3fQ+uVWY/el2rZ/TRB/vX29qDa5XZj17X6hn9e0/9Zd+Da5VJr2seIHUeIKyDEwxgAAMYwAAGMIABDGAAAxjAAAYwgAEMYAADGMAABjCAgX4YGFhw3ZyZCbu/8fXw+b+c0ffgWmXu+cbXg/bRayU1GzPhs21/GD5/8k/63uNaZaps7aPX45tpzIQvbP9K+OLLf9P34Fplqmzto9fjYzseUBjAAAYwgAEMYAADGMAABjCAAQxgAAMYwAAGMIABDGAAAxjAQF0DAwuuj73xehg/45t9D619uHCVrX3UrYh0venRF8PY9j/ve2jtva5VtvaR7rfu7y/s3Rm+/MjX+h5a+3DhKlv7qHs8rMdDBwMYwAAGMIABDGAAAxjAAAYwgAEMYAADGMAABjCAAQxgAAMY6NXAwILrwzu2h8lv/8MpC65VtvbRa8Uc+uCOcHBH/+e39uBaZWsfvR7fbR/fGf7o8VMXXKts7aPX42M7HkoYwAAGMIABDGAAAxjAAAYwgAEMYAADGMAABjCAAQxgAAMYwEBdAwMLridv3xoO/9PfnbLgWmVrH3UrIl3v4Fsbw6Ed/Z/f2oNrla19pPut+/v69zaF33+i//Nbe49rla191D0e1uOhgwEMYAADGMAABjCAAQxgAAMYwAAGMIABDGAAAxjAAAYwgAEM9GqA4PpkHg/BNcF1rzcV2+XvKeqFesEABjCAAQxgAAMYwAAGMIABDGAAAxjAAAYwgAEMYAADGCgzMLDgmqHCGSq8DCXv88DCAAYwgAEMYAADGMAABjCAAQxgAAMYwAAGMIABDGAAAxjAwPIyMLDg+tgbr4fxM755yoYKV9naR6+gp0dfDGPb/zz40N79Xqps7aPX43th787w5UdO3RzXKlv76PX42G55PUi43lxvDGAAAxjAAAYwgAEMYAADGMAABjCAAQxgAAMYwAAGMICB+RgYWHDdnJkJe77x9fD5v5zR9/BaZe7+xteD9tFr5TQbM+GzbX8YPn/yT/oeXqtMla199Hp8M42Z8IXtXwlffPlvgs9L3a+lylTZ2kevx8d2PJgwgAEMYAADGMAABjCAAQxgAAMYwAAGMIABDGAAAxjAAAYwgIG6BgYWXOsA9685J0yd8fd9D65VpsquWwll6+17+v+Gow9+ue/BtcpU2WX7rfv+P7/4b+H3nvrLvgfXKlNl1z0O1uOBgwEMYAADGMAABjCAAQxgAAMYwAAGMIABDGAAAxjAAAYwgAEMzMfAQIPr6ddfC2Pf+tu+B9cqU2XPp2K07dTIL8LIPV/te3CtMlX2fI/v+bEXw5ce+qu+B9cqU2XP9/jYnocTBjCAAQxgAAMYwAAGMIABDGAAAxjAAAYwgAEMYAADGMAABjBQx8BAg2sdoHpGH/6nv+tbeK2y+tHb2itPPaMP7ehfr2uV1Y/e1n586hn9+0/0r9e1yvrnnfS29vplyYMUAxjAAAYwgAEMYAADGMAABjCAAQxgAAMYwAAGMIABDGAAA6fewMCD6xMT42HkW38Xjn37m/MOr49/+5tWlsrsF54TR0fDnnu+Go797Cvz7nmtMlSWyuzX8Y1OjYU/euB/hj945q/n3fP6D579aytLZfbr+Cjn1N/E1DF1jAEMYAADGMAABjCAAQxgAAMYwAAGMIABDGAAAxjAAAYwsNgNDDy4VgUee+P1sPsbX59XeK3Qeo/KeOP1voeuGtb7s21/OK/wWqG1yujHEOEpuhf27gxfuP8r8wqvFVp/YftXgspKy+d3HnQYwAAGMIABDGAAAxjAAAYwgAEMYAADGMAABjCAAQxgAAMYwMCpNLAggmudoAJn9bzuZdhwbWO9tk9BaO2Vr8BZvaV7GTZc22jbUxFa+/EpcFbP616GDdc22pbQmoeNe2KJBQxgAAMYwAAGMIABDGAAAxjAAAYwgAEMYAADGMAABjCAgdNpYMEE1zppDfGt+anHvvW3YeqMvw+f/8sZpcOH6zOto3W1TT+HBy+7ABriW/NTj9zz1XD0wS+Hz5/8k9Lhw/WZ1tG62qafw4OXHd/o0bGgOa+/9NBfhd976i/DF1/+m9Lhw/WZ1tG62kbblpXL+zyUMIABDGAAAxjAAAYwgAEMYAADGMAABjCAAQxgAAMYwAAGMICBU2lgQQXXfqLqfa0wWsOHj5/xzTD57X+wntjqWa3Xek+faZ1TMTS4H0fZUj2nFUZr6O+x7X8eDu6Y7YmtntV6rff0mdY5lb2sy45PPacVRmvo7y8/8rXwR49/zXpiW8/qx78WvvzI/7KhxbUOvax5wJQ54n1sYAADGMAABjCAAQxgAAMYwAAGMIABDGAAAxjAAAYwgAEMnC4DCzK49pNvzsxYMH14x/YweftW+9FrhdX6zNcb1LLZmAnToy+GQx/cEQ6+tdF+9Frv6bNBHZfv93hjxoLp2z6+M6x/b5P96LXCan3m67HkgYMBDGAAAxjAAAYwgAEMYAADGMAABjCAAQxgAAMYwAAGMIABDAzSwIIOrgdZMeybGxMDGMAABjCAAQxgAAMYwAAGMIABDGAAAxjAAAYwgAEMYAADGMDA6TFAcH3y9FQ0oKlnDGAAAxjAAAYwgAEMYAADGMAABjCAAQxgAAMYwAAGMIABDGAAA3kDBNcE1wwZjgEMYAADGMAABjCAAQxgAAMYwAAGMIABDGAAAxjAAAYwgAEMYGCgBgiuAThQgLQoybcooV6oFwxgAAMYwAAGMIABDGAAAxjAAAYwgAEMYAADGMAABjCAgeVkgOCa4JrgGgMYwAAGMIABDGAAAxjAAAYwgAEMYAADGMAABjCAAQxgAAMYwMBADRBcA3CgAJdTKxHOlVZRGMAABjCAAQxgAAMYwAAGMIABDGAAAxjAAAYwgAEMYAADGMgbILgmuCa4xgAGMIABDGAAAxjAAAYwgAEMYAADGMAABjCAAQxgAAMYwAAGMDBQAwTXABwoQFqU5FuUUC/UCwYwgAEMYAADGMAABjCAAQxgAAMYwAAGMIABDGAAAxjAwHIyQHBNcE1wjQEMYAADGMAABjCAAQxgAAMYwAAGMIABDGAAAxjAAAYwgAEMYGCgBgiuAThQgMuplQjnSqsoDGAAAxjAAAYwgAEMYAADGMAABjCAAQxgAAMYwAAGMIABDOQNEFwTXBNcYwADGMAABjCAAQxgAAMYwAAGMIABDGAAAxjAAAYwgAEMYAADGBioAYJrAA4UIC1K8i1KqBfqBQMYwAAGMIABDGAAAxjAAAYwgAEMYAADGMAABjCAAQxgYDkZILgmuCa4xgAGMIABDGAAAxjAAAYwgAEMYAADGMAABjCAAQxgAAMYwAAGMDBQAwTXABwowOXUSoRzpVUUBjCAAQxgAAMYwAAGMIABDGAAAxjAAAYwgAEMYAADGMAABvIGCK4JrgmuMYABDGAAAxjAAAYwgAEMYAADGMAABjCAAQxgAAMYwAAGMIABDAzUAME1AAcKkBYl+RYl1Av1ggEMYAADGMAABjCAAQxgAAMYwAAGMIABDGAAAxjAAAYwsJwMEFwTXBNcYwADGMAABjCAAQxgAAMYwAAGMIABDGAAAxjAAAYwgAEMYAADGBioAYJrAA4U4HJqJcK50ioKAxjAAAYwgAEMYAADGMAABjCAAQxgAAMYwAAGMIABDGAAA3kDBNcE1wTXGMAABjCAAQxgAAMYwAAGMIABDGAAAxjAAAYwgAEMYAADGMAABgZqgOAagAMFSIuSfIsS6oV6wQAGMIABDGAAAxjAAAYwgAEMYAADGMAABjCAAQxgAAMYWE4GCK4JrgmuMYABDGAAAxjAAAYwgAEMYAADGMAABjCAAQxgAAMYwAAGMIABDAzUAME1AAcKcDm1EuFcaRWFAQxgAAMYwAAGMIABDGAAAxjAAAYwgAEMYAADGMAABjCAgbwBgmuCa4JrDGAAAxjAAAYwgAEMYAADGMAABjCAAQxgAAMYwAAGMIABDGAAAwM1QHANwIECpEVJvkUJ9UK9YAADGMAABjCAAQxgAAMYwAAGMIABDGAAAxjAAAYwgAEMLCcDBNcE1wTXGMAABjCAAQxgAAMYwAAGMIABDGAAAxjAAAYwgAEMYAADGMAABgZqgOAagAMFuJxaiXCutIrCAAYwgAEMYAADGMAABjCAAQxgAAMYwAAGMIABDGAAAxjAQN4AwTXBNcE1BjCAAQxgAAMYwAAGMIABDGAAAxjAAAYwgAEMYAADGMAABjCAgYEaILgG4EAB0qIk36KEeqFeMIABDGAAAxjAAAYwgAEMYAADGMAABjCAAQxgAAMYwAAGlpMBgmuCa4JrDGAAAxjAAAYwgAEMYAADGMAABjCAAQxgAAMYwAAGMIABDGAAAwM1QHANwIECXE6tRDhXWkVhAAMYwAAGMIABDGAAAxjAAAYwgAEMYAADGMAABjCAAQxgIG+A4JrgmuAaAxjAAAYwgAEMYAADGMAABjCAAQxgAAMYwAAGMIABDGAAAxjAwEANEFwDcKAAaVGSb1FCvVAvGMAABjCAAQxgAAMYwAAGMIABDGAAAxjAAAYwgAEMYAADy8kAwTXBNcE1BjCAAQxgAAMYwAAGMIABDGAAAxjAAAYwgAEMYAADGMAABjCAgYEaILgG4EABLqdWIpwrraIwgAEMYAADGMAABjCAAQxgAAMYwAAGMIABDGAAAxjAAAYwkDdAcE1wTXCNAQxgAAMYwAAGMIABDGAAAxjAAAYwgAEMYAADGMAABjCAAQxgYKAGCK4BOFCAtCjJtyihXqgXDGAAAxjAAAYwgAEMYAADGMAABjCAAQxgAAMYwAAGMICB5WSA4JrgmuAaAxjAAAYwgAEMYAADGMAABjCAAQxgAAMYwAAGMIABDGAAAxjAwEANEFwDcKAAl1MrEc6VVlEYwAAGMIABDGAAAxjAAAYwgAEMYAADGMAABjCAAQxgAAMYyBsguCa4JrjGAAYwgAEMYAADGMAABjCAAQxgAAMYwAAGMIABDGAAAxjAAAYwMFADBNcAHChAWpTkW5RQL9QLBjCAAQxgAAMYwAAGMIABDGAAAxjAAAYwgAEMYAADGMDAcjJAcE1wTXCNAQxgAAMYwAAGMIABDGAAAxjAAAYwgAEMYAADGMAABjCAAQxgYKAGCK4BOFCAy6mVCOdKqygMYAADGMAABjCAAQxgAAMYwAAGMIABDGAAAxjAAAYwgAEM5A0QXBNcE1xjAAMYwAAGMIABDGAAAxjAAAYwgAEMYAADGMAABjCAAQxgAAMYGKgBgmsADhQgLUryLUqoF+oFAxjAAAYwgAEMYAADGMAABjCAAQxgAAMYwAAGMIABDGBgORkguCa4JrjGAAYwgAEMYAADGMAABjCAAQxgAAMYwAAGMIABDGAAAxjAAAYwMFADBNcAHCjA5dRKhHOlVRQGMIABDGAAAxjAAAYwgAEMYAADGMAABjCAAQxgAAMYwAAG8gYIrgmuCa4xgAEMYAADGMAABjCAAQxgAAMYwAAGMIABDGAAAxjAAAYwgAEMDNQAwTUABwqQFiX5FiXUC/WCAQxgAAMYwAAGMIABDGAAAxjAAAYwgAEMYAADGMAABjCwnAwQXBNcE1xjAAMYwAAGMIABDGAAAxjAAAYwgAEMYAADGMAABjCAAQxgAAMYGKgBgmsADhTgcmolwrnSKgoDGMAABjCAAQxgAAMYwAAGMIABDGAAAxjAAAYwgAEMYAADeQME1wTXBNcYwAAGMIABDGAAAxjAAAYwgAEMYAADGMAABjCAAQxgAAMYwAAGBmqA4BqAAwVIi5J8ixLqhXrBAAYwgAEMYAADGMAABjCAAQxgAAMYwAAGMIABDGAAAxhYTgYIrgmuCa4xgAEMYGCZGJiamgpnnj0UvvTHf9ryo/f02WL5B9BSOY/FUt8cJ/9zhAEMYAADGMAABjCAAQxgAAMYwAAGMIABDJwOAwTXyySsOB2Y2MfifGidmNgXhldfFHZ/Z2UYu+ya0DhyZNGEV6fK3IlDh8O+2+8Kw0NrrV5UN/oZWXVhODE+sezr51TVe1m5B3/yUHEdjrzwUt/q/8B9O6zcPWetCVPvfdC3csvOYyG836/A98jOV8LuFUNWf6rHfp2brq/fb1XXul/n0a/jppzF+feP68Z1wwAGMIABDGAAAxjAAAYwgAEMYAADGMDAwjKwYILriR/cUnxZ7V9aF8sVQxas7d92d2lopNBB4YO2UVll0MrW8wCj2OdcUFXn98UaZh070QjfvOft8FuXPBX+7NZXwt4jx0vrraw+eX9h3dC9XA8FsTIs60sxuH78k/3hd658Nvz2pU+Hm98Y7mj8xOShMHb5huzzaLHe6724KNvm/Ymj4X9sfMGeG2c/8VFonobGP/HzuSrMLDvmsve93MUeXHfzLI8D34suvjzs27fffg5OToZms9nx/vC6jAPmQQTXOlYdsx+/zkW9yBdbz3GvT5aL/28p15BriAEMYAADGMAABjCAAQxgAAMYwAAGMICB+RtYHMF1FCLvOXNVmHzw0XAy+YK9LJBOkZSt5wFGnaA6XWexhlnPfHqgCPS2vjVSO7BI65Tf538jDrIOl3KP6+ONZvjH+3ZZyPoXW14N+6dmOjqffPjns6H1iqGw77Y7w8zwiDWYUcB/Yt/+cLLR6FjGIK/nqd730JMfW31+4boXwof7T8/Q0vS4rn7GdPMsj4Prq66+tmfLg+5xnTrXuRBcVztJ64zfqS8MYAADGMAABjCAAQxgAAMYwAAGMIABDGBgoRlYcMH1nrNWh6MvvfaboGh8Ikz/8qMwsemWYljSPd87Nxx5YWfLF+5lgXRa4WXraXhkC6YUTkU/OhYdk8Lq8Q2bWz4r1luEYZZ6Sf7rQ+9bAPXFG3aGPYemW+ozrTd+5+G1GA28Pnoo/O41z5vzK3d+Wsu4j/4wesn60DjMsOnxdddzQs8LjdKg58fp6G0d77/fr73B0mLucd3ts7xfwXW/r4WXF/fk7qZ3PcE1f6PcEEssYAADGMAABjCAAQxgAAMYwAAGMIABDGBg8RpYgMF1yVyjzWaYfPTJIrxOhzQuC6RTnHXX8+26Xd+3W+jLXgK9hX5OHN/ifRCdimvXbaCnY1ADFj1b1FClasqBU3G8i6FMhf8KrdUYQM+QxXDMVce4FILrbp/lBNc8J6vuCT7DBwYwgAEMYAADGMAABjCAAQxgAAMYwAAGMDBIA4snuD55Mpw4OBlGL7zSQqXhlReEY//xqyI4qRsw113PL0q36/t2C3mpQE9z0yqAOp3D/S7kOuHYlt6DOJ6LWcNb17nGBNflDvYeOR4pZ+JtAAAgAElEQVT+7NZX7Lmh4dc1DHudOl3I6yz24LqXZznBdbnxhWyVY+O6YQADGMAABjCAAQxgAAMYwAAGMIABDGAAA8vBwKIKrnVBfBjfPf++Kky9uasITuoGzHXX84vf7fq+3UJeal5aBdYKrqsCPQ2Frvm7d3/3nHD0lddD48jRsO/2H4fh759vjQc03/jeq69vaUCQO+84DNRctVpHZWv+YC9r94qhMLL6onBw+4OhMZ0ftlzvH3rsqTBywWVBw8WrV6yWo5dcHY68+HLtuYdPHDps+4nLsf2ff2mYfOARO8/cefh7qgf1/h85/9JiBADVxdhV14WpN95um3/dt4uXxz75dZi4YUsYXjlbl34uOqb9d94bZkbGCtvxdsXrZjNM7XrP6n/P2WusLqyMM1eF0YuvCgd3PBwaBw6WllFc22j+eG2fjmRQ7O9k6x8EH87X53dXne67/a7ieuq61LGh8pvHZ8Khnz8VRs67ZLY+ZeG8S8LhZ16wuvR7vtse0HXmYo5t6vw7/fj5ttVLoxGmP/w4TGzZFobXXFz4dNf7t91t5tu2S+rVPp+7tuPX3dTq4+w1Qe9pPyeb1aGxrv3B+x+we0rHYDbmto8b/NQ6nrlj3PrWSPjtS58Ov3Pls0FzKue21f1j+zqrZOSM6HyPvvSqPVvs+fLSq23leaicXpNuho/WMep8ZVH3qMrSM0dWZdb30Wmo8FN1zw8PrbXnoO7HXH12eq/uszwuZz7Btd/36TVRPcb76PR6ZnQsjG/eGvzZpWuj3/V+vI9urjVDhbc+oztdAz6nvjCAAQxgAAMYwAAGMIABDGAAAxjAAAYwgIGFaGDRBtcepnql1g2Y667Xbbm+/mJY1h3uNw43FSyOXb4hG+wppLSQMQql4nqIw0EFHFPvfhCGhy7IllUWDM6M7S1626ehif9uc5BPVg9ffPS1N0v37eXoPBtHp7JBzPQHH86G+WUh54qhMHHTbRbGxnUQv1ZdevDu+0yXVQFyc2YmHLh7exGap9v671VBb3xtfX0tq/Ybn4OHS8PnrA2qUwvxM3WikHDqnfeydanyTkwesrnj42MoXq8YCgp8Ry9db1aqzic+Nr2uOxdzbLPYb+Y8/LMynx6A+nq5pcK5w08/Xxk6KyBVgwYPm3Pl6LMjO18prVM14lAQm91W57ZiyBpudAq/4zo9cvxE+D8/esMau2ip3+PP/fWxjz4pGi8oxPb325bNZpi45XY7RjVSODGxr23dsjrtJsw8/OwvisA6rQ/d52qIo/ergut53/Oa5uKBRyrvee3fGt+UPEPb6m9uvbrP8nj7QQfXVc9/NfpQoxu/Vt1ca4Jr/pEdO+c1HjCAAQxgAAMYwAAGMIABDGAAAxjAAAYwsDgNLKrgOg6Zhs8+L0z/8qMi7KgbSNddz0F3u75vt1CXdQM9HX8cbqqHuwIvhbLHf/1ZUJA8+cjjQddBIYMCyun3PyyuR3z+8XUbv/4mC6AV4qlnscrSfhR4qcfd8OqL2nqmqqf13vWbZsOMFUP2Wtde26nXvQ8fr+Ow0HhmJnsc6jXuvS61nLj1DtuvypkZHgmTD//cQumy8Fbn5z3Edd7q0arttP30rneDzs0CRwWD9z+QDSiPffxJEZwr9NU+vQzVxeSDj1odlB2D6tXOY67HuQJjhaG6Hl6PCrXVMKAy6G00wol9+20bbafQX/VXtd/4mnpwLRe6ZnYujz5px6HzGL9xaxG+ql4Utsfb2+tmM+zfdk8RUuk66nrqePy6qvw9Z662dSrPJwn8agd6zab1TNc+9XP8093WY111YQ0h5t73z1VnJxuNtnNRyKrGCGNXbgyHHn+6uKa6LoeefNbqSGVaQLorH+Sb82tvKOpjZN3lLddWxiY23WL1WhboHXlhZxGQKmTXyABuQz2cxy6/1srv1NgkvVY7PpwI//2yp+1Hr9PP/ffm9DHr3WyWrrqudPQEBdXWw1737C23Z+8VPTe83o++9FrYc9asg7Jz92PwZXq/6nmlupBPPSfsXv3uObP1UdJDPC2jl3s+vl/13PDj0H1/4K77i2dS1TPUzyledvMsj7ebT3Ct6+vXRM/gkXPXWf3Jf7yPsteqf7/uegbr/FUPLXUxd01kqO611v4IrhfnP0LLrPA+1xMDGMAABjCAAQxgAAMYwAAGMIABDGAAA8vTwKIKrtWr13uqKuTSnNcOt27AXHe9bsv19Rf68uY3hjsO9+vnoIBC4ZcCBP0cuPenbQGThqv23p1lAWUcXKunvIYEV4Dr+4mXx3cPB60fv1cMKaww8catbb2Z1WvXe4Mr5Jx6+92W7VWWAkfvFWwB0a72dbSeDUf+5LNtxxCH5+oVqKAlPkZ73WxaHamuFOjoXNJ1FFTrczvOaKj7lvUajaChxBUStbw/F84qcFcZw9rHp7uz62j4bRtSOgl0c+XpPYXCKrPb4NqOI9OrWvsf33jj7HGeszZbF3GIr+un6xgfn4a7bmmU8INbWj6P141fz2cu5thqN0G56lpDT8fHEb+e2TNShNfqUZ3r7Tz58GNF2D9x49bS0Ff3XK4Xe2w8V586Hl0X69H9nZUW0Kd1Hh+zvz52ohG+ec/b1tv6L7a8GvZPZRohRM7cuO4zNUjxcuJlcU9rGoLMMOHxunodP7frhJlqKGENScoaCzSb1rjEwmtf570PWo61H/e8ytAUAmX3ic4t/rtW9gxN60O/d/Msj7efT3AdlxP/fagbXO+/8z6rC/0dOPzUcy31rbLjulCd1bnWfkwE18vzH7F+/Vly/TGAAQxgAAMYwAAGMIABDGAAAxjAAAYwsDQMLIrgWuHKgXt3FD3TFDYo5IkRxsFGVeBUdz0vu9v1fbuFuFTgpOBJc1sriFIgVXWccTBRNpyvAjgPwtTrNhfWxmGgrp16pFbtt+WzuPyKIEw9dK1X+HdWBoUjLWWcPGm9Xj2kqhzCOArg4jIUhlvPXwUuz/6irXxfV+evelDoogDP3/elD39cNuS0r1e17DZkrirLP+u2TAVKOkf97L/j7rbzVLmqJ1tnbo5035cvPeAsm+NY68mK76fqvvYytYznYn78k/3ZY4vXj1/HVuvuL96+6rU3OBi9ZH1oHG5tnKFnnOYm17mW3mslNn2f6tkt41XDXmvd4l4puS5eni81n7Xmtdb81gpL/f2ypeaUHl45OxVA2b3mdVH3XOPncJ0wM74Py8LguNd3rs76cc/Hx13Ws9xC9rkRD8oavKR13e2zPN5+UMG1Gpp5QxRZzzWaiIN+3Qt1rrWfG8H10vhHqV9PllxPDGAAAxjAAAYwgAEMYAADGMAABjCAAQwsTwMLLrj2kKp0WTKHcEtAUNEzs+56fkN0u75vtxCXdYf79WOPg+vxTTdne4lq3SJcLAnC4jBQva01XKzvo9PyxP4DRU/pvVdfX9oLudN66sEqU2XheqfjOHDPT2ZDxXPXVR5/fK7aZ1puHNbmehym6+d+99Cvatjp3HZV780nuC4Ll+J7J12nJaw7/9Kg65c7vjgErRMk152LObcvvddy/SqeI2Xb+/vxkMq6j/Tjw6LnGi1o2GUfdr+sIYCXnV02m0H3qIzngvF4m/i+PviTh7L17us3T54M//rQ+9bY5Ys37LS5w/2zsmWn4cLje7UszE3LrrKUrqvfNTy3GkSoPkobykR1lguu+3HPx/e7jil3rHqv7nq+fbfPct9Oy0EF1/G9XGXc613XLn1uxOeRvia4Xp7/iE0d8DsOMIABDGAAAxjAAAYwgAEMYAADGMAABjCwuA0smuBaQ4SPXnJ1mHrj7WyAGgcbVQFX3fUcdrfr+3YLbdlLoBcHXFVDwU69834x/6wCmPTc4zCwKnxOt9PvNifq3DyqVdc1Dss0JHgchMb7rzsUdsuxRAGXwpS6P7njjYfHVu9YDSOscMbmTm422+qu5TjmetzGc+bqvtB+9F6uB2Nu+9x7KkPnVbd+dMxaPxf4efnxvZMGUHWvSWwwV5++L1/OJ9BTGfFx1dmf71fLmdExm6d9z9lrKo3kgmuvT9VpWlfxPspeqwe3Auu6Nn29qvta+3p99FD43Wuet+Ba84aX7T993xuz5IYLL0LlkoYuaVn6vcpSbn3fv0ZhUA/z3Dp6z0dAaHPcp3veQ9i28pPe80WdlIzUEB9/L8/yePtBBddFT/+qxgQnT5p/99nNvUBwvbj/MRob5TXXEgMYwAAGMIABDGAAAxjAAAYwgAEMYAADy9fAgguu95y1Ohx96TXroajQyn6SuW9zYONgoypwqrue76Pb9X27hbbUkMk+3K+GUq5zfHFoWBVwxXWUW28+YWCnsuPz8PA1DQbj/Vf1HI/Lil/H23ugUmdZ5vDIzleK3rUt5awYsuGij7z4cjjZqBjGvdkMkw8++puh86MwXUG2GgdoHuTcPMrxecWvve5OV3CtYZqHV19kQWtZPen44rqvWk/rdjsXc3z+/rqb/fk2WuqaKZxsuZ7RdYnfT33a9kVDgNVBDUHisuu8ju/VeF+dXufuV9+feluf/cRHFlp/4boXwof7p2ofVzxUdzpcuI8YkDYw8f3mlvFzoE6YWRpIJ4Fx2Xqxg051GH+eGvX7KnfN4/OMz6/qmmibXp7lLfuamgpnnj0UvvTHfxoU9safdfM6NtfpmFVu3cYZdddLj5Xgevn+Qza1wO9YwAAGMIABDGAAAxjAAAYwgAEMYAADGMDA4jWwAIPrNda7rltU8Rf/aXgQl1V3Pd+m2/V9u4W0PN5ohn+8b5cFUH926yth75HjtcKKusFEXEe5ACMOgaquTa7OOpUdb1MWEsW9UecbXGtu1uOf7m5tWOENLNJlRYOLxpGj4fDTz9vwzsNDs3NiFwFYyXD48bnqdePAwTD5yONh7zU/CG29fFcMhYPbH6wdXnvdLebgutu5mNP6tDo9csR6neta1LWqkFZzE2sbhdcH7t0RTuwdb6t7D0lzIabPB66GO/MNrsc3bK7nc3zCGgbk6kHvKahWYP1blzxlAbaC7LJ10/fjoeA1qoDmLtY6LcOE33pH7fLi58DpDq7nc8/7fZW75nGdxeeXe4b6ur0+y317LQfV47puIF13vfic9Jrguv79mdYdv1N3GMAABjCAAQxgAAMYwAAGMIABDGAAAxjAwEIxQHDdIYyJA4W6QdZCubh+HL0O99sSXN/zk9KQqZuhwrutw16GCh+98Mpw4uBkcbxxcF43mPW6s2U0bHBadst6HSxVrathvhVC+zzH6jk99fpbxTlUbeufqRfzgbvuL3piKxA/9smva5XhAVvd+vFwqWoI5PjeScPGutckNlhlp5e5mL3e4mV8XFX7i7fx+Yn3nLm6clhqzeurcDsXYnp96vO0ruJ9lb1uaZyxYXNQcFy2bt33NTS4QmsNFa5nSN3tfD0frjseLrwYEruLYcJVXpUl31+89H33Y6jw+dzzvQwVrmOPzyV+3euzPC5jUME1Q4XzD9/YIa/xgAEMYAADGMAABjCAAQxgAAMYwAAGMIABDOQMLJngum7AFQcgCpJylRK/F69fN8iKtx/06/kEenGdVvVU9pBod0kY1UsY6PUW99Csmh+703oTN2610HD4nLVBPWS9/LpLD6DiEK7utt2spyG+fcjpqp6XVWUefuq5oGvRTQh6uoPruEeuhgxX6J47p2P/8aswvPICO5eq+68fgZ7234tVt1UVcMbnmwuup3/5UdFooc5zqa2uosYVI+ddUlqfbduVNLbYc2g6fPGGnRZc/+tD74duelv7PnLDhfsw4VV15dvHy/g5XCfYLwLyqvmUozrLNcDoxz3vjRrKno1+jnXWm8+z3Pej5aCC6/herjLu9d7N80vnRY9r/pEbO+c1HjCAAQxgAAMYwAAGMIABDGAAAxjAAAYwsDgNLJ3g+uBkUBiiL7urAs6415fCgk5w48CkKjjrVM6gPn9/4mj4Hxtnh/sdevLjjucbH2ccXJeGYc1mmLhhS2Uo3EsYWBxHXP73zw/HPvokew7xdc2FIoeefDbsXjFkx5nOuVvsqyTE0+dTb78b1KNWvvZvu6dtGOg6ZdRZJ67zXoPr2GydkE/HpTrTuVWFyPHxew/hXODn63U6Dl0H7dNCvZdezV7XolFExdDdCvR6nYvZj9WXvVj10L8qjJVbNXrQ+eaCa/W415DU9nmPwXNhfMVQqOq16+datbz5jeHw25c+HX7nymeDhmCvWrfsMwvrr7/JzknP5JnRsaB5rXWOuXu0rBy9H4fgB3/yUMfjiYdvH7/+pmwPdDWW0HNNx5Nz3I97Pr4HJm65PfvciBs1VDWsmc+zPK7bvgXX0d9cNd6I95F7HRuXdf2erqch5TW0vK6Jfuo+v1QOwfXi/EdoaoDfuY4YwAAGMIABDGAAAxjAAAYwgAEMYAADGFjeBpZMcH1SAectt/8mhNj1XtuX4s3jM0XImgsqcjdDS/Dwg1vaysxts5DeU1it4X4VXiv46ObY4hBVIcKBe3/aFrzEPYTLAqJewsD4OI++9GrRg3j8xq1B1zH+XAHI2OUbZq+9hmt++92Wz7XuiX37i9BMAeL0rvZ1rMxGI0ztejc0jk61lKFAZe/6TYWvIy++3PJ5fDyav1rDfh//1adt6xx9+TWbmzpeP36tnqIaJlz1nWtY0Zw+FqyMI+XXcvLhx2ZD+pIe8PH+/LUHxDa08mtvth23r+fLfgTXxz7+JAwPzfam1vVLgyzN4e2NUVQfZQ1H5jMXs5+PL3uxqiBVx1c2VHjsU+tpOHj1sPZ9+rK4bjrXG7cW80L7576c2TMSjv/6s7btY+MKx6c/+LBtHS9DdXvwpw9nLe6fmgl/seVVe2588563w7ETjdJyvLyypYfp6jWv/amRQqfhu3Nlaeh/t7D32h+0PQPSbeLQ3J716d+DZjMcvP+BojFL7u9BP+75OIjVc2fqnfa/S4efeaG458ueoTq/+TzL4/rpV3AdB+4j6y7PWor3q9f777zP7hU50MgQ6edxXeheIbhe3v9ATX3wOx4wgAEMYAADGMAABjCAAQxgAAMYwAAGMLD0DSyd4Pr/73U5/f6HRa9GBREH7t0RZoZHggJY9cgdu2JjEVTkAtAc+MUcXM93uN+W4FpDT68YChM33WahmeaejudktjD4/XxQ1ksYGF+LOEDSMShAVvDn19UDLQs3b7ot27tS5VkofOaq2ZDxe+cGGVBPWJUjJwpvFcCUzfOs0Ml7zVpdbLrFAnDbfmyvhSzjG2+0ECoXhOkYrHfuiqEwdsWGMPnYk1aX2l5B5P477y3mpx45d112SHOvS4Xb2tfhp58vjOtcxjdvLYyX9WqM69Zfxz1U1eta82vruPxHgbmvq2U/gms1NlHvdV03/eg66j7VPrXUtdhz1uqOQ4XPdy7m+Ly8fs1SzYYqcQCvUFr3he4P/Si4VX3aOc4N314W3Jrza28o6kO9gbW9yrE6eee9oKG295y5qjTQi4M/raf1U+OyJ7+5nt+qix0fToT/ftnT9qPXcf10+zp2tefsNcV1juegr1tmEXquGAr7bruzcK+6URAvT3FZ8d+D+LroXtNzTHWgAFXXpux+7cc9HzdGiY9Dz5yWOenVoKbkGTrfZ3lcL/0KrlWmN0xQHep5pLr1Z4YaUpxstDZ6kOWil/uZq+z8VQ8tdTH3t0ZlElwv/X+ExjZ5zfXGAAYwgAEMYAADGMAABjCAAQxgAAMYwAAGllRwLdDqCasQwoKiuUAsfT2+YXNb786ym2ExB9fzDfQUQCjcslDixq1Fj+W0PhWiKjArq8NewsC0LAUecUCdHoMdY43remTnK8Vcwrky9F5ZcK1jUi/WIogs8aUyynrV+rDSZfu2bYcuCEdLej3HdVlVhsIhzSmb1mPV73HomZadBkh9Ca7VE37yUND9mO5Pv8uVhhPX9dDvuR7X/Qz0VDdx/eb2V1Z/h37+VNFrNncuuo/ihh5lQ3lbfVx3U9H4IFeW3kuvR3xcdYyrjNyw8EeOnwj/50dvWG9rLfV7XHa3r+Oez34u3Q4T7vtMe657eVqW3bOHn/1F0RgkXl+vh9dcHA7ueNhslQXX2vd873kF6nLsIymkx6Hftf+qURzm+yz3OtSyn8G1Rr9QA6DcOZU1jJh694NipIV0OzUMmnzw0eJveJXz+Jz0mqHC+QdtaoLfMYEBDGAAAxjAAAYwgAEMYAADGMAABjCAgcVnYMkF10J44tBhGwZ2RD0d5+Y1Vu9DzZ1pgWDSC6wK7mINrvceOR7+7NZXLID6x/t2heON1t6IVefsn8XBteZbVr3uu/2uotex6lRz13YKSHsNA/04fKkeqYceeyqMXHBZEQIpDBq95OrZ0KfmdTUf2x9sKcd6oJ5/aTi4/cGOQ97acTzxjM1JrDrw8GV45flmTL2gFbL5ccdLva8wZuKGW2cbBcz51P4VJKrXtfUerZhvW3PzKvhU4GtDbbvx751r56SQTMOVx/ut9brZDFNvvD0717IfV8lcs/0Kru24Go1w+OnnZntiar/qDbzucrtXda2K4Dozj24/5mKO62Y+VnUf6H6ITehc1BNV8zvr2vs81mXzHdux6Drsei+MX3dTkCn3pR7Lem/qrXfaerLG56DXZcblRWVo+P20F722e/yT/Tavtea33vrWSPeGMm7jXrk2nHpmKP/0+Mt+T59BXjdlwbXKSa+LwlE9x1SWevarB3xVcK0y5nPP+7kc++TXNlVFfE2Hh9Za73E9a329dNmPZ3lcZj+Da5Wrupl84GdBo0T49dCyLLjWNrofNDqE98LXPaPf9X48nznB9eL7R2VsjddcPwxgAAMYwAAGMIABDGAAAxjAAAYwgAEMYKBbAwsmuO72wFm/GrtCJ4VPv3PlsxZG9VJfaXDdSxlsU32dqJ/q+qky2M+5mLkOJ61xixq5/NYlT1mjFwWm1Eu1z9NRP/14lsfH2e/gOi57kK/pcT14q4O8/uyb648BDGAAAxjAAAYwgAEMYAADGMAABjCAgaVhgOA600NwsePu13C/VaHhYq8jjn9xPMCm3n43qJeuei5rCOz4uvVzLua43OX6+vXRQ+F3r3negmsNTb1c62EhnXe/nuXxOcXB9UUXXx727dtvPwcnJ0MzmSc83m6hvdax6pj9+HUuX/rjPw1nnj1kw6EvtOPleBbH3xyuE9cJAxjAAAYwgAEMYAADGMAABjCAAQxgAAODNUBwvQSD6z2HjoU73x0L294ZDW+NHe45gCK4HuzNuRwejhrSvDE1lTWq+XMnbthiww9r2H/Nc+51cqLZtJEEZPwnvxyf91zMXu5yXu7cM2nPjLvf2xvGj9LbeiFY6NezPD6XOLhW0Os/iy3wXSrnEV8bXvM3FwMYwAAGMIABDGAAAxjAAAYwgAEMYAADGFjuBgiul2Bw3S/UBNc8IPtlqawczSGveZc1N7Tms1U4LXfTu94Ne9dvmp2jfsWQzT1eVgbv4xQD9Q0slcB3qZwHduvbpa6oKwxgAAMYwAAGMIABDGAAAxjAAAYwgAEMLH0DBNcE10Uv1vSGJ7he+g+A9Jqf7t8VXO85a431qt79nZXtyxVDYeKm24J6X5/uY2N/+McABjCAAQxgAAMYwAAGMIABDGAAAxjAAAYwgAEMYAADp88AwTXBdWkgSHB9+m7E5frQ01Dhk488HsYu3xCGV55fBNd7zlwVxq66Lky98XY4uYjm3V2u15Hz5lmBAQxgAAMYwAAGMIABDGAAAxjAAAYwgAEMYAADGMDAfA0QXBNclwbX88XF9jygMIABDGAAAxjAAAYwgAEMYAADGMAABjCAAQxgAAMYwAAGMICBOgYIrgmuCa4xgAEMYAADGMAABjCAAQxgAAMYwAAGMIABDGAAAxjAAAYwgAEMDNQAwTUABwqwTusK1qEVDgYwgAEMYAADGMAABjCAAQxgAAMYwAAGMIABDGAAAxjAAAaWtgGCa4JrgmsMYAADGMAABjCAAQxgAAMYwAAGMIABDGAAAxjAAAYwgAEMYAADAzVAcA3AgQKkZczSbhnD9eX6YgADGMAABjCAAQxgAAMYwAAGMIABDGAAAxjAAAYwgAEM1DFAcE1wTXCNAQxgAAMYwAAGMIABDGAAAxjAAAYwgAEMYAADGMAABjCAAQxgYKAGCK4BOFCAdVpXsA6tcDCAAQxgAAMYwAAGMIABDGAAAxjAAAYwgAEMYAADGMAABjCwtA0syOB6+pcfhfHrbgrTH34cTjabpzxYPfrSa2Hi1jvCiUOHW/bVOHKk9jE0j8+EqXfePy3H2+tNeejxp8Ox//hVyzmqrKld74axKzbWPtdu99+cmQkzY3vb9qv3JjZvDVO73ptXvcnLxA1bZs+tRy+69lNvvN3VcciHHb+u+2lsAHH42V+Eg/c/EBrT06d1v6fzHDvt69DPnwr7tmxru2c7bVf5ebMZDtx1fzj62pulDo6+9GoYv/6mcOyTXy+5uj8ldXoa7wtd2+b0sTD5yONhZnSs7focfvq5ML7xxnB893DbZ5UuOpyDnmPjm24OM3tG+lpup2PSM+DQE8+Ek43Gadmvnjcn9u1v29f0+78MEzf/cN73hP0dvvmHYWak/dp1qgv/XNd9+v0P247RP2e5tP9By/Xl+mIAAxjAAAYwgAEMYAADGMAABjCAAQxgYPEbWJDB9dR7H4Q9Z60Joxde2RZ4Hn35tc5hVbMZDj/zwmyQ3CF0EOKjr7wedn/3HNvfifF9xZfeJ8Ynwsjqi8LoJevD+I1bK3+0jso4uP3B0tBrPjeMwt99P7wrHHlhZ0/lnzg4aee353vnhkNPPlucoxoGTNxye9D7B3/yUFAA78ep10d2vtrynn/WzVJBkerx4I6HW0IWBb97r7ouTCkorHGdytZxL2OXXdMerDSboXn8eL78RsPC+okf3GLnrzqQm7L9pO+rEcDwygvsuluANI9zSMsu+10OFGZMi3AAACAASURBVJzu/s7KoOMuPbfTcCxlx3g63leItnf9pjA8dEGYenNX7WtWdWzFPXLmqnDosadKy9Q9bvf6Tx8uXadqP/34bP+2e4KC2H6GlrofdQ+NrLowTH8wmPBvvo1B9KwZPmet3ZexC3kZu+o6+7uihh9xvZ2YPGR/A3ptJOV/P4bPPq9vFjsZ0TGPXnxV2L1iKOy/677T4lD1OTy0tu1vkIL70YuvDsc//Wxex3HkhZeK51pbo5xGo/TvkDUae+sdu76qj+Hvnx+m3nlvXsfSqf75fPH/45dryDXEAAYwgAEMYAADGMAABjCAAQxgAAMYwMDCNLCgg+sD9+1o+/JZYZ0CAi1Lw+QNm2eDyDNXBwXdnfB58KkvzuN1LbhedWHIHUe8nl5rW4XtU2+901JGul5jaiocuOcn5cdeFpAX57Sq1jml+1XosOffV1lIHQc0xz7+xMI/hVXjm1vDeQ9GDtz705agJy270++TDzxigcTIusvbejvuv+PuoJ7gncqo+tyvX+46WdB741bbhwIWedh/571h9KKrzIiCz5HzLik87bvtzmxvzdz+ddwWIN+wpTRUyW2n0Ey9eq2Hd5cB87GPPrFgZuzyDUHhVbb8OY+TD/+8diMHD410Pp1+ZEX3Rrzvsu33nLkqjKy93Bp0NA4cbNkm3r6X1+r9rABZz4Jetk+3mXr73bDnzNVh/53VQaCHhmpAIF9xOQrRZOjIiy+3vB+v04/XOmezd+sdfW28oEYtCv8mbtxaevyNg5Mde/urZ+6+23/c9XNO4bKFj0Nrg55N3daV35N65sTbKlxWw5SRtZe1HZPuf2u08tRzte+XuGw9w3Qt7DnZxYgPsqIQ3UYW6fI54Pb1N1DlxMdTvG42w+RDj4UjO1/Jf97NPucaOOk89177g5YGQroHJjbdMu/Q3p8hWhbnMHeMalSiUVh03jPDI1Zv+7b+KIycf+nsc/zcdfac0QgYqpMDP74/aJu0HH5fmP8Q5bpwXTCAAQxgAAMYwAAGMIABDGAAAxjAAAYwgAE3sPiC61vvsB6BaXDmJ6SlB5kaMjYOaeN14te+fvqFebfBdS7Qi/fjr9Wr0IZc7WKI1+JYfnx/rXPyfflSQ6FbsP7eB8WX+RY4zAXlafih41MooFDHei52cay+Ty095FMvOIWu8Wd6rbIVhLT1sOsiVPHrlwuutQ9r7HDuujD58GMWXCvA1jVIj6Wb3zUk8d6rr7fQv07ApvrVevtuv8u2UQDUS89AharaVj1jyxpuKETStbbemHfeVx5sRXXsoZHK7vSTc15r+xVD4cDd22sdj9l474PKURNOTOwLw2sutuuau3ZT734w28ijZpgoP+5UvUc1EkFZHWu/6vGdfm6NPb6z0uq/l/BaPZ2t13+HY5bpkXPXtY1IkasHWT366hu16t16LM/dK7myVKdq7KFgu9M9q3vfGit0OJd4P34vW2/yyGe8Ttnr4p5cc3HLcNPek1xDa6d/D7zhju4nm0ahi2PVcZzYf2D2OXn+pS1hbtUxTu96N0zcdFvYc9Zqu9dkSWFs2Tbp+9YYR6MufPecrMHCpDd2+t65YfLRJ9vOPS236ncbNUPh8HmXBN136bpqMKD7Ja3fdL2q3/0Zkv4d1jZ+DfU3Sfuaev0tazyja15VJp/xj10MYAADGMAABjCAAQxgAAMYwAAGMIABDGAAA4vLwKILrhUu5YKzGJ6HH7kvwOP1/HXZ+kVYnOn57dv6UvvqdFy+bi/Lbo4lLV9BgwKHtIeohh3XcOy5eUtVz+r9WNWrN91P7nfvwan5iHOhhsofu2LDvHrr+fWrCq4VTM03rI7Pz3s+Z8OaRsNCFfV09F6BCpGtJ+m564J6S2tOWDWs6KZRwPFPd4fhc9dZz/h4qOP4uPTawziFqAqc0s9zvysAkjH/0bzhCkYVYls5n+4uPss1uvDQSetrGGsvR0P2Wlh/9nlFIK5gLW0okTsmK3PFkDUQKMK4dESC629qGylA66rnpYaMtvC+xlDKPpR0cY80mxa69tOM5t9Vb+zSc7lxq92nOmbVWdqbO64jC64zPd/jdfx1HPpV7ds+27w1jF250eovXdcagETXsU547cdQd+n3ct1nd1yu35Npj3kN7a5GBmnQbgGwrNx0Wy2P8b78tfd8Tnt463MZnxkeDYefft6uuaZL0LW1nt/nrgt7r/lBUIMiBbGaJ9rL7LS00TPOXD07LUVFuO+9zDWv93xHO7AGMyuGShuJ6Dnjz4lOx1/2uT9DctfeDctg2fa8v7j+8cn14nphAAMYwAAGMIABDGAAAxjAAAYwgAEMYAADOQOLIrhWbzSbQ7jRsGG7OwXEHn4oEMiddPqer29fmDca9uW8XncTFmt9DWGuwC8tvx+/d3Ms6f4UHmuYcAUZ/pnqdPSSq7NzgSogVUAQh9bqpWw9Qbvoea3tFWYMr74ozOwp71GontC5YMmPtdPSr58H1xryWWV6uKtz6XdwrSDHe+fq+DQn8viGzRZUK/DTfOSqdx2T6r6XHqQt591sBoX/amigfds8vZnQSmHZxA1bbMhrC8Uz67SUW/K5e1MQXafu5N97avt1iPdz4tDhML7p5tl1KgKweJupd963Xql2X5YcZ7x++lrXXXPv1hky2ELPobU2FHFajnrV6vjT9+PfT4zvC9Pvd54X+sTe8Zb7qqWMuXno9Xzr1Itf59bpOehlL6bQz+/lXq653ZNDF7TUnRpO6DmX69Gs+0MNS+JGFBq2W8P45xrZeH360ns+ey9kzTevkFxBse5VPQc0LYGem2qIoB7W6m3t2/eyVPiuZ6VGqVAjiLK5nO3Ze+l6a+ii53kv+/JtvLf16KXrS+2qvnTOZQ2UvKyqpT9D7No3m+Hwcy/aj8peTIarzpHP+Ic4BjCAAQxgAAMYwAAGMIABDGAAAxjAAAYwgIFqAwMPrpsnTljAF/fu05fyGgZ1ZN0V1vNPAY16qmkOUc0P3Smw8fAjF6BV7W/sio1h9JL1sz1jv3++fWmufek44uPLvda26VDcVfg6DUXcto9NN1sYmTunqv14T9I4GFZQo3BFdarzTfelgELrx+8rgNb66k1btb/4MzUc0HXs1IDAhiVfe1nHHoRetoJp9ZL042vxEg2T7XNz9zu49h7s2d7WScDqFnsJ4vx8tVTIJosKqhTiaJhya0iQ7E/vqUdnt/PtxvvS634H1ypzZmTMhvZWwO1hX7rf+Pf51l031109ZsuOSddOc3WrYYKbS5fa1hqHvPRq7fsjPle99vNVL9z0s/T3xRJcp/dqWm/p734vd3u/+D0ZB6fqZayGHnpu6X5J9zWy7nKbNzl+X9dR63d6Zul6eA/vXG/r9HqZobPW2DVOP+vmdx2XjlFBvBoT6fndFl43m0HDohfzdifPiG72p9BYz3zN/d6pIYwaW+gZpZE86uxDwXRc9/obag1lrtho95qO389BDUfUgEbu65TNOtX/8KN+qB8MYAADGMAABjCAAQxgAAMYwAAGMIABDGBgoRoYeHCtilGQ2jg6VXwh7T0tcyGt3tOX6Oq9GX/pHb/28CO3ve8v7k3sgVEalnh4l5ajYZUPP/Vcy/Cr2lZDKx//1afFeVRe9GYzaOhghZCV682FDmXH0mlbBUeqL4U0PoeregXuv+u+oIA6PTcFI7me41qv7py6OiaFKgpYFJDHPRrLjleBq/Zb1pO4ZbtGIzQO/6beqrxou24CzJb9lAQ+Xkdy02n9Mludtos/twDu0vXWq9vf9x7zcQ9OBVjqBa6hyGPfvk03S/fWrx7Xvu/9d9w92+v6u+dkezf7elrOt+7qXncfGUChm41KkIwqoCHfZbPqemtfChFjl/G5+Gv1XrVQNDOX8uTDP7eGHvHICL5dutT+dLy6TupRq1BP80+n6+n3ur1Vq4Ymz5Vb5z3d+3rO1Z2LuNdr7lMSqMGN7e/4jPX+nXzgZ3Nh6kstdSOHGgkina+57nX0QNfmpx4Zayk7Vy/9CK51nTXHcxwg655Xj/K4V7U3XtHfxDrP3tzx+nsaRUDPFGuwlDHr69lyLjDXHOhlFuP107/7evbreZP+HdY2dQ3H5fOaf3hjAAMYwAAGMIABDGAAAxjAAAYwgAEMYAADGFh8BhZEcJ3CsQDnOyvbQlWtZwFqh7ldPfxIQ9l0P/67r59+Ye7hnY7H19XSv0TX0K8eMmmY2PmGBPE+0td+LC3npCFUo8A/3caHsrUernPDDyuEU8jjPdhaypur31ygU6feff/ar3pEW6gzXD5EuK+vpepOQYt6tmrYbQVD8edVrxUE6hzTc/Ft6gaYvn7V0kNO9cpUj+tOQ0iX2araR/yZ6kV1qR6UaZ1YUL3mYht+WEG26tuG8x3fV7vu4n3Fr91bv4Nr+VPdqVyFh/E+09fzrbu6193nKbYRE956p+2YdBzW272ioULdfekc1dM0Da8V7KpXsIJJNTDZd/uPSxvm6D4ZWX3xbAOejTfOzuX9nZWhLDD055WOUfu351QSzsu19lnV4EH3tXrNpw7T6zaf37PXXA1Vpn7TsCktv7gn5+Zj13DsNn/8a28WIwekz3a7XpdvaHt+1r2OPny2nle6N9P5s9NjnG9wrXOsGmVhZO1lFl574xU17GocOdpmOT2uqt/NzRUbu2oIo+NUwxlZtCHXSxr/5PbrjVrSa6V1U8O57Xlv8f0DlGvGNcMABjCAAQxgAAMYwAAGMIABDGAAAxjAAAZSAwsvuG42bY7esiCyToDq4UdZkJlWgq/f8oV5ozHba9iGPm3traewWF/OexCUlncqfvcgsTinZjNMPvqkhVZxr9t43+qZpxBaPZ/TeYo9CCjKmwsYygIdrTd8ztqgwCbeR+619fg7a012KOvc+v6ehx4WCt/8w46hsG83cePWvgTXCvQ0b6yCRS87XXrPTvmcuOHWjoFV1lbdMEc9GLc/OBtaJ0GjH5f3VN9z9pq+hdYq2731O7j2+lC5CuKqeuL6uhpCOB5Roe5rhbveK9nrK116447hlReUrquwXUMWaySHsn1rX+k9lu7Lf7fGCLfc3nJ/6L7S/eVhvu4F9bQvC4l1n3Y6N9+f3+v+vJra9W5L731fb/LBR7MNJPxzzfWtYF31oF7N/n4/l37N/VmsutLc1XqGxb2K432qEYDqQs86P0f/3B17eXq/qI8bt7adg7bX8OKd5kXXMcmwfg7cvT2cLLk//Ti0/26mkvDttLTn0pZt4fDTz+c9eE/ns8+bHdK+D6G13CmQH155fvtQ5B2eX96IRvfMgXt3dHxG2jWZ+5uq+oyvlddDcc1qDBWue0fXsU6vby+fJf84xgAGMIABDGAAAxjAAAYwgAEMYAADGMAABjCwMAwsuODawxF9ga1eW5rvNe7VqgC1U2Dj4Ucaypah8/XtC/Nm03qKqZfr0VffsCGCc1+k64vxNCRpHJwM+++8N2gZ70vbx3Myl4Vfle/PzXFdzLe9YbOFaVZP3z/fet3G+1QPwL3X3mBDmus401DNg4CivBu3WoMB1blCuPRYtF6d4MV6/J2zNti8r130mlY4o16SCvDGLr/WAiH1aFeQbL08S8ISBUw2j+13VgaFt7nejzp/s3TDlrbzis/T5zdXL8rckOU2ZPclV4d9W39kdVHHV4utknOIr1v8WkHV0Zdey4dVKqvZtPlkdV00l7jmf+/U8zMuv+q1B37yldrJbSfjWlc/VfXSTbnzqTsdo133NRcHzaGeO2a9p6H05UehbdlzRecmP9MfflxajhzJalUQHx+Djkn1qvtF7yt8tXmE3363dB/x9jq3suON19Nrv9e1jf0+PR0mNm9tC4KtF/EFlwUND52Wod+nf/mRPQ993uE4VG+eOGH3b3w/9fLap3nwxgpjV11X9NDXiAJpeK161H2rkS9Un36OfvzuzcuzY0qfpTduLZ4LdRo7+JDd+26/y7zn/j74/n2pdeo8P339YtloBI34oXuheC99jjQa4eCOh+3vgQxZb/4OQXppWXNlW4OYlReEIy++XL7f9DjU4GXykDnQqAG6Xvb3aeiC2eeyGmJkttF73nDD1z/0xDMtjQHccO5vU+pMjSu8HMLrhfEPzbLrzvtcHwxgAAMYwAAGMIABDGAAAxjAAAYwgAEMYCA1sOCCawUQCuEsALt7u82RrC+i1YtLB69QbL5zXKeV4AGZgj+FHwo/FaTqfc3vqXlT274cV2/OJOBVr0Adt4LXOLxWWXXnefUv6OvMl5ueR/y7gteJm39o56EwJw0f1UDAAruHHyvCBM3brXmsj338SfGel3nwpw/bvOIKgvy9dKlrpCFrte7kw4+11Vlah/HvoxdfNVt3V2wMJ8b32bH7kNIK6CYfeqwlyPB9+xzeqncNdaye8LoONp/3XEiSO39t73Wd1o2XnS7V+1kNEGyfZ62pDGh9W7dVJ9zybeos1ZhDQ5Ur3Ffgf/j5Fy1UVK9T9RiXuTrllK3jgZ95vuwaq6uydfW+zk/r6qducN0peJ1v3SkMq6oHfTax6RYL/3X88fEogNN11rlZGV0EgVp/6vW3OjYimNr1noV72s/4hs1t9+jRl18LM3vyQ+3LdHy8VdfGncehrkYOSOef997net7lGkD4HMTpdr5vbePzS/t7ZUv3pSGt4wC8bP2y9/Ws1o9PfRCfo7bxANWndNC+Dtz7U+s5nmvQoHtKDVNUZ7l92jQIN//Q9nnkhZ3mvc69rXV6Cq5Lgl4/NtW3wn41rNCQ9xZgn7nKnu1TGva+C7dephpT6G/b4aefs8Yw8XO602v/G6jnpB3b+k3Fc0F/x/Wc8v3Ey3gkC52DQm89y/W3QOvlDPv2bim99v45S/7hiwEMYAADGMAABjCAAQxgAAMYwAAGMIABDGBg8RhYcMG1zXOp4HrFkAVgClH1pfz49TcFhQYKxTyw0ZfZCisbh1tDBvUM3LdlW5h65/3O83w2m9a7ds+/r7Jyp954u/hiXUMED5+7Ljs8tr4k7/WLcvXutJ5smVDBv6Cv6n155BcvVQ6DqkDGeqpPHrJz0XF2CmePf/qZhQUKgdIgSSGeBT8VPagVMGjoZ4U52l7hXTz/tg+vnps/Ww8MC3b+fdVvgo25nu8KSrT/soeKDdkbeVFvUTU2UPDhPbXLzt/rulPdaN9yqPVmxvZagwaFUFUBrR9vVfiqId6tzJrzgFuZc/Wi81N9y7rvy0Ms3TvWW33LttkAP+PMtylbehg00OD6zV1B92WdYLDsPKrel2k1spBX7cOfK9pGw+xrvvBOQV3uc+8lrCHscwFwcUxzwzFrpAD1YrZRCqKg0nr2rruiCNCL7eZ6k8fHG3+Wvnbn8fPKeriqkcOzvyj8aDsFiNajOnlfn+mZUvVciverOal1fyicT58nWs99qaGMjiXe1l7bVAhPFA2W2j6fuyf3b7t79llz5IjdS/E55rZRmKu/J+pRnH5u9/au6h7vMqP7TnUqM7o/6vjUOtngWn9/nnrOwueq51x6rAqk1StZQ9zL4MzwaHE+Cut9FAqdqxpkWQOIiue3l69t1fBKfzv1nkYQiEcRODGxz4ZkV6gcP999e11zPX+L59Lcce774V2ljUi8wYQ3WFNd6e+IHPqzOWfY9+mWOl17X5/l4vkHKteKa4UBDGAAAxjAAAYwgAEMYAADGMAABjCAgeVnYEEF1z5M+MSWbb8ZillzXt9yexEqxcG1wCq4jnvXOmKFAPpyXV/qW4/JKBCydZpNC1X8C/5cAGFzp55/adBxebm+1JfkvX5R7semEPfoa2+2BDv+Bb0CHRt6eKa156wNxe3BbC7wVODzwM9aAh8dpwcAfvzx0gIyzYN9xQabYzcO2xRIqx4VIlgondbjyZMW5iqkO/6rT9vqyffj17ZsXuPSYCezv6LMyUNh9OKr7ToUQfKcFwWeCh+1btn5e11X1Y22lx/raT03rLOH0bJoQyRX9C5Phz72oFM9fXXMchePKODn1rZsNm2oavVM14+GrTZHl11jPWe9Z6JCQoWF1oN9xZCVr2s3csFl1pNUwaR6A3cKyTwMGmRwbSb8OjYa1ngittlWR4kVNWIo6iX5TMGq7m9/NmhfRRA8Z6jX+1sBtJ4rchKHfrnjdYPZ+ePnjkNBoA8p7mXo2IrjTc7N1/Gl76PlfFT2DVvaeh77kM3yExvxIfkVyte9Bj7XseoifUa7L52DRmfwY/WlgmULLtXrNtNwRcdgPa3nPsueY1IvaiiiIFf3pHr1xr2RdXzqLWyha8lQ6ZoqQD3EffQPmfG/GxbU3/OT0oYOGqpcwaz27c8AW0ZTPqhuc+fqdWLLuftAx6qe77peCtz1t0SNtRpHjs7WZaNhjYC8B7SOU1Mg6LpqOgvVr0yp3rz86Q8+tL+1ZfeM1lM9KSxXIwbfLl6mf5/jz8peeyMKPWOL+pyeDqoPvy+qrq9bavGdXPuyffP+8vtHL9eca44BDGAAAxjAAAYwgAEMYAADGMAABjCAgYVtYEEF1xrqdGTd5UE9nYsgUr0fd70bNJ9o2uNauDT/p83pGX1RrS//FbbqS3D1TLUhU+c+VxnWU231Rfa5QhULSc5a09ZzTr2/y4JWfUk+ny/KvWewesfGwY1/Qa/engrsFX75TWTBy/fPtzrS8NAeoPjnvtQ5+mstdZzZcFY9TX/xkg0PrvIU4o1v3hr2b7vHQh2F6iOrLyr2p952cbn+WsFJpzDLAw/VqW8XLw/+5KF8j8Tousbr67X1ir3oqnYvb79rAZHq0utTQzGn9eKfZesm2q8NxR31QI2Dax2HwkkbdjjTs9nXVciVHn+t3xsN82u9fzdsng0A53pOemCTHdq52bR1FU4qsNK9YOHV9861gMt7o5cdg5etbTrVj8rwEE/rK7zqR7mpCTlW0Kn5mVvCv2iOYn/fGwZo/aq5qf044+BartSzWI0x/PO6S90jOv9O94OXp+ugZ1T6HPDPfSh8H3HC3/e60HXy98qWfi3TsNGHZ457evvICApZi+G1da9p2oSzz7Me2WX7yb3vPWcVQsfl+THpvtSUBoXHuR7IaniisFfHmGs4ZL24o/vN7+XsM1nzRO/4mQ1/rWPQCB36++BzQdvfg7PPs4Y7mlc+Gx5riPG77m9pQODm/d62543mcc70bNY62R7X0XMmV3/+np7NmgJAfx9b6mvu2qhsNXSKw3jbdu75ob9jugbFc0AjRty7IyiM931Yz/eoTv39eKn6k430b66vo3umboMK30Zl6Rmmnuc6Pq9PXXub7mJmpuihn/v74Zay1z5Tv/p7peepNyTQdfNjYbmw/8HK9eH6YAADGMAABjCAAQxgAAMYwAAGMIABDGBg6RtYMMG1QsXx62+2L8Q97MsFYGmPLq2rnmceFGlu6bErN86GLE880/5F/smTs0H1v6+yHofqoeb78y/MBV9hpL7sz31Rrs/1JXndL8rLbiSdi76oj8vxAEZhoYJqBY8Kkw499lQYWXt5Ww/tsrLj91V+Gj7aHMk3bLG5dTXEtMKWyUeftHBDAYd65mk7hbZxWb2+VoCloKCs17bqoqtgZ643qkIPv345LwqpNF94XMd+DnFdl4UXqvtjn/y6pQ6q9udl+9LXjW35Z1VLBaDqUaqARY0z4oDJt9NwvAoT9bm/Fy/VsEGNPprHjgfNlzxxw62zc4Vnwpx4O732MEg+Uzvpuvpd5+ehWO46+DZeH1q3rFGIr6t7Lw7Bco593XTp11Y9XL1XdbpO/LuO3/flgVmdwLsoo9EImgNd95B64RfvV9V1s2mNRBRcK2i3aQk+3d2yrfd09mPzclUX6Xv+WbpUUKcRHNLrUvSuvvDKoP34dgq4dX3i9RVua2SA3LzQvl1uqee6wsy0PPel81CDJRtd4tjxcODu7fbsSXto58qO3/Prnd7nerbp74EaAemZJws2vYANp78mjF5ydZjYvCUcfem14vzjcv217r90vnE3X+fe1jpdPd/kptm0fapuNBqGQvWiR3Xkyhp6JQ0D/Li1lGPVp7ZVGePX3TQ7VUVURrx+1WuZqDqPblxqP/q7rcYLaixSVZ9lhlVGbKnq2P0zDZ3uz6qqc/H1WS79fwhzjbnGGMAABjCAAQxgAAMYwAAGMIABDGAAAxhYOAYWTHCtnoUKmRRAeLgVByeORu/FgY31rr5ig33xbT2pFLjOhRS+TdtSwym/834RaPn+4gBCZWn4VQWt6vGXBof6gj4OSRSIaH7sOiGZH4+CI52LgjJ/zwMYhYUKk9SDVL3CFWJ6OO/r1l3qOD18VBma11fDshaBrA0v/ogFEgqoNJSsgmuFPgpNsj0Quww9FIaVzmd78qTNw+rDwtY5L805bQ0WOnjxUCNnKa5rva6zX63jXnJlpmX4urGtdJ30d/WCV4MB7+GuXo66Xt6b2JfF8MPrN7V9pnVsmGDNFf/j+7MNONL9xr97vSngcTvx5+lrD53SgLJtvZ2vWO9irVfWKETbWEOWDZutZ6zPpRs7TstNf/drG9+j6Trx7zr++LmizzoNA+/XQUuf11qNPhRe53rdxvvTaxt1YWit9TQ99tEnNky1Qt6WkQGaTRueOu1Vr/NKjzct338vM+i9q9X4oZiT+OTJoJ7uuj5aqgw9M3R+cc9sL7vOUs92DdGtpa/vvnQedq2u3GjPHPV+bus1XONZk15vhdTypZE6tC/tV89mPc80p7h6L6sXu37UwENTTrTUe419uvk697bW6Sok1dzQP3/KgmY9f2VRfydic/56ZN0VNhe8Aml/z5canUDPVY26oMZPXv+9LL0xVzqMfFHWnFX9vYobQhSfZ+rUnm03/9Dqvqo+ywyr7NhS1b78M7mQb/2k9n0dlgvnH6lcC64FBjCAAQxgAAMYwAAGMIABDGAAAxjAAAaWl4EFEVwrMNj3w7uKYVj9S+pcMJgG1wKrQEUhs4LvbnvqaXvfXxxA6pWAmAAAIABJREFU6At1lalw2UKHM1dZzzAPBEZWX2xDz/rv+jJfw/1qfu5ughcNketht76AV8Cr8MvDQpt/eu1lRd30coO2BH6NRrE/laVeeBqO1YZUf+d9C9wO3PtT6x2tnpAKzMuGha17LApgbU7W628qDYe6CeIUCuoYfQ5rv345L2qgsOes1eFwNNS3H7eHXV7X/n6nZdX+0m193dhWuk6n3+VDjQjS+ZKtR/Lqi2yO21wZ9vm568LM8GjXgZWHQQp36tSPh05aP3cd/PiK0EhDUb/0aulx+Zzo8fDWLY4zIZjvQ0u/ttomfr/stY4/FwQrtLW6P946/H7uOVRWdu59O74rNlrQqOtrQf31N9kQ5XHAq22PvvpG2zXu5n5Rj1ybu/mXH7XVhfeujn3as+/s84qgWaG6hqi2oaQ71HvuXL3nsIf5ajCjXrYagcGvj+5lBbBl0x9ky42OJb3eCnrjnu+at1nh/+jFV1svZtW5RrOwevnw49lpGd7c1VY/Vft183Hdla2vdboKrqNz8zJzFs2NGnhcdo2Z93V96Z/rvOuGyb5tuvTGFeqxnn6m3/0alB1Luo1dgy3bgv7G6bOq+tTzW89xPc/TcvxZ5ZbSz9PfrYHbpevt7+z+O37c8vcwXZffl9c/iLneXG8MYAADGMAABjCAAQxgAAMYwAAGMIABDAzewIIIrhVaTD70WPGFtId9uQAsFxjZkLerL7IhwHtB5fuLAwgFbAo2FLbo+IaH1lrAXVa+tlWvwl6CcwU52te+LdssuNEX//GX/5oDW8Gvf8Ffdgxl7+sL/bg8W6/RsDlnNfx40Zvbe17PzYWqUEt1Y4HSnpHi+pTtp+x99RTUnLUKxMrW6SaIU29rGx57bi5Zv345L1pveGX+unQbtPixV+3P1/Glrxvb8s/ms1QvTBvOfc5orizVqYZJ13Dpuc+r3vMwqJ/BtYZaVmMQlSnP3qM8dxyqt+GV57eYyTrOBHwqz6+ttsmVn76n65MLrtP1/Pfcc8g/67hsNmeHgb/4qpaRHHSfWOOXW+/oeMzd3C+6B2yY7/0H2spVo5S2QLXRaDGjc9UoFh48dzy/3DXRc3TXe9a4SM+b459+ZvVdXJ9m055/Y5dfGzTdQ7f7KLveCkd1jnLnvbn1nnpeq65lUfWjkTX0jOxmdAmZ0fZ17m2t01bPuXrq8j0btSMzDLzXn9fL+Kab53f9Tp60Idbtb9zHn2Svj++r7W9NyTlNvf6W9Xz3Y62qT/0tKjPsz6rCUsn+fD8sB/8PT64B1wADGMAABjCAAQxgAAMYwAAGMIABDGAAAxgoM7Agguvjn+1u6fXkYV8uiMwGRj5X7PfP76lnsu/PAwjrIbz2sqJHqD5XqKVlWUVq226CL/XKnnrrHRuC13qKz82jnPvyX0GLenYrfOklGNcX+kWYMBcgaehfBUgaUlfnpH2oJ50CZr2/96rrbJhm9XxVT0UNy611ys6/7H0fZjgd6jheP3fO8efpawX9ccDk1y/14r0Nda46jrScbvfr25ftzz+Pl76u24o/m89r9UDUMLfe6zwty8+t0zzS6Xb+u4dB/QquFUbuvfYGC/oUGKoxhu8rt5TFdEjiFscdwik//7phVrf3b/Y51OGY/Dyn3nnP5lZOG6J4CFncqxXl6bzqPm80/Lg3wvFj8KWuswLzsntb95kMqbetb9PNUuWqbjV8tIa71/60vfuKr4/2NXb5BpvXXT2ku9lP2/VuNMLh51+0uaE1RLbf/xphQiGuQuTJR5+wMFT1o7m7FYzu33ZP7YBX5zXo4FoOc3Oje90V9VyjMYRvk1v6qBlqXFXWgKHYV83GItPv/7LFXVl9qqe4+SlpPNHtfnPnx3v8IxkDGMAABjCAAQxgAAMYwAAGMIABDGAAAxjAwMIwsCCC6xSDh31pEKn1ygIjDf+pXpwa8joNhNLy0999f/riXJ8pyFFw62GHPu9XcK0AQMGweq4piD762pstQYAHMGl45aGOAhfvOZieR9nvceCnsFw9n+OgyofRtXN8422rAwvGzr/U5vfW+gq01Usx3q5sf/H7h596znrOqrdl/H782oOJXkNWv36pFxvaduUFLXOIx/stq+t4ndzrsv1Vreu2cut0+56HbAojy66HnMlXPNR21X40DLkCIP/RnMeak1zBnAJk3VP+mfafDofvoZPWV/jn6yqk1TzDCtn1mX7UCKPsuHWM3nAkHd49dlx1LvrMr20cjFZto+OvGwSrnLLnUNU+9JmGwta9PfVueyMYn0N4ZO1lLT2xc2Xa/bnqQqvn3Of+nt9b6lHs73Wz1LDlbfNuVwTqVnazacNx23zSZ6220DFtcCMfqu/0+qh+9AzXZ+mzseq40+t95MWXrYd37PT4rz61Ic9t2PNffVoY8eeOGlPoOWdzec+N5lC1Tzdf597WOv3uca2RJ/R3RNMmlIXJuo9179kIFZ2uW9nnc1Mz6HmiURPK6sRGPjlnbe1nTlpOWX1qSgFrpBPNkR5vW2YpXid+rfV1D2pKDpvHvca1jrfn9cL4xyvXgeuAAQxgAAMYwAAGMIABDGAAAxjAAAYwgIGlaWDRB9fqQaegQfPAKpzRl9H6Mt9Cj7Iv4pP3PYjUF+cKq/de84OWIYprB9eaT3hsb9sX+40DBy04ULCu3qZ7zpzt1ezBeHxzeQCTBtdax+bmvPDK2TDxwiutx3YczMTlxK9LA79m085T9aUe1cUQvc2m9Ur0IE8hoz7Xse/b+qMi0I/3kXut0FLDPSuoLwtWtN18Aw+/fi3BtQ89fMVGC6hyx1dV17n1/b3s/hJT6bp1wi3fpmpp10K979dcXDkfsB9j3cDKQyMPl6uW7iI+zlrbrxgKB+7eXhlaq0wFiLke/nIsqwrsfW75sqXWsXVr9v7U8efOKz7H+HUvwbUan+i4pj/4sO0Z4WWrp/l4xVzwvl7d4FrBs3qrqjGAb1t7qXto649anoXaVqMw5J5zMyNj4cA9PykaPChsLGtkUxU2qn50LfS80UgNFnp3CBf9Xk6DcDvXRiNMPvK4zZGsMN2fuxpCX0Pp+7NWz2nVlQWaOx5ua5yR1pub1zL9LP1d6/QzuPaGTOqhrtfp/vx3/5tYNU2Dr1u2PPzMC3bsWpato/c1+oMF/w//vHK9sjJy9Wl/j9dvst76GkEjt22Vpdz6vh8949Q4R39/cuvx3tL8Ry/XleuKAQxgAAMYwAAGMIABDGAAAxjAAAYwgIGFbWDRBtcaLlohmAI8+1JewYbmjt3+4OzcpSuGbF5WhREpwubx4+HAvTts6GIFX2NXbAy7v3uOlaNenuqlGn9JrhBQAayG9C4LylRGWTAx/f6HYfj751vgrCBmZnSs7Zj8GD2A8TDF3/dly5DL31kZ9py9xoJ2BTO+TrrMBdc6Bp2P5q+eUi/rKBhKAx2V5z0h9WW/et6pR2O8TbpP9dDV0Lu6Hi3rNRptwaWCSoVUmos2LafO7x7SxsG1enjrOBWel5XRqa7Ltsvtr9O6uXDLruX6TSHtWVxWlg9zrHrtNKqAGnMoRCobSjzdRxzmVIXWFvZkevqWba9GGjaP+vYHO/Yi1jGpR6d6wMpbeow5x+k6/rtf2/ENm1vuZf88Xer4T2VwbaH1rXd0vG7qda2f+PjiZ5G/Xze4VhBuPYhLGlZ4ebmlAj31tvagV+todIbRS9dbo4C017iHpLqXJ27+YTENQa7sTmGjHChEdovDQ2utMcORna+01I2X7dc7Da4VemvEAD2f017fNkrHuetaen1bY5u5Z7X2n56j709LN69l/H7utdYp+/uge1nP+6p9xWX6NRi7cuNvGhvlrm+zaX8Dh89Z23M4O73rXQt302dU88SJoJ/iuOYaCnXzzCm2nTv2XH1qxA4973LPA9++kyVfz5cqS73u7W/Z2ecF9Ur3z1gu7H+wcn24PhjAAAYwgAEMYAADGMAABjCAAQxgAAMYWPoGFl1wrSBFwYiCZuttls6F2mxaUKNec/piWkuFGQobWwLUuZDMwxEFG/pCW/Ofpl+ST73zvn15b2XkAoK5EKMsmNCNpCFJD9x1f1toqwBe+1QAr16mCu10fnovPV6/IdXrVr2YLRRcdWE4/NyLbeX6ulrGgZ/mtNbQzQpKrFd6o2FDaSs0Vo86DZOuHp86BoVecTkKdfSFv0IMaxAQhd3xeipXvcuP/OKltnNQCDb5s59bGKGgUPOzal/Wg3ikPNCPy09fp0Gy9Ua8YqOdT7pu/LuHXWWNBOJ149fx/hpTU9bLtKxBgxoHmNUrNrY1erAe+DJ65qrq8Fo941Wn519q1y4OEnVcxz/9bLZRxaabrWepGgKoblV+Tz1tS4zHdXAqXsu1bJY1Nogdd9q/XdsrN84Ob58EwbltFZpVBdcKt9T72O8TNUCpWj/dhxodyEr6fp3f1QhDPYO1P4WwCuNlRs8uDQVeVoauvZ4pGtpdIaP1ZL9xa5vDMruaG177iD93sxb6DV3QErYqYNccyJOPPtl232uKAquz8y6x55HOR/e9emiXHb/qTI2ItJ6eOyqjbIQJv5c9uFbDnPHNW+15Ov3hx9YYQI179Hyz59zjT4exy6+1svVefAz6XPWsRh/VvZl/M8e16njf7T9uqau43rxxVNr4aWLz1qBgOVef8THZaz2rn3gmjKy+aLYxQqPRctyqn7ErNtgxyKkaDelvkq5j+sxoKzu955vNoLnB1ehEf//S9dXoRo2/RlbPDuuu0Q10nbp9lsblpsG1NV646KrS54Fv221w7dupQUene8jXZbn0/zHMNeYaYwADGMAABjCAAQxgAAMYwAAGMIABDGBgYRhYVMG1zQGrIFDz5G66OSjYKIOkXsTqcasv0xVgqOdYLgjWvKeaI1S9jPVFfy40q+ot5/uvs46vm1uqd6OCeA/b6wztqnDm+Ge7S+vA9+OBn4aNnnzgZ+1hZrMZFO54iG8hSslQ1Lnen74fhSPqBT9x023VPQE1B/H0tPXmtPM9a81sD+40PKn5exwkW/i5ZVt1EDxXrodd3YYt8f507moMoPCkLFTz+ullqYYNCrsUcFX11Ne+FWopqFKdyn3dYcJ7Oa5TsY3M6z7Kla3gVQ0mrJ7ruFCjiiTYy5Xr76nsTkG0njd6VnijmDpDenv5/VjqGWENIdRwZ24u8dwzzfeloDauTz0/c/OT+/qnfKnnjIYB15QJGrlh6IKgeZo77Vc9knNDk8fb+b2soF7PON0LbaFzozE7NYL+LszNt54darumHdWtyvE6VmMeq9+SBj3x8Xb1utm0+br1nNJQ53relG1vz+B7dxRG1cChzt+SuDyVr2f4/rvu6xh4K8C2BgAadnvVhZXD4Mf7yL2O61PXbvz6m1saRuS20XtdB9dqCPTSa7PTWGhEkDrPE9ahnjCAAQxgAAMYwAAGMIABDGAAAxjAAAYwgAEMnBYDCzK4Vu/G8etuyg7hqaBj/7a7K3sY+xfR+hLfgugaQYICT83R6tvGS33JrZ6ElUH5ex/M9mCusa+47Pi1gg8FLzZ0dx9vAPX2TofJjffrr7V/C0duv6syHPH146WCb/VIVdAav1/1Wj3bJzZvqXVsVeWYlw2bLdzRcdQdHrtxdCpMPvpE/TB07ppofzJYFSBVHW+dz9SgQo0zdO2sd3tND+qZrV776fDvdfa5nNeZfOgxa7ii50BlPTSbNhKBQmuFdpXr1rxm3ZSh49Mw3BpxoepYdWyTDz5aa5j0bvbfj3VthID1m4KM96M8laF7WQ2PKht3zF0P7V89iRVw629Er8egQFjXYT5ldNq3nmXqYa8e1FV/f9Jy1GhBf0PrPPfjbY++/Nrss00NcWr61d/YiVtur1X3VWXq76z+/qmBxtRrb9b+W6Lno0bxqPs8tuu/7orS+derjpHPFkaLS64D1wEDGMAABjCAAQxgAAMYwAAGMIABDGAAA0vXwIIMrgG3dMFxbbm2GMAABjCAAQxgAAMYwAAGMIABDGAAAxjAAAYwgAEMYAADGMBAaoDgumavsrTi+J2bCQMYwAAGMIABDGAAAxjAAAYwgAEMYAADGMAABjCAAQxgAAMYwEB/DBBcE1zXHhKWm64/Nx31SD1iAAMYwAAGMIABDGAAAxjAAAYwgAEMYAADGMAABjCAAQxgoNUAwTXBNcE1BjCAAQxgAAMYwAAGMIABDGAAAxjAAAYwgAEMYAADGMAABjCAgYEaILgG4EAB0pKktSUJ9UF9YAADGMAABjCAAQxgAAMYwAAGMIABDGAAAxjAAAYwgAEMLEcDBNcE1wTXGMAABjCAAQxgAAMYwAAGMIABDGAAAxjAAAYwgAEMYAADGMAABgZqgOAagAMFuBxbi3DOtJLCAAYwgAEMYAADGMAABjCAAQxgAAMYwAAGMIABDGAAAxjAQKsBgmuCa4JrDGAAAxjAAAYwgAEMYAADGMDA/8femT5JVW1t/s/p6OjoIeKN6D+ooz/0B4eLXqZCBAEFEQVFJgUHFOcBRcXrrNfpeh3A4ep9naAGaqKoIouiMv2yO55VudKdJ/cZsqqoTOD3oeKcPGefPf72zqzz7LUWDMAADMAADMAADMAADMAADMAADMBATxlAuAbAngLITpL2nST0B/0BAzAAAzAAAzAAAzAAAzAAAzAAAzAAAzAAAzAAAzAAAzAAAzBwPTKAcI1wjXANAzAAAzAAAzAAAzAAAzAAAzAAAzAAAzAAAzAAAzAAAzAAAzAAAzAAAz1lAOEaAHsK4PW4W4Q2s0sKBmAABmAABmAABmAABmAABmAABmAABmAABmAABmAABmAABmAABtoZQLhGuEa4hgEYgAEYgAEYgAEYgAEYgAEYgAEYgAEYgAEYgAEYgAEYgAEYgAEYgIGeMtD3wnV9ZiaMHXwkTH/4cfijXu/orNl//RRG7z8Yal+fTt4v26lQv1gLfzQaHfmmnrv0089Wl8vDI5XSp/KIr1nb9h8JtdPfL0t+cd5F59Pv/z2cf/54qM/Ormi5RXW6lu9d+vnXcO7eBxfNaLd9o/JGDxwJy8Vpt+X3U3qtD+OHj4a5M4OwXvBl6+vo7I//rrweLuc4jz/yZJg6/trVsSY1GsG+Nwr6M+6bi5//M6h98xeml4XByyPnwujeQ+Hy2aFlyS+ua9G5vjMuvPXeor5ni/Ltt3us1+27G/ttfKgP4wMDMAADMAADMAADMAADMAADMAADMAADMAAD1zYDfS9cN2YvhXP3PBDO3rwuXHj7/Y4X9RJcBm+9LQzfcXfQC/1ugZWIO/rAwcoi34W/vRvOrhoIeq7bsrLpL/3nL2Fw9e3hzE1rFwSBikJINp9uPjcuX7b2nrlhdRh78KHQmJtbcju6Kf9qSytxX6LT5LHnQ2Pu8qL6Ssyov4du2xY05mV90M1milReMx99Es7cuMbmxez3/yotL5VHL6/Nj46VC82Nhs2ZMvGu9t0P4ewtG8LQpu1h/txosi80J2pfnVq8aNpohLnfzoTR3fttQ0jZRpjLg0OV15uycVC9xw49umRRVGvn0LrN4eyq9WH6vY+S/VRWF92fn5gsnCez3/8Yal9+05a/eB/ZvtuY1Vzr+zWp0QjnX3gljD38eLV+bzTCxNFnwuCa20Pt2x/a2l6lT7NpJITrO0Pfexr/7P0r8Xl+6kIY3rrTxmji2HMrUuZi2sF6fW3/YF0MEzwDEzAAAzAAAzAAAzAAAzAAAzAAAzAAAzAAAzBwdTHQ98K1gJLAOnLXvUEWylnAJHINrb8jTD73csc9CVLZ9B2fG40w+exLJm7NfPxZafr5sXETICWmS1TvyK8L8dkFzbF9hwvFno4y6vVw8YuvOgSgjnSJushqfPCvG00okhiR98zMR5+GqRNvVra+VHqJs1X+NF4at7jsvOclpEl0lFBUnzzf9kz8vM5lYSzhS9bGy/VnYk2zXbJyrM9cLKxDtk4SUkZ23m98SUTN3s9+lig1uHZTmH7ng8p9n81DgpqErYuf/qO0vOyz/fBZ/SSRT0Jw7jju3m+bWYYGthaK3C5cp9aHuK3qb43T/Oh4W59pDZk/P9V2TcL0/PhEmPnk8zB2+KgJvs69Ntho40Ccd/ZcrIvrwvZVZFibIbRJ4fxLJwrL9DrUTn0XUlbVvo5qrfW0izmqnzV2yic7dmN7H7J5oLarDzx/WcOL+dE9B7pbBxPrm+d5pY/axKJ1W2vZ7A8/ttqSV66vu5qbeWmqXp94/GlbZ/W9VbZJIs5TddaGKxv/LvtOa4nWFI1p7gaeRiNMvXrS5kVcbt456/XCj8Wrfb3OG1+uX13/DDBejBcMwAAMwAAMwAAMwAAMwAAMwAAMwAAMwEC/MHDNCtcSE4Y23lnJMtrFaFn9VXEBO37kiaRQJCFYL/Zrp78rFSfcklwiz6V//1yefu6ypRt/7JgJQxLKJEBXKSuGbeLJ50z00EaArLDkn11gkiCm9LlCRSR+5AnPLujFx26E6/g51Wfy6RcK6yOr2iJBPu6LqeOvW1+MPfRYVwKQ51Gv1cLkMy/m9qP1Z1NgNTFv3+HCtK1+v2G1ibKLEa8lssr7gAT3Sv3QaPSdhauLzbG46X3uRxdap9/94M+5U693sOF5lQnXvsFgcMPWIItoL0ebZbQuaKPKufv2Wb8qjUTW8UePmXXy3K+/20aMqhtZfK4Utc/LLzuqXXmbelLPmuh54xoLr1Cf/nMjkPfncgjXsnBXv2fLt768616zEFd/+31t1pCYfbVttGiJ0QeOtNribcoexYaYSY15y/V3xF32ef8si3Z9r+lPmyf8et5R5c6e+tZCXJy9ZcDWuyzjec/69ZaXjpvWhnO79uavYc21Tps3pt54u9Kaynp99a/XzglH/rGBARiAARiAARiAARiAARiAARiAARiAARiAARhYDgb6QrhuzM+bG3AXTrNHWVXmCn97D5nr7qHNO1ov1NsEQLm+reDWWwKtYmnrJf3cb78HiZnZepR9dutc1bXMJWxL9EiJpvW6CWGy6JRILpFCoq3+BtdtNiFN7oGnXv/bgqvYROzvFBxyZ6znR/cfKYxTKiFdbVB7qsYGlkAi8cv/5MJdroclPFs+v51p3TPBJVNnF/OUXm51PR8J8ybW33qb5aX7GocqYnqqD/yarLcl8KqdVTYO+HPZo8S4lCcATyeuJORInPNrV/Io18Fn/7I+SJQvLUcWksdft3Eq47U0r2gTw1LTuticEvk8bxda4zR2bfP2tljJnleZcK183QPC+RdfbfVdS2xdoiWy11tHZz2ue3y/m/NuhGsTICUuSlg+1b65xvuzSLjW82V1U31i4Tp2e+99mR0Liemaix2W7cvIVFm9F3N/QdA9ZN4g9HztmwWBuOx7InvfrOYVSmDjnW2bJlJ1csvn1PzWmnh5cDhMv/uhrZFDA1vsO0Prj9bic/c+aO7NxXk3IQRsTVk10Gpnql66ZhsQbl5nAn2Zd4y8PPKus17/YRsB+nG9zhszrvNPCgzAAAzAAAzAAAzAAAzAAAzAAAzAAAzAAAzAwGIY6AvhWhWXBZ7FqM4ImronMSXPqtAFl6wYspjOiJ9JWYKZ2Lzmdot3HFsMxs9VPZegKYtp5alnLpx8x1wHS6iWsCFrTsX0NiHoL+tDm2XpYgSdRiOMHz5qApHKzhPzJX7IBa7ieC8lfqqPi4TmvLGL+8rFPKVPjeX8hekgV926LwF/6sTJUhEtzj97rr5VPuqTbtztZvMp+izRX4LRcrlArmLhrQ0ccul77r4HyzdeNC0k1adVNlsUtXU577nYHAu7ta9Pt7mKd77iNH5tZPt9od507+15pZjK1tlizq+53ead33OxtUjQ9bRVj856XPeqz2bTqV1V5peeszjWA1tsU06Wee+7vHZqvRjadFdpjHZbryKLa7mzlih98bMvbIOH6hqPhfev1qRs2/yze7Ko4pLbn+nJsdGwcAVqU1y+xOazt26wjUZ/JL7f4rRF5wtC+UELVSEvIYoFrhAKZv1/+KjN94knnzUvANrsIwtrWVsX5Vl2T99zsrLWeqIwDHkePjRGw3fuso1R2iBVlm+391mvj9jvA21C6Lf1utuxJD3/rMAADMAADMAADMAADMAADMAADMAADMAADMAADBQx0DfCdVElY+FaQlQsGrvgEoshRXkt+l6jYYKPiZ2PPBkkpC42L3dNXsVFtQtvSxW5JELLRbeEBwkrcn08/d5HHW3QNb0c7zZ+arYvfFz0kr2KsOZintLnjeXloZEgN7dKIytF9WO23Cqfl8t6r6ysrIhXlr7KfY2dWTM2Gh1td4v6KynGV6njUtOkmNcaIC59w4LzFc8Lvxbz43nF13Lr12gEc58d9a0Lq3mCbm5eBZtLZJmqzQVx3ReTj55Ru6rML6X1ckd27Onc1OCeKwa2dt7TBodV6xcEs4EtheJ1lnl91qYIebHwvozHwscnWadmnG/zOKHNFRu2hishii6276s8p+8qi3Evdo+/3vbdVeX5OI176UhZW8fpdC62Ysv37P2qn2WdrbVW7vO18WF4265O8brRCOefP/5neIMC9quWG6djveZHbMwD5/AAAzAAAzAAAzAAAzAAAzAAAzAAAzAAAzAAA9c2A30vXMvVrMWY3bXXBDsJroMDW8LFL74yS1mJVRI9Zj7+rEPIW054zV3qLQNmdRa7qZYV3PQHH3clZEsMGLz1tmQc2GydXdhZishlL/7v3GVW3Z6/hIjhbfe0WeRJ1JYVuPq7UnzkAoHCRcTlFK5Vd4vRK6vrm9YuOiauxE93u37xH19eEYvrxYjI86Pj4cKb7yzODXqjYS7W5Qo+K+5NvXrSuNWY+Pj38zHFvITj4a33tNxJO1/xvPBrKWE0vtZN211srSJc105/b5bFZfmn2qf5ZmtankVuoxFmPvmHWfTG+atdVYXrsYcfN+vZeOOP59Xqu2deXBIjqk8smOqzx7QYIiWvAAAgAElEQVT3vozHQueDq29PiuHq86pt83b021Frfct1f2ZDhNhNjUWyDT6/FYN9aKR0jJZDuNY6ok0DsecNfUfoeyNeY3yz03KEcEi1nfX62v4RmhpzrjHmMAADMAADMAADMAADMAADMAADMAADMAADMHD9MtD3wrWE4fmJSRMX5Xp5cO0mi5l8ebj85X1VsCVEX3jrvQVX5QkxVqKSBBSLgT3XHufVreBkDShBqqxMc6m6dacJp7K4LrPcTolcZWXE983198FHzCIu6x7YhOoNW028lpCtNsjdqwTUOI/FnLsQttzCteJ+S3RWvhKxu63b5bNDtvFB4poseOUSXW6Mu80nL73itavPZfWs/rz086/W99m4tqnPFuv2xjXJscorz687J7Eo6Pd0TX0md8zxpgu/329Hb0ssSmdFTOcrTiNraVmExn3gecXXummvi61DKUvkpkWwxnJs70Mm2MoyOc8Nv5frdYrr7u2RUJhiw/M3kbcZXkD5qV1VxF15J5DL7liE9Pro6HVabD95Xno+K1x7/bwvvYyFtfAe23iUjQHvaRUeILtueVm9PtZnLoapN97K3eRja82GrQuxoSPRWvX2WNXDW3d2bEZItcvDDogvWTeXCd5LFa41NkVeOeQ2XuK1b3bSOKk/UnVfyjXW6/bfG0vpS569fn/oM/aMPQzAAAzAAAzAAAzAAAzAAAzAAAzAAAzAwNXEQN8L13FnTp140wQ4xbuMrxedN2YvdaSd+/2MCYsuEMmVq4Q9CSxZIdmFX8X37BD93H34TWtN+K4isHisTgmvY/seLhUgXFCKRa6i9rbdkwvXF15ZEEJzLDllLSfrb8VgXS7RWnVwIW65hWvvD+UrYSU1vm19EG1E0PhpzM3l9CtvmCWoW9JK9Jx6/W8d45+XV951xUmWyKkypt/5wNhTHSUE5T2j6261KG8CGrOy9HFeJvLt2LMwfolysmJi/Gw/nvsYx8xXEq5nZmwOuzCqtnle8bW8NqeESBdQnZO8Zz1+dJU55HWK2+fl5NXT59NkxiJa6V0YzqubrmvdGT/yRK4I7HXSGluUT9k91aeqcC3xVta78jJw/qUTbeVKaNdcyLa3rPwreV8i7dihR1sbCyQ6ax0a3X/E4k3HZbvwa269M6J1y324YoF/fbqt3XEe8bk2nags/U0+/UIoi5W9FOFa66Q23ky/+2Gal6ZrcPveWLU+XCnRmvW6fCNczAjn/PMBAzAAAzAAAzAAAzAAAzAAAzAAAzAAAzAAAzBwLTBw1QjX/rK/m9jGsnwcWre5MyanhNVzoy1xcOEl/0Cb22wNrqzczt33oLlZljAl8Uh/tX9+bULj1PHXTKQZ23e4U9SOBFMHxVx2b7vHBCSJO3kilafX0QWlWOSK7xedS3i4+OkXafFB9ZP74Y8+sTbI9bZEojJLvqLy4nsutEloqSKsqX0tYea5l3PFnG7zjeskIVmCsiwWTWhcf0eIBUlZ92kTw8zfP83vs8S4xmVYvus2h6pM6FlZm4pTCedlglRclp1HIlLt1HfJfsuKiR15lLRppdOnmF9u4VqW8epv37yiY0uIfOBgUIgCtdsF5ZiTVH9IGBZbEmNT9+NrqfZ5OXlrgnOfva/PZfNLectbhNiM6xGfe/zrxawzcT5Z1uJxi9soUVJW5Fp/1B8ShOONP3K7rs008rAQ59/T80bDrKPVDtVDbdW8vTw4/GcdG40w++O/jSV9P9j3zOiY9b08O2iDyuSx5y3UweSzL7W1Oa9t7rJ7/LFjtkZWGSOliTcQ5OXdcb1eD9q8oDHpuOfrRL0ezr98wniXxwq5Q+963fK8Co6s1wVjUNBvuePGM/lM0zf0DQzAAAzAAAzAAAzAAAzAAAzAAAzAAAzAAAz0DQN9IVzP/uunILfZsYjUcb57v70oL3PZ23pO6Vettxf9itssa7m8F7p5L/k9tqYEVeU1tGm71VGCl8TNc7v2mjtoudnOyzu+LktaCUi1b741USErQsVp/Twlcvm9pRxlWa4+P3vLgAl40x9+bJbXsnJUzG4JS0vKf3TMLJqvpHDtsXOr1LPl0vaArCMvtyzCs4Jk/fyUidfasNC1y/RGwywV1eaysZV1r8ZA9RrZsTvM/fJb1/2tmMhidHD1xkL34lkxsUp/9TJNivlYAFXdXMiNRbxYGPX6e16p8dAmDYUccNaV1+Ca9njLbvmr+ND1Wi0p0PmmmjIBOVunsrp7+ri92Xboc1m5Ej7lCSDOL3uuuljc+M//WZjO6tIM3ZDNQ5+zrMXjFo+PXJabFwuFghgdC6O797filysfiaF5sa9T5fbimtrasQZFa4B9b8iTxdadQfyoTVpbhzbvCCPbd7c2ThXVXaEyJOprs41EfuUZc5P3rNIsSrgu+XGm+aK1UfNEmzRMwF61fsENvazHczx75NUz7zrr9YbizQMl45TXr1xnxy0MwAAMwAAMwAAMwAAMwAAMwAAMwAAMwAAMwEC/M9AXwrUs7fRC3C3Zsp1m1nn7DofBdZstrmb2/lI/573knx+fMHFFFnTZF/JmDbZqwMQEL19CZF6cz0v//tkEJlk9FolpnpcfPW1KrJg99e1CnhWFc8uz0QgSPBV/Wa62tWnAy3JRQm7TJWjLXawJXosQI1xY7Afh2uN3x2KR1y8rXKsv5OZXQppc4Zq774yrX++v7NHdfVcRrlW+xkAW3ln39Nl88z6LCZWlzRouvqbSZsVETyNhXgzMfPxZiwG/18tjivlYAFXdfPzieRELo15/z0t94NfyjsorK0S6Bf35F18NssiXiFj78ps2S1kJeFViW3u5Xqeyunt6Hb292Xboc5lwHeeTd57HSDa9Ma44yy+80tYHni6bj8bN55iPz8TRp83dtbvD1/Vz9z7YJtRJ6FVM7vnzU6Xj5mWv9FFtzfKiOmjNVBvFS2xFrnNZWWsj1ez3P7bapc0yeZ4uZAmvOao+8vkec5PXZqVJCteNhq1ptjEnEVYgLz99/1146z3bTKD1JrYyV3s1VlqLJGjLc0dH27sQWlmv293t+5j063rt9ePIPzwwAAMwAAMwAAMwAAMwAAMwAAMwAAMwAAMwAAPLwUB/CNclL7VNLPlLUywpSbuYTsl9yZ9TllmDZaxcXVzXC/ysS167J0vrptW3C1cSPsxl8YmTudbmEhhkCTmyY09bGrnZlTAhsWBo452h1Oo7cmErC0CJ8RKOJHqN7jnwp3VxoxHkctrcJt+4xvKXC+Sh2+8yF+dyiSxX6S465fW3C22qXxVhzUUZpVe/VMk3JRpln9PLfsUdzsYe9vq5qJZ9ThsQFLtVIr7cfudtSPDnnAlZsct9cFEb9IyXP7R5u7mk93yqHm3stu+28XEhSyKXLPpbXgcOHLFzWXiKIbEU35PbffW3OOon8drnh7dLfdIr4Vp1kUW7+lb10FyW9at40jzRpgPxLe8LeeJjdkxT7XNRN48b5yV7X5/z5lfj0lyYevm1tjGPxz8+FyPioNDzRdPrhZjRvEiJ16qPC6aK7S7RdezAEes7b+PEseeCYsrH/SKh2uNrS6zWOqprcZp+O1dbq6xBXm/7Hrtlg7kL92uax2LJLM4zQrJCS2gN8rXd10gdZf0vgTgew/hc3xepOa9ytJ7buqxNM5kyvV6tY72+EMrgtm32PaHwGfp+k2cObWxqrYv1epDXDl9TbF2RJfbWnWHiyWetzVojxUAr78T3K+v1EbPIT42d922/rddF48k9/lGBARiAARiAARiAARiAARiAARiAARiAARiAARjoloG+F65T1lfdNrIsvYQAF1vK0qo+eoEsgTC2cnVrW4nIFiM5slKWa3HF2/a8XbhyEUoCj6y7s1bdSu9pYxHP86l0rNdD7evTLXHELKibFsQuhiVFt0bDLAcl2rrLdRMjbl5ngsXloZFWe1L18LxNILnr3lLBwkUZpfd+WWq+5vZ7+31h5O49Qedxfl6/POFaaWNxOLbWjvPRuTMRx84uaoPl3XSlXpYuW5Y+u6guV8rqL2dDPJrr69lLbW1VGVX5TpW30tc6mG80TMCLBVofP2/7Qr/MmIgb96nnFV/La4/yygqRirFsnh7ODLb1qWIwDw1ssU0KsszPiy+eKsvrlKq7BORYgGyd7z0UFE944vGn2+qhdsX9ki1Pwrr6KrW2eFoXlM0Dw/c/LsRaT4iKnr7oGLPmArT3vZfjQnacj9xoy/uAxH+5ERevVeKFx3ms9LnaleUlrw62sWXN7e1ifzM+vTYBjGy/L8iDRut5WWcfe7612UnXxUs839WfErfbrLqb46a0S5nzWksW3JpvNy8D8Xrv/MrVewdXze8bseQCueqsukw++/JCfXPYYr1e+AEbz6EWDzl9xn1+9MMADMAADMAADMAADMAADMAADMAADMAADMAADFxrDPS1cK2X57IGLotR7YMi0UPWXeamtIsXvVVf8itWbEq0dnFdrp917vXRsX6xFi79/GvbNX/x74JOnD577mljkSubJvVZsXndMlSWjCZwZPpEbsIlurmlYzYftaV26tsgy82Ln30RxvY9HKZePdnWluwz/tmFRYkWRcKap3dRRumL+sX7Q+kkjkj09zzioyz3VG6etbTXr0i4Vn4+tipv6vjrHWWZuH33noUY0/V6y5K6qA3K18tPpRNnqnvt2x86ypNorTpPPPmcWTGqXmVsqIyliFhxv67EuY+xt6sleD74UKs/vP/iDSF+Le5Tzyu+ltcGlZcVIiUUjz5wMCjWcPY5E1hXDZj1sUS8JVlcT8+E4W27ctn3tmV5VbuqzK9s3ePPcR+pnebmumRjSvx8fB6zJuvcwbWbWnz6OJrgmVmLtKFGa+uln342cV7nWsPivPvtXG3N8pKqowRpudDOWqibmP3Xjcl411qvs99jvkb6vEiV5deUpus5r5AdZ4csPMbIjt1h+t0P/7SojsZLmzkkSrsXAi/Tj/LmofHUWqU8Ru8/WOrRgfX6zx/X8RzyPuX4Z//QF/QFDMAADMAADMAADMAADMAADMAADMAADMAADFzbDPSvcF2vWzxQWaMNbborbYXYdIXsVomy2LP0XcbCTr7kl8V0FNtYFpYSps+/fKLNysytcquK65pQsVBUNsE8bRWxwvOSxbesvF34yXMh3XInu2tvsn8lHqk/J596vq3NXk7R0YU2CatVhDW1T2n1pxf3eXlLNFGdlC5rferPSHxRmXKT3GER2BRgvH5ZIdDziI8SR+W6Neu6WGMv17sSZ5wVz1dtsBjpjz2V7Fu5AJYFbdbCdmz/ERP71D6JXbF4rfJ0X+7aVZ73WRkbSxZCGg3bsCD3wBJxJTLF/bPc51nm4zjTXlbcz0XXPK8ipvx59WMsRKq/5cY5Fsc9rW9o0Jojbwua/5ovEu08Td7R6xSPm7VnYMsCs5FI6HloLos1bSDxazqqXVXmV/xM9lybIFR/ica6J0tnE5ej9S/7TN7nmDUJ+4NrNllMcLm21iaeqTfeTgr87lZcsa7Vj6pTXhkd11eYTy9fbY15sevx94bN0U/MKn/mo09aa4TSOT+pzU6ef/ZYdb7rOaXtSrhWDOs337G1TNwrhIXWGf9ujY/mVv4v602Qjq/r3Ncveem4cPKdSmPIet3+IzOeQ1kG+NzeV/QH/QEDMAADMAADMAADMAADMAADMAADMAADMAAD1x4D/SlcN12onv3Lenv5XlWYcUFIsT+7gTX7kl/CnNzZSlyQ8CkBdGjTdhNg4nzNIvzAEXOlnRK34rTxeaueBQKtp/e0scjl96oe81xIS/iVu+NsTG7P1+6v2xwuDw531Z963oVFCbBVxs9FmTLhWnVSGgnJKVfCF7/4ylwOm0v0hADobfP6VRGu1X8qVxbqreclIh961CwL/VrcbokP+mzufBNxXb18TxfnkTo3EfzIE2Hul99adfA+K2NjqUJI7ZtvTWS3fr9hdTj/4qutOqTqutRrWeY1zibCfXWqVa76Q+2SK2wvL9WnnleVflY/xkKkytXmDo2hl6Fjy6VxFCPYrGr/urHSWuB1isdN1trz50bbyonLzDtXu6rMr7znJYhLKI6tytVeeTOQ8Jz3XN71qeOvmfcBtUd1U+gEeRDQPCvaSKL8JJRqU0osoueVE19faT69bGvf+jsWXLH/8YetBaP7j1iIAbVf4r9iPMdzVs9KGFbogezGFM8371h1vut5pe1KuE6slWqDhR6Y+9PbgCzytYEijzm/P7z1niBX8Xlt8eus150/KsXVUsdOzGnTjc8nuZ3X95j3O8fOfqdP6BMYgAEYgAEYgAEYgAEYgAEYgAEYgAEYgAEY6A8G+k+4rtdN+JALa1mpje19KPcleRYiF4T04jd7r+hz/JK/5ab59HcmRMhlqlxu6yV+nIeJmU8+FySuy+Iyvld23k09PW0scpXlX+W+WZNu3WmutN1aOPucxCa5L65Ptwt32XSpzy4iLqdwLcs8Wf0qT4ltblHu5Ssm6/mXTnSMld+Pj16/KsJ1/FzZuedbxmDVdEXlVRWyliqEmEvsv6xf2DBQYhFfVN+q99Q3tklAFr+NRhh76DETABWrvfbPr4ut6Ae2hPHHjrXmo8+fsvFQ3dSfLlxrvo8+cKgtxrDSiMHhO+5OuqBvxbmXx4dMTOy47V6n5ZjTaleeiBiXmXc+deJkOHvLQIdIrbVXni5s805C1MzLz6+r/2SNLlf9GkMXay1WfI7FvlvWn7vvwa5EtpXm09uovndeJJ5rHMSHxFitmxfeeq+D1VZ8+r9u7GDL8807Vp3vel5plyp+puohrofWbc71iuHu4OVRIu97xfNlvU7/CFzqeq1NPdowIYt3/U7RmGkjinnqWMRc9vHimB4v+oV+gQEYgAEYgAEYgAEYgAEYgAEYgAEYgAEYgIHlZaCvhGuJHeNHngjD2+5pxfeUsFhVmHFBqIpIFYPkL/mnXnnD3IFLgJJIduFv7yZjfOplsKzpJFqbe9TDR7tyn9xNPT3tcohccZtlIa7NAXlWlS5AFMWRjvPLnrswu1zCtaxcz923b0E8vXFNkOCWLbObz14/hOvyBcVE3P1HWi7aNS+66eulpHWhzOKLN8MHSJSpnfquQxhTPbNWyz5/qqwJmmMuRE6/80G7i3C5ff77p+ahICVIWhubniJk5Vg0X11oLUpTtc/UrqrrYzZP3wgydvCRjhjeWuMkOpvQPHWh6/FWv8uiOI6D7DGdZYUtca2tPlHfKX5yN5uBesWn+l4i7tSrJ8PQwFYTolXvmY8/SwrvEu9lrSxBefzw0TBx9Jnk90tbv0RCo3jRelqFG6W5EsK12jxYEIqjta4+/Hj7+EbtyGtf0fVWvlGc+6L0Ve95vmXrQ9V0ReVWHT/VZSljZ6FBmhtGvD5ac+QNoGwzgafnWP69SB/RRzAAAzAAAzAAAzAAAzAAAzAAAzAAAzAAAzBwZRjoG+FaLkn1Uj8rCq2UcC1BQIKTrKuLXu66gGqizBdf2ct5uaWWFabErqJnHeJuxDRPW0Ws8PzLjhKNJB5JmJJAlUova2ZZN2fjOqfS6ppi1Orlvv/JYlaijvrV3OX+dqZ1z0QrxYKNxAx/qa/0EnQ8H4ldsqCVyG5jdMNq2yyQV+84z6JzFyKWW7h2q9GrSgiRZXNmPFJ9JytciVaXfv61bexSaZflWqNhLLQJnS5w3rQ2yDJX60ZRWT5/ysbDQgKcOGliq+JUXx4aac1lX5vkGl7cFJUnLrWG5Lnf17PO+nLMabXL+mdisrBe2Tq3WUDnCNMeh1kuh7uJay530Qq1MLrnQPv60miEyWdfsnk8deLNtvqatfotG2z913NyF665n6130eeV5lN9rzWpitDulvryFOFhDCQw2iaML7+p1M5uuFHapYifqX6+9O+fbX5oDPO+57Tua63Ojm8qv26usV5HPwBL1muE66ivot8Y3fBGWvoQBmAABmAABmAABmAABmAABmAABmAABmAABnrHQF8I13rJPvHkc23xah2KlRCuZT0tAaLMurD25TdmkS3BLCvkmDXh6o1JF8LeFj9WFtP++CN42uUQuVS+hDVZiQ9u2FroBtjLrSpAuKji4nLR0a1avT90rPT8jWvC5NMvtIthi3wxfaWEEO+3MqHUyy9LF/dR9tz7rIwNlZEnYokHzb1zUbzmbDn6LKvWc7v2lm7sSD272GuyqtYGEQmSbXk0La8tfuua20Pt2x/a70dMVBkP23hy565w/uUTFpdXFsgeHkBCnOI21yfP55bRVreo7LzrPm6Kn625uJS/oc07WlbieeVlr2ssJSxL8C5zBd6ykl5/R9D6l80r9VnWnRJoFXYhe98s6Nff0ea2WBbKg6tvD1NvvG2CqAvmEq9ji+1sXvHnleazMTcXzt37oH1vaPxyN9I0GrahSe3TJiC5Co/rbYL9qvWV1jXnpmy+K3+lyZvzcflVz6tsdFgo9xMT8quOW+XyR8eM8+XeaFRlfVAdr6b1WmOl3yjyjCEuNefklQFX4b37oV2Vc9IxRjAAAzAAAzAAAzAAAzAAAzAAAzAAAzAAAzDwR+gL4VoWenmDoRfVEq9kHVwm8Ohl7Zmb1ubG38wrQyK0RDm9xE6l0UtriVkSYxS/NM/azESIm9dZ2qI2VX1Zrrp42pRYYdbfu/a2uzQuEM48vqoEq5SoFLddrpnlCj3PlXicVucuqhQJ1n6vG+H67Kr1YWjT9nD+hVeWVTz0fu2VEFLVMjvbz/Fn73MJEpPPvJg7PyRual5ofmTnkOIQSwDW2Ohcokdchp03rZzNpXSOhX7HMwUcVkkrMVmcupiZfUaCjNYE1VvHvDlZ++Ir4zi1QUBi5+SzC6K+uSKXJaPqXa+Hqdf/Zh4DJo4+HeZ+P1PJIr2jjrOXFpj1fJt94uOWmtPZPMo+q12p+ZT3nHuMkNt9neeli69LhJSILE7EgNbD+H58LtFZsbG1FsbXW+cScj/8eIGzRsPi8A6u2bSwOSHqJ4nZEl5lzawx0li18siy1QM+VRcxqjlj1vnZOun+z7/a94qsqt3KuqMNkQcBrXEd96N8u+FGafOEa639EjKLNnzE9dD3o6zuR+7eU8xMMx794NpNhTHe47yrnrNeL2xwqbRe//GHeXzQmPnmHtuAVsGrRtXxIB3/QMEADMAADMAADMAADMAADMAADMAADMAADMAADFwpBvpCuC5q3EpYXFv5eqkbCSe6JkFCMbclnEoczLWqa4oLEqtHHzhoLrblajuvXf4SXqJTvVYrFB1djE9ZZ0pIl3AncVcxq/PKU7skuEsIlNvtrAg099vvC6Lm3kMm2Cl+tMQw5V/UjtzyIrGlX9P4GKyUcK1xHn/0WEs4dgEiJahW7bNYyFJM8pQL9qp55aaTuPjWe1b3rLVo7jNLHH8TrSV+vvthx5yMy5QAJ9fl8pRQv1izOM0SaCQUDg1sMYY1NzRHUvNj6uXXTNDPCw8gF+Fj+4+YeKo8BldvXJgXmhs5f6pPayPA9vuC3I5n15V43OL2LOZc/Milf+k81Rrw+T9tTmfDMVQpt/bNt7aBSP2g9imsw8VP/2EhAvx52xhz4Eiyrz2NH5VWrtctjMAvvyXXLo2Zj582L2lzxnzWJXoP+PQ26NixQanRMJFa64raZhudSgRDbRZRWuc4zj8+j7nRXB9/7KnWetKxIWXHnuRmFfEsYdl4LvFWoA0cYkVzyWPMx/WpfX06jOzYbXWQda+Ed4nlWtuy3zHxc4s5Z73mR/BiuOEZuIEBGIABGIABGIABGIABGIABGIABGIABGICBq4+B/hauG40wuveQWYdJmCsDzF9uL0UMVBkSaSRATxx7Lig2aVZ4KqqHhKrzL77aKWhEYl62nvMXphesGEsEjqJy8+6Z1d99D5oAVxgPuClSSHhwcaqqm/C8svv5+uz3PwZtBrj42RelXHXTjuzYtj3baJiQqXjoJhwtIo5vnF8sZMXXr+ZzCX3yfjCXI2Zm2yaxbPLY8x1jaOL35u3Wz9qAkYw5LTH3H1+GsrVF8dsl0kpo1SYWidYSUl2gtvkiQTf664jvHM3/i59+ESRsXh4c7qh3tn1ln9Wusg0F6gsJzROPP5UMx1BWht/XmAw1+1RxjGMhWZt6Jh5/ekGojdrqz7aOzU00w1t2mihaFltdPKivJc5r81BZW1vlFNXhCt2Tlbm+N8zlfMHGpVQd1c6pk28X8pCd73Jfb5tVMhuuUvl3da3RCHLTL6tshdHQ91Pe8y2vBTevM/610WC53YSrbNbrq+/HZR4zXGcsYQAGYAAGYAAGYAAGYAAGYAAGYAAGYAAGYAAGihjoa+FagtLY4aMLsVUrvJyXyCwXs2WW0UUdshL3FDdXLoiLBIGl1kMik0R/iejdxOc14fCeByr3+VLrea09vzC2zxQKbBoPiaC57oMrCmsSiCTaXkmOVnJ8tInAXEwv0waOSz/9bLG7q4rgK9nWlShLsW0lPMoadrkEXwmVcqPeERu7XjfvEUXtklW84qlbfYpcf2f4l0vzqm7Ni8q/2u9pvnvs9SvVFoWG0CaHbpkRE6P3H1zymnal2pWXL+s1P5Dz2OA6bMAADMAADMAADMAADMAADMAADMAADMAADMBAbxjoa+EaKHoDBf1Ov8MADMAADMAADMAADMAADMAADMAADMAADMAADMAADMAADMAADMAADKwkAwjXGeu+lex8ymKywwAMwAAMwAAMwAAMwAAMwAAMwAAMwAAMwAAMwAAMwAAMwAAMwAAMwMAfAeEa4To3fikThEUSBmAABmAABmAABmAABmAABmAABmAABmAABmAABmAABmAABmAABmBgJRhAuEa4RriGARiAARiAARiAARiAARiAARiAARiAARiAARiAARiAARiAARiAARiAgZ4ygHANgD0FcCV2Z1AGu4BgAAZgAAZgAAZgAAZgAAZgAAZgAAZgAAZgAAZgAN0hcH4AACAASURBVAZgAAZgAAZgoL8ZQLhGuEa4hgEYgAEYgAEYgAEYgAEYgAEYgAEYgAEYgAEYgAEYgAEYgAEYgAEYgIGeMoBwDYA9BZCdLf29s4XxYXxgAAZgAAZgAAZgAAZgAAZgAAZgAAZgAAZgAAZgAAZgAAZgAAZWggGEa4RrhGsYgAEYgAEYgAEYgAEYgAEYgAEYgAEYgAEYgAEYgAEYgAEYgAEYgAEY6CkDCNcA2FMAV2J3BmWwCwgGYAAGYAAGYAAGYAAGYAAGYAAGYAAGYAAGYAAGYAAGYAAGYAAG+psBhGuEa4RrGIABGIABGIABGIABGIABGIABGIABGIABGIABGIABGIABGIABGIABGOgpAwjXANhTAK/FnS2z//opjNy9J8x89GlozF1u69/G5cvh8si5tmsr1QcTR58JF95+v6NOK1U+5VyZXUyN2Uth4olnw6X//CWXK3E3euBIuPDWe+GPej033XKOUX1mJow9+NCyMDfzyT/C+CNPhvkL04V1v/jFV8vWxqnjr4Wpl19bsf5S38+dGQxjhx4Nl4dHCtu51HHSGjW650Confou/NFodJRVv1gL448ey72/1PL1vOowtu9wuPTzrx3lL0f+5JFeb7RO5I17qs/GHnosjB8+GuZ+O9PTcap9820YfeBQmJ+60NN6pPqIa2nW6Bf6BQZgAAZgAAZgAAZgAAZgAAZgAAZgAAZgYDEMIFxfZ8K1BKzFgKJn5sfGw+DAlnDmhtVh5K57g4SpxeZ1tT9X+/KbMHr/wTD74787hJ/50bEwtP4O66va6e/b+qj21akw+NeNYeqNtzueW3Sf1Ovh/AuvhAsn3ynMUyKiyq6d/q6tTqlyJVyNbN9tY622qE2pdCt1bSncrlQdl6uc+uxsGH/smP1lNz6kypDYObh2Uzh7y0CQuFOUZmjz9jD3y2/JNKnnlnLN66U1o0hUr1LG5DMvGotj+w+HxqW53PpPPP70wvq0Y0+pyF1UrjYDnLvngYUy9z5UWGZRPt3e08aSMzeuCUMDW03E7vb5qulba9Sa28PsqU5mtLZrjddarw0Djfl5E5jFZtUyytJpLTz7l/VhcM2mcPHTfyxbvmXlXg33L372RZg68WbhpgmtDfMTk133m/e7+J4/P1X6vH1vDGwJl88Olaat2rfz4xNh/LGnbDONNtSU/u3eH86uWr8wt3fej3h9nf1urcoV6fhHGAZgAAZgAAZgAAZgAAZgAAZgAAZgAAauDQYQrq+TF4Cyahvb+1CQ8LPYyetiB8L1wuS/+Pk/w+DqjeHcfQ+2WUh6P00+93JbX5sYtGOPCVPn7ttXKiBWfbk/svN+y/PszesKBXEJEFU3HMTCVS+F6+XgdrG8V32u6jiVijNNAWdo450m0Gieje49FOozF9s4ytZr5qNPwpmb1pplc/aef546/no4u2ogSLTya8t5rH19uoPnKvWqUgezFt+93zZSFFlbtpi9aW2YfueDJbUzFt27Fez07IU33+nas4FEYc3lss0llweHwsTjTy1JvMtbo1rj0WgYe8Nb72mJm7berdkUpl7/W1gOAVseKcT4+RdfXdJYtep8LX2XNxrh/PPH7btlfnQ82T8mQK8aCLKILvNEEPdR7bsfwtC6zSG7qSpOE58nvzcaDdsopQ1Ti/XgMH9utINh3zAydNs22ygX14Pza+OfDsaRcYQBGIABGIABGIABGIABGIABGIABGIABGChjAOH6WnrZndOWlqBzw2pz3VsGRd59LK47F5Tp9z4KEoyHNt0V6pPnTWDIE4WmTpwMZ2/dECTopdzzpvpdY6eX+bonAUF/nk4CxNlblN+nrWt+z1wB794fZj7+rCUsJAWIPGb6wOJ6ubj1PrmSRwmqeaKqxicl/nczHrl1bzTM3XKR0KN6DW/dGcYOHAl5luu1U9/murA3l84PPZZrFakNMeJwUNa78kDQZGrs4cdDUb08XdlRrvWH77g7zH7/Yyvv1DOy6h5cfXs4t2vvkoVVWbvK8llzNlVW27VGI0iEk6Ari3Y9pz8Jj1XnufKTtbw2F4iV0f35VqjqUwm+w3fuCnmiZlv9EnM8b42Kn+vgsymmqm0aj6WGPLjwt3etn2Y++by0j2Vd3JjLt7SP632tnGveyuuFeJj9oZN9bYwSBxNHn+6KdxOu198RdPS+mvvtdxPAU5trZP2vv7Z7soC+eZ2N3+SzL7W+Yzy/oqM2QMijRMqbRH16Jgxv2xWym76K8uNe5+8S+oQ+gQEYgAEYgAEYgAEYgAEYgAEYgAEYgAEYuJoZQLhOvNS/mgc0VferSQBM1b+fr+nlu2LFyh2yhH3VNSUKSXSTJW2eK+cqbZSQpD9PWyRc+z3F6XXxrEOI6nP2rxVur6RwLfFwaGBLmHjyuRYXzocf5YZZLpkl6LaJT00L75bwvGFrkDWvP9c6SpiVS+Gc2NjOu1xKexq5MBbvRfVq5Z/gUCK0uxeX0DV57PkWx+JZG0ayLs8lNktMU/qivMvuueVznuguQVHu9iVMS1h0F8byvjC0aXsY23/E7mnc8zYzZOsQryNFgrDqpnG0DSvRppRsfvFncyediWPtY1YkEKbWCy/fBNMC5uLy885V9uCtt1ms67w0ui6PA/I8MLL9vlCv4Nq6KK9+v2fifDRW+t6QBf5gZm762ijLaVn4d9OulHCt51MW0F6OXPVXLWPu9zMWEzu11oy6y+8b1yy4oJ9rD10iLrUho9s2Va0b6fiHDQZgAAZgAAZgAAZgAAZgAAZgAAZgAAZgAAb6nwGE64Rocq2B6y+fJTbEwue11s5etUdWptPvfth6sZ8VhSReje073Gk1p9jUzx8PYwcfSVqfZdujsYvHz8XplMV16l5KiMqW0U+fr0ZuJbhkLQm7Ea7NDfSx50rdg/s4KSayrIwv/fRziz+/p6P3oURl/XUIqW5Fe9PaMHH0mcrlxmVkedc9dyudVy8J3LJmztvIoeclQisOr9xVyx1/SwhrWnvGsbNdbJarbZ3H9bN+OD8VJp58tpLw6ZbPcq+uZy/9++cgwU0W5JqrY4ceNetqWQxL3Fasexfss+VW/Wz99deN5jY7zxpVeckFutzCa6x8Q0pZGaqnxj7ul9SYZfPJWy+8fxRPPPuMYmGLydZYFcQvlhWvLMwlShell7cAfXfp71oXryXmi6npDz9eYKrRsLHObhTwMZCb8Koc+FjlCdd+Pz76BpSiDQ5xej+PRfAi1uQxQPf9OdXNuIrEe93Tmnr+pRPLGmfby+TY//+oMEaMEQzAAAzAAAzAAAzAAAzAAAzAAAzAAAxcXwwgXCNct14aM/nzJ7+EAolWRQJL697eQwsufzfvsPQjO/ZYbOnW/aaY47Gp5XpXwlJW8MyOR5FwrWdVP3dPjHCdP5bZfl3OzxojuczW0cdb458S6CTcWdp9h1tpXaQbfeBgqWtki/38wMFgaS9fNot/nZu77qbwI9Fy5O49JmBPf/DxQjxhF4UkWr/wigmhzs1i+iIlTEnkzbbN+0NHZ1/WpLOnvu1Yg1L8et28vLHDR1tirAt5iuEel+Pn7l5bYyEx3/PqOMr1+kOPVXJx7psCNNYd+XTxvaIQAxp3HwONSWozizY1yPLWXIRPXahcptdT4rtvXPA+LBIk1S71Z7a/xJ3czqvPU+2WQH55eKRwPZMFv9yNi1cJ3Uu1kk/V42q8Nv3+3xfmo+J+Nz0cONu+kUJCtRi1mPU5Y1DU9li41vfG5FPPtzZVKVa2Weg3+XVO4jjkembm489bc6+oLN3zPFKsaVOPPBaITV8XtF75vPVja71Yu6nliaGsXO735juQfqffYQAGYAAGYAAGYAAGYAAGYAAGYAAGYAAGlspA3wnXeul94eQ7Yej2uxZiKN6w2o7D2+5pi9ebarhejMoySVZ6igtc+/q0CQIec1QudeU6ObY8S+Vj1+p1e155uStY5SP3t1OvvFGah17Iqi4tF9L1utXfhCnFQFW7Vq23uiqGbEc96nUToCTOSKyweJKyOlMd5Br46NNtlkrx8y5UqIyqf6mXysrTXzpn80kJGnEdsufLMa5epkQRxYD1cbEX3/uPmFiSLTfv8++/nwn/5//+v/A//tf/DoePPBbm5+c7xyAWnxoNyz8r4sT5y32whDi9ZJdoN37kiVZ86jhdlXO1UWK2v7jXMRtrVFaosr6UGOeCp/iQAFb7tjP+dZ4Q5fXJ4yYVn9mfiY/x88ZToxFqX37z5xy8YXWQa9u8ORg/n+Ut73Met3G9VvI81cfdWFybkHPLQKid/r6YR1kC//Sz8aa4ynKr7XNVFqxyr3z57JCtL+7+2zY37H3IrHbN4vn46+ZCvNsYtdn+9HJ9LOQyX3W6+I8vO9qge1oTPW02L/9cRbhWX1n6ppBXJOiqPLlLN0vWeF5nzud+OxMG120urZ/KdV6XJFw3LWrlrt2/l3wTSjwuEpzlllzri9YZ76eqR4nDWhu0jij/7Jil8kmx7OmUh9XXN0Fk+tHT5R3Nff3N60y0lnA/tv9wmB+f6LpdeflfrdcX5v+GtvjTEqpl9e98yKuD1lGFqNA4lLU167pb3xv22+O+By2etP2maMbR1rzTd1crrEBzE5a+Y/y7yEVk/Taq12ql5Rexpvjmchevcova4XlMvfF2YbqiPLjHP0wwAAMwAAMwAAMwAAMwAAMwAAMwAAMwAAMwcHUw0FfCtWJ7ygorT6TS9dhqLAuZxAmlkcA59cZbf4q9GQFXAoBbnmXz0GfdUzlF9ZCA7YJQKg+9gNbzEv2UThZ0ekGcyjMl4nhbUun9ml4+m4vqjHjggoqnq3JM1cH6YnTM2pDNw0XkVNuz15ZrXMXGxc++sBfr2froczYOaLYe/lki9V3bd4b/8l//p/39t//+H+G99z9Y0gtxt4bUS/1LP/9qfSbhefLpF1rWlBISu3HrGrtb1UYMCQWxSFYk7qXuFQlR6ps8bhYjXE88/tSCNW8O8y6g+ZgUlZ8aa7+Wx22c70qep/pYa0GqD/PSKn5xmZDjVpfqB1uLhkdaYqTKk6Al9iTExu0Xp0Ob7rJ1VkKuWXFm1o84fZVzF5V8LEwkvWltuPDWe21lKy9Pq3jURXmn+PX0nofaqWtKq/6tncoXdFW3Kv2qmNzqU601HmPby80efb7EczKbpuyzYnVrXme/j0yo3rE7SLzW3Nd8kWi9WMtk20xw27aWla73oY9Zqp4pPj2d+kbrrazDu1nT9LzYlOiqPpZorWszH31iVsRVhFivw7V4FNNlnGrOdhvLPf4uac2XhFhcNO+8vz2NrMP9WtGxiLWiusR5eh4+5+N7nF8d/2wwTowTDMAADMAADMAADMAADMAADMAADMAADMBAVQb6RriWNZGsfEyQunGNncsSWS8sa1+dahO0zY3q5U5LI72Et+dvWmuWqLLs08tV5aG8LP+mkJaXh4kRO/a06iFLOK/H3K+/h8lnXrQXyyqnSADXC1alUfxZCZgSrU14/fQfVh+JuRJ48qwPTWi5eZ25+ZW7XwlOakf8nPK3l9xZwabRMEFA6fUn8cotck34b173+zqq3Ulo6nWzhPO0LuhXFa6Xc1zVVglUEupkOak62bje88DCeN2wOkh4SrYjsgis1Wph1a1rWsK1BOxnn3uh9Lm8fM1Kc8PW1qYK1Uv1dFFIfTD1+t/Mskzik9gzUawLwdBd68ZxZV1ASL3MT90rEqKsbRluFEdXjKVE11RfuJDnz8iSzlxXN+ex5qLyMm5XDXS6Gs6UvyRuo/FO1fVKXUv1scYn1Yd5acuEK9VdFphaO7QG+Vx07lSeLPa1VmTbKRbH9j1sYyDxsIrFZDaP7GcvV7z7fB9/9FiYeOLZjvJTXGbz0+eidF6e2imhc2z/kZab7VReumbracmGALdkFZ/q27nffu+of5y/865xjK9XPZfl9OgDh3Ljbtsmg9u2hcG1m5YkWnt95L5dHhokfnsf6vtM30NuTRsfU67sdV/9rTrZPL55XZD47mVUOap8bZrQ95qnt3E8+EilkAn+zLVw1G+beDOCmC6a/7JK1/effstorqkPzLV3F98lmltaj3TM9qHPu9jCOmZC5+7pQ3XNPp/63GLtuZc70qfqou/GONyBtbH5nVq1zFQ9uMY/RjAAAzAAAzAAAzAAAzAAAzAAAzAAAzAAAzBwdTDQN8K1XIfqpbpehuvlaNbyyizQtu/OF72a4oSed+HBLFwjActeju87XJjH1ImTJjLLoinvhbws+/RyWWK0XvqnYNcLVquLhPKb1gaJgNk26Tm9fJYgns1DL24VbzJ73T+rbRJXVMbYvsOFVm8usFjaRYosXq5EGuXjYplfzzsu+7hu2Nph6W4xYpuW+tocIJE3rz66vpwW14o/arF8Dz7yp5CQEa69LhprufF2F+dVrDr9Wb3glxAsy8T4mjhMvcx3ASK+lxJKPa/UUWKfxjoluqbSx5zpudQ8llCj2Ky6H4vwZfktVhxM5Xslr6X6WGOQ6sO8tEXCldW90Qjjh4/amjL57MutuegCUTzmcVvnfvnNXHgPb73H1jbVSWuIYl+n1qa2Z88M5qbxcsWLRDht9pHoai7Lp9s3xMg18NlbN5S6Qk/x6/Xx8tROK++hx3Lr5s+UCtdNl90S5bTJp8r65rwvhk2NxdTLxWErtMZrjdBcObfz/q5CIXi746PWDo937n2oftG61BGTutGw8VM/aM3SBqE4r8WeiwtZaqdijbuVub7P5Op+sWVcTc9pM088X3VeNP/1++SsQgl8darVP9PvfGDhS6pavqfEYu+zonnXTRpPq2PMWnxd56m66Jq+60Z27G7F2/Y84r7K5sXnq+OfDsaJcYIBGIABGIABGIABGIABGIABGIABGIABGChjoD+Ea8UobQrKskhV7NZUxU30+sv6BdErYVnrQpte9JsL3Ei09vz8xWxKONOLc7dMHpN4nrDqVj667pbHcvMqV66evx/1glVl6E/ig7tE9fvLcTQLOuW/bVeoZwSiOH8XWFSXxYgscV56XvlUEXbMnfEyj2tspRfXS5aDqpcs3Mtc/Oq5rmNcZ1iS2CPRUC/YZU2tmMFeH4k8ui4e/Vp8lEgkS1nVV7FKZekZ30+di+eh27YFufz1+85y6mW+CWPHX2u9+NczKaHU80odfT6lRNdU+pgzWWSm2iVOxavanjd3PO84v6Vy63le6aPqaRsZ9h1uWbFKpJNYLyE3tl5MWbRa2hLLYG2cOXffPnMvrTHyuZgn7viGCYnU5r67yer86PiC9eSNa2wzhdY0sSxvBvXM5o9Wux58qK0N1p5mHFx5O1Bcd4mTGmeJwNm5eP7FV81aN8VGPDZFbHs7FQ5Clt1atxVCYObjz3I38Kif8phUubPf/xiGt91j3z3qT+/TuE7Zc+dz2dms122czDvDgwseP7TZQBteJo89v/jvknq9JfB7H+atUd42Mav1Jd4wk+2Hqp/F1Mj2+8zNtTY3pLxOuLAtVi9+8VXueFYts9/TafNOvH7rPE+4vjw0YqJ/9reJ5rfN3eOvV+ovzS2t6Tpm+6do3nnaKmk8rY5FrKXq4vnH8aw9j7iv4jI4558dGIABGIABGIABGIABGIABGIABGIABGIABGLh2GOgL4VquLuX+skzMKkvnQptZJJ3+vuOlrMB1l8upsmqnvzdrJt0ri9/oZekFeywm+uTQC1blo788ccDTVjlKHNfL2/ivqitnFyFUl6WKLHpe+VQRdsrGy9tdls77Ou+FvvLx/i5K4+Ut6dhomKAiEVmbLSRCZ/OTtbwEvSIrRVkUShSqUl93D5vlyF/wV32Zr7GrMm7eHu/3xQjXReVUZWg5ufU2Xemj9fH23aF+sdbiQsKShGZZruq8qA4aSwmomuepdHrexWHd1xh5X2fFHVlRyyOENuNIkI7LbsVWPj9lsaFtw86Na8wCe/aHHzsEMLUrjwOtf7IAn3rljT8FzqbFbttGk+a1Kl4Ritj2dk6/+0Fr05B509h/JNfVdFH91S8S/iTOOnPep6kx8GueVnn7NT9KpJU757LvEU/vR60nEvxllSxL2sb8vOWtOra8Ndy4JozsvD/Im0Vq05TnVXSUG3ltmsmuKf6Mr8kSSfW9qFjbfm8xR7celwCvc4nW+s4Xd9nNDQoR4L8HhjZvt7W9zCPAYurU62c0phrHeP3WefI7oekRQJtiFCYgW3dzv37LhlwvMXH6lFjs933e9dJVuNch7hef8/E1rzPHa+cfEsaSsYQBGIABGIABGIABGIABGIABGIABGIABGBADfSFc+0v0MmFVL+llpal0erGtl+sxyJWEtqZ4kspDIoOud/OXJ+boBavl04wpGtez6rlEjNH9R8y1blGd8urg5bjAojxSIounq3LU88qnirCzkuPq/Z186Z+xlq7Szo40jYYJfBIaFLNc1m8dabQxYnwiyKq0ioW9hAuL1T11IZmX5d9omGiUiqeeesHvdZJXgNo/vzYLUr30n/v9jFk6Vxk3z6PSfIr6tipnVRmqmp/Xtx+OEuGybo7lQULWs1qzZAlfWE9ZQzfj1Zr4nYldK3G19u2flpIp4VrrmATrsYceC7WvT7d5A1De0+9+aNa7ctktTwVeHwnQYsU/x0eNWdk6Y+txVN+pE2+aIOyeK1piaEloA5XrbCcFtKaFd1bE8n5WDHkv09tQVH+J6xKF1TfOnM8ThQJQfrGlvJ9r44qERFnO+zU/amOL1klZSVcRr7VeaLwG12222M8SajU2yqf25TetMdH4jB161KyW7TvhxjUmQGsTjDYnqE9sM03kAcL7wI9maX/PA5ZHnnAti3hZqGst07li1atvPI/KR7ceX7OpY+OGW1enwnIoTIb6Q+E4vB/dI4DNoYizynWJ1qp+eEaMW/iHTz5v9avGL/Ud5uFJbANBou0ugmudkfeAovapXM1lHbPpfN5l51acrkqaOL2LzinWUnVJ5e95FNUrLpNz/sGBARiAARiAARiAARiAARiAARiAARiAARiAgauXgb4Qrv1FpV5Qp15uxoC56JUSUfSs8kjdq5KHP2+CQEUBO68svWC1F+4lbn/jesXncnurF9hV6pJXB8/PxRjlpf7z64s5ev+7sFOUx0qO61L7u6gdjbk5c90r8SB2CZ56xttsgtW7H5T3tUSIApFJlrFDm+7qiOutslWWCR8ffdqZR6Nhlo0Sv5TGOZI751S9U9d8PpTx5c9W5awqQ1Xz8/L78tiMRy1BqXb6u8p9r/kvt/fmLjchVHlbNUY+F8vEHRNDn37BBEttvpDY5fmUHTVmVTnwvIzPgS2t0A8e6qHNCjtHTPR5lBKq8trpIRzU19lwE3n1l/XqxNGnWy60nTnvU81NbUZJWTZ7WuXtbe72qA0wEqJlWZyNNa58zcL2P3/pyF9Ct8R2WU373NZRrrg7NitEfayNFdr8pbHQeIqfVJ3NgvfmdUExyVtu33NCeKSeF2tqjyyqJ59+IUiITqXTnNB4nbv3waB1NptG9dXmBROwb1xjG7muBeFac08W+VmRWrxnr1kIkzt3lYYc0byy7/iHH+/ox7hfNbc09jrG13VeNO88bZU0nlZHn68p1lJ1EXtnblrbZonueaTWg7gszq/ef0YYO8YOBmAABmAABmAABmAABmAABmAABmAABmDAGUC4jiwMXaiTq/GLn37R5pZbL06Tf+MTnaLhEl1Xy8LNBQm9xFYs5flzoy1LTB88r2+ZoOQCi73UXoLIonIlpphActe9pRZ4/oJb6VMvrb0dcb6ptlRp55UUruN6lp27OCdrQbeczX2m0QjnX3gljNy9x+L0ZtPNnvo2jO45EGQhmb2nzxKDxKTaLoHLXFHPXOxIuxBbdre5Ns9aA6fy9WtV+t3T6liVs6oMVc0vrsNKn8uSXW6y3dI2e1QsX81hcS3vCdn7yc+797csamWNWiRea4xcZC0Sd8wF9a69Jn7FrpnFhixZy0R1jVlqbhb1t4dl8M0SiudbNQa9rx0poaqonbLyzgp/qmNe/eXWP3ZD7cx5nxa1z9Mq76J02XsSweVpYWTHbnP7nhJiZW0vLwt5ceAlfOo7ql6rmRW/+lZuvVWnbHn2udEwV+iyDtdYex/mrcvZWORjDz9euoarHPWnXNmLa8Udj/s2rpe404YArZFTr560v/h+9lwC/8zfPy1fUyORPptHP33Wui8xfmhgS5BnEq+beG/jt+ki3K5p41SmfRp/3/ik0BTapCQOsunizx1icb1u7trlycHnXdLTwYGF9Uuu7LPCcpx/9ryDteamKrn6lzcBrSsq159b6IMBc1Hv1zyPKt4L/BmO/KMDAzAAAzAAAzAAAzAAAzAAAzAAAzAAAzAAA1cnA30hXC/GpXQqTmpLaFu3ue1lcBucFVyFn/3LerNIa3su88K47J5evkqwbXsJXTEPiS/27KqBwnpIrFC6MkHJBRal7VZkybZTzyufKsLOso/r+jtMcMnWSZ+X0t+p/OJrEv1koZoUGZsv8/2eWQeqf3bsKU1vbu+brnDl6jcWleXme+r465WsYr3tU8dfSws79XqugBS3M3vemk8F/R4/U5WzqgxVzS+uQy/OtakkJRhKtDN30hKnzg61hJm4jrL41aYDbVDIE/ni9NnzUuG66arZLHrlASCy7teGiOE7dy2sIRvvDJcHh5N1VJkas7J1Jls3fZZoLffXsgKW22u5nM668U495wKa2M7edxErdU8bCeSlILtpRPUfHNgS5A49m1/82Zmrsr55WuUd51F0rk1J2ohkmwfqdXPrnVxbmu7Q5W3B15b4qJAFEj5Vz2zIjGz5Wldk1T24emPQZhjd9z5MCdduuR73gVzUKz61rH+z+cefjeGIsfje1ImTQWuURHflM3r/QZsf5tq84ndjnN/VfK5+0HyQRXvcDjEd/2YQy/o94q7s47Q6l+ivsdS5+nXsPbN+ZwAAIABJREFU8NFgMeoL+tOEa8U3f/blMPrAIWPo4hdf2dpQNO+87CppPK2Ozpo2P8i7wdCm7dYebbyyumSEa/3+kQAvId7z8TxSvHoajlfnPyGMG+MGAzAAAzAAAzAAAzAAAzAAAzAAAzAAAzCQZaAvhGuPfSpBNM/CTBUvS+dCmyyma6e/b730jBvtVoCpsvSMntU9iYbxc92eu5gYv4SumocsplSHlDjvebi4oHRlgpILLErbjcjiZcVHPa98YlEjvh+fl42Xpy1L5+Na1M5u+/v338+E//N//1/4H//rf4fDRx4L8/PzheMtcbJMtJFYJktrWctLoNIL+DJLVu+DpRy97Tpm8zGBaM8Bi9PbrTBapd/j8qpyVpWhqvnFdYjP1V5ZNsoVsUQ+uS2WRWic5kqem+h0y4YFITUhJGkOK36y6lcWlzavnhojn4su7hgH9XqQy11ZfMvteCxYKy+tdZpPcmkvUayMDY1Z0fzLq5/HnZaltaw0L376j0r9XySOtbUz0a/ZusjCWd8r3k/Z+/FnZ66btEtdU1Nri3luWDVgVtJx/fzcPTvIatWvpY7mintgi1nwm6Df7C/vQ/GTfU5rl+Jbx/fs2sCWSvG64/xUvm/acFfWstiVpbDWJlmVi8ELJ9/p2GwgdiaOPZfrZjwuZ7nOtZlDm0jk6UD1kuBfuu5XYLBq/TR3/TeDjd1fN9rGhbz5Of7YMfuuqZK/Nm0oDvrwtl02F7U2XPr517bxL5p3XkaVNJa2acmt70T1p4T6rDv8uL2evwTu7CYT51WeADxd6tjr8UvViWv84wUDMAADMAADMAADMAADMAADMAADMAADMAAD3THQF8K1CX77DpsgmopP6oPqL+slnMra2K/70YU23c8Tnv2layoPvaCWuKV7Eo0VR9Tz7vaoF7LKx19Cd/O8C3tFwrULQiqjTFByt7NKW7QxoEod3co7+2I5+ayE3GUc16J2dtPfEqnv2r4z/Jf/+j/t77/99/8I771fLAAl25cRLCTuSLR2N+FyhSs3zJcH09a2VfJUGuUz/thTSctLWWEWWXk7zxJuJZLmCSCpurjQlLV+S6XVNRf9xFmRmOd8l4mDS+VWFp7iXeOidksck1C2EkKUxDrNEY1PXp/LitWsKV94ZdHrTK5w3WgkYwbLKlOWlipXAmJs7SpLzcmnnk/WV2NWNP80/mqnBHGV0WKkuZlDTJSNd+uZkli7LmJpzsfP5J07l1XKX0zaItbz6lR2XZbqWTfS8TMLgl/+Bi1Pa14vbttm7uxjK3Tvw1ic9mf03Zn9HraNUg8c7Op7URzIwt4tZxfqvKHNLbSLs3nfJxLbB9dsCtPvfNAhbHt9l+uo+p67b5/F5JaVur7/NX/d1f1ylVOUj/fRhbffD4Mbti64f4/nU/ydo7l16NG2/kzlPfXam+HsrRvs94h/D2j8U2n991HR3PI0F958J8hTiDbIxHnJm4C+9yT8+4ahvLjrMx9/HiRUu7cRn39at6ff/bAlymvNdqvwuKz4vB/GL64P5939M0J/0V8wAAMwAAMwAAMwAAMwAAMwAAMwAAMwAAPOQH8I13/8YZZ4ssiTwJESe/TiUqKT7p+VC+1vFlyeekN0jIVrvQh3Sy9PI2HFhdS8PCR26WWr/uTCNU90kgWjXqTKgsjzj4968Wt1vaX9RX2cJu9cVkWtdn51qiP/uC+Uroqw6GJhkRiSV5/4uouZ5k5d7kXjF+mJc1lYLte4Fgln3fR3rVYLq25d0xKuJWA/+9wLpW0pa6v4y3Kll/qycIvjmJblk7qvMddf6p63vUhsSD1Xdi3eKGJxlhPjG+fhooOYLBLznMUqQqKn7ZZbWdlKNIs9L5iF8/7Dbdfi+i/nuVwyW+zr3ftNXJJVs8ZHmxhUt7nfzpgwlVrruqlHrnCdHaumBbbWRW2IqSlebqOxwFMz/rE22WjdS7kl1jgk51+jYW6vx/YftnU7FsK9HRLhtAZ0s2nAxbEU0y66pu55mfHRuazC22LSFrEe16PqueI5S7ScOPrMn2OUGU+Ne9V44XO//t6xCcv7UPnE9dIao80u8vqh+RLf01ouy9kUH3E6P9f6MbTxzpYra41Xx0au5sYGlenrmzbqWBnNzRCaI6Xfx5n+8Tp0c5Tgatbg03/GCdemF1lg16Nr3eTZbVr1kf3+uGmtbTRq2wSSaaOzmnU3ni3TN9HI1fvcb7+3janS6reUNjWpnz1+dVGoC09jXhT0+0MeI5ou6JWfBH+tMVprTGz2dSZTf6un3MpH91UXfYdq84R4kICtjWByK55tV/ZzP4xftk585p8tGIABGIABGIABGIABGIABGIABGIABGIABGOiegb4Rrs1aZtdeE2z14vbcrr1mqaUX7HoBrhehEsRMFJPlaOalugZfL+EtjYTnm9bai9Pp9/9uL85l9aU87aWwhLWcPPSy1AVy5bUQG/ZDEx6tLqe/C3LPqbi0up998e8Q2gvoRVpce9xb5S9RWu49JXzqzyyxBrYstLMp9JuInBC4vS46etxs5amXweoPtcf/9BI8Tp937lbFVreBLUGxmD0PHSXKxc8u57gmhbPmy/Bu+vtKWFy75WAHV42GiTASXmMRNe6jpZ5723Vcal7x8y5i2Vj/daNZPcZjnWXGhRSlLxLzXIyuIiQultteC9dxP+rcxOpffw/aAKAYr+ojrUWKVaw22iabSMDJPp/3WeuP96PGxsSi2B13c4ON1k+V1SZYy5r/wrQJQ6qL1hptTJFwmHUtnhWuZSFpbVHc6j0HWpaR2Xpq/ZUQJTfBKkOCaJEY589XEa7L3AZ7XnKRrH4pYtLTOsPep349dfS0VfJNPZ+81mjYhgfVN7vxKk6vfjRReGJyUXNerGg9zX5/abxk4ZxyXe/tlVCp9S6uT/bc1o47d9mmHRd9tT51CNcSOs9PLTDXXMtVNxPtm59tk8e6zSaa6/smW9Zyfe618Km5aCL9TWuDsZ0TK9zba9b08vCx73D+BrtmH8oleNEmPM35+Ls7OyYqc+6X3xY2DJbUS2lr3/7Q9WYt21h04Iht2tDmDeVjv8d23r+wNr31Xse65H2hY6/HL64L593/M0Kf0WcwAAMwAAMwAAMwAAMwAAMwAAMwAAMwAAPOQN8I16qQXsTGArWJO02x2s/lglIvM70B8dGFa7lrHj/yREuk9mf9WGb5p/xH7z+Y+7zno2OeeOJiYupFfVznvHO54ZR1W1xWfC7RQYK2xCZdl+CUl5eu2wvgpsV6nI+fZwWMorwsdm9O3VLi6bKN6/o7TCRP1a3b/u42xnWqTL8mK1pZSEqcU1v9euvYFK+1maKq9Vjr2abwUPTZ257q+/g5CRd5cydOF5+7IO+cxMcsMy5sKU2RmKd7SlNFHFwKt+LURVW1XQKxyuy2D+L+WMq5xCNtnpEweOGt90w0ljtcW/NuXGOudbXu5LnVTZWtMfB+tPFtCpkSh7UmqDy1Oxv2QGl1X+uH1hm56y2yatSYaV2VsKlzPaO8szFyW3VsNEzYbsXQnr1km4UkXhet4f68C9dJy8+9h0wMz/Lnz2aPbsWZCi+RTesMe59m78efPW0R63H6Kue2thbERVceXq42IMViY5X8PU1KuDZL2a07Cy2q5UFCY6+NWxInPb/4qDjDw3fusjkurvye1qcq34eqmyz4FSrAn7UQFYqRnnFL7feX46g5ofV58tmXzHW1uQrfe+iKuwrXJhBZmMuCWdxpI5os0CViF/3FYSDEzXL0gfLwNVffado00Mq3Xl/4zTGwxeqbXVNa6Sp8Z6XS5rHv9bG14/6Duet3r8Yv1Rau8U8WDMAADMAADMAADMAADMAADMAADMAADMAADCyegb4SrjWQJricfCcM3X5XS7jVi/LhbfeEmY8/K7S4kZAhQUyirgTE2pffLMSsbrr+ltXr1PHXKln8yX2lrBMlJA2u3mj5Km8JMbKY1IvmIitJFxOrvKjPA9gsiO55YCFWpAv4En72HLDYtHqh6y+vPa5yXl66LmFq4slnLXaqXgKrPf5XVQSy/NU3cd9G+eSJp8s1rhI1Um1cjv5O5Vt2TVbU4k3Wj4WxrCXkHX/dmD57y4BZVWp8s5atZeWl7nvb8/pez+ilvkSQIsEplbeutTjMbFbIMuOCmpgqEvN0T2mqiIMqf9Hcqs9fPRnU3+JdQmuRFWte+5dyXaKUi9MSguQxQWORzVMWhtpsY3Fhb1gd5NY3uQkiIwppDFL9qDJi4c/L03XVQcyqLIVDKBOg5s9PtW0oKnMBrLmutog1ExqbluTOoMZemzxmf/x3Rz94PV24TjGdEl39ObEqsVueMsb2H7E/tVWbRqqIns5wqk+9DD962iTr9brFElcM4tR4ex6tY1Po10YC8RK7T26lcevZn34298xVhPjss/65ow8bDbNyLtvUFY+hvtsUpz1bV/sevnGNjUG8Jmosq3wf2pq6aXsb/xpXeToRW96GK3HUd6riNmu90Loxcey5K1amz3nNBf2e0DxU+dqQkP1+9u/p7FHW7/peWY7vEfWnbzqwteHIE8Etn+O+9u88/S5TOASPTx2n6eq8GapAwr21JeF5Quu21h21X2VmmfPyVnL8vEyOi/8HhL6j72AABmAABmAABmAABmAABmAABmAABmAABlIM9J1wnapk1Wv2wrwpXOcJnFXzIh0TpogBiQzaLGAitASVmYuVBBUJ/v4CXi/hJRBo84EsE+WG3ctULFLlX2Rx5/ck1CmvpHVq02rPNzgo3WLEa68Xx+J5IQvYSz/9HCafedE232hDgzaLFG1yiftUIr3GXcJVnjeHOH2ecB2n0bncZZtV5183mmgsN99VmZVIJNfNYtUEtgLxUGK02qw2pCy4JTzKnb4Jc3KVvmNPmPn7px3ioFv2puL3mui6eXuhEC2hU+K1eNffufv2dZSR7SN9djHahevpDz7OnYNy0ay5NDSwtSON3LJ7Gy18QGKzgpevuOCyQleZ2Y0V2nwggXrk7j3W99p0YMKmhPjYJXxmQ4PnnXdsCdfPvGhrjqxdNRYSLvOe8evuYcL61i3o5V6+pA4aS/M68fDjQeWl/lrt05jtvL/NhXhZ/lfL/dqpb00cL9v8ttLt8bmrGNapWPVxfWIvKkVCcvxM6tzXu8G1m9o2uaTSmkX2zeuSG3VS6blW/F1F/9A/MAADMAADMAADMAADMAADMAADMAADMAAD/coAwnXJy/Z+HTjq1YNFpdEw62NZWEp8diu5bsdC4p2elRAoqzW5ppWlWFs+jYZZ4ElIa7sOr33VHxo3WXXbJoP7D4bxR4+ZIKeNB5UsbVPj2WiEi599EVKibZaFXOG60TARVJzJQ4SEVItfPVYuTGbL0GfFwJ379ffcvjfxde8hE3DjDRipvGQdev7lE8a+xGW5Rs/2lSyuL37xVdqysl7vSJ8qRyLw8LZd1b1sJIRr1UttW6xL7lS9/JpEu8ljz1sdtaElz4pU6RcrxHtZ2aPGSGKh1jJtEhh94JDFms6my/tsIQQ2bDUvKNmxy3smtob1DQV5R20ImH7ng8I+ySuH6919N/r30ciO3QteEBIWz6k+9Q0MstJPeXdIPePXVKZCncgLzuTTLyQ3uXhaP1oM7IOPWEzvorni6Tl2xwH9RX/BAAzAAAzAAAzAAAzAAAzAAAzAAAzAAAz0CwMI1ynhiGu5AlW/gLuS9ZAVogRAuf3Vy/b5c6PLIqhIuJJopBfyK9keyrp2voCmTpwMF958p8WQ2JSbbgnpEqrNcrJev2J8yfJSwtPUa51xtMs4k7A834zJXZZ2pe5ro4jcp0sovlJluhW1vCxYORWFQm0ekOX41CtvVLIeL6r/3C+/hak33rLNAdp4ISGxKH3q3pUQ81PlcO3KrVdyBa752w2H8Xjo+0vzJb5WeK442Sffthjm2pxTddOD52khYHJiq3sajleOF/qWvoUBGIABGIABGIABGIABGIABGIABGIABGFgJBhCuEamrv3Smr+grGIABGIABGIABGIABGIABGIABGIABGIABGIABGIABGIABGIABGICBK8AAwvUV6NSV2HFAGexsgQEYgAEYgAEYgAEYgAEYgAEYgAEYgAEYgAEYgAEYgAEYgAEYgAEYuFYYQLhGuGZHCAzAAAzAAAzAAAzAAAzAAAzAAAzAAAzAAAzAAAzAAAzAAAzAAAzAAAz0lIFrSri+VnYT0A52xsAADMAADMAADMAADMAADMAADMAADMAADMAADMAADMAADMAADMAADFxPDCBcs3OipzsnrqfJRlv5coEBGIABGIABGIABGIABGIABGIABGIABGIABGIABGIABGIABGICBNAMI1wjXCNcwAAMwAAMwAAMwAAMwAAMwAAMwAAMwAAMwAAMwAAMwAAMwAAMwAAMw0FMGEK4BsKcAsqMkvaOEfqFfYAAGYAAGYAAGYAAGYAAGYAAGYAAGYAAGYAAGYAAGYAAGYAAGricGEK4RrhGuYQAGYAAGYAAGYAAGYAAGYAAGYAAGYAAGYAAGYAAGYAAGYAAGYAAGYKCnDCBcA2BPAbyedonQVnZFwQAMwAAMwAAMwAAMwAAMwAAMwAAMwAAMwAAMwAAMwAAMwAAMwECaAYRrhGuEaxiAARiAARiAARiAARiAARiAARiAARiAARiAARiAARiAARiAARiAARjoKQMI1wDYUwDZUZLeUUK/0C8wAAMwAAMwAAMwAAMwAAMwAAMwAAMwAAMwAAMwAAMwAAMwAAPXEwMI1wjXCNcwAAMwAAMwAAMwAAMwAAMwAAMwAAMwAAMwAAMwAAMwAAMwAAMwAAMw0FMGEK4BsKcAXk+7RGgru6JgAAZgAAZgAAZgAAZgAAZgAAZgAAZgAAZgAAZgAAZgAAZgAAZgIM0AwjXCNcI1DMAADMAADMAADMAADMAADMAADMAADMAADMAADMAADMAADMAADMAADPSUAYRrAOwpgOwoSe8ooV/oFxiAARiAARiAARiAARiAARiAARiAARiAARiAARiAARiAARiAgeuJAYRrhGuEaxiAARiAARiAARiAARiAARiAARiAARiAARiAARiAARiAARiAARiAARjoKQMI1wDYUwCvp10itJVdUTAAAzAAAzAAAzAAAzAAAzAAAzAAAzAAAzAAAzAAAzAAAzAAAzCQZgDhGuEa4RoGYAAGYAAGYAAGYAAGYAAGYAAGYAAGYAAGYAAGYAAGYAAGYAAGYAAGesoAwjUA9hRAdpSkd5TQL/QLDMAADMAADMAADMAADMAADMAADMAADMAADMAADMAADMAADMDA9cQAwjXCNcI1DMAADMAADMAADMAADMAADMAADMAADMAADMAADMAADMAADMAADMAADPSUAYRrAOwpgNfTLhHayq4oGIABGIABGIABGIABGIABGIABGIABGIABGIABGIABGIABGIABGEgzgHCNcI1wDQMwAAMwAAMwAAMwAAMwAAMwAAMwAAMwAAMwAAMwAAMwAAMwAAMwAAM9ZQDhGgB7CiA7StI7SugX+gUGYAAGYAAGYAAGYAAGYAAGYAAGYAAGYAAGYAAGYAAGYAAGYOB6YgDhGuEa4RoGYAAGYAAGYAAGYAAGYAAGYAAGYAAGYAAGYAAGYAAGYAAGYAAGYAAGesoAwjUA9hTA62mXCG1lVxQMwAAMwAAMwAAMwAAMwAAMwAAMwAAMwAAMwAAMwAAMwAAMwAAMpBlAuEa4RriGARiAARiAARiAARiAARiAARiAARiAARiAARiAARiAARiAARiAARiAgZ4ygHANgD0FkB0l6R0l9Av9AgMwAAMwAAMwAAMwAAMwAAMwAAMwAAMwAAMwAAMwAAMwAAMwcD0xgHCNcI1wDQMwAAMwAAMwAAMwAAMwAAMwAAMwAAMwAAMwAAMwAAMwAAMwAAMwAAM9ZQDhGgB7CuD1tEuEtrIrCgZgAAZgAAZgAAZgAAZgAAZgAAZgAAZgAAZgAAZgAAZgAAZgAAbSDCBcI1wjXMMADMAADMAADMAADMAADMAADMAADMAADMAADMAADMAADMAADMAADMBATxlAuAbAngLIjpL0jhL6hX6BARiAARiAARiAARiAARiAARiAARiAARiAARiAARiAARiAARi4nhhAuEa4RriGARiAARiAARiAARiAARiAARiAARiAARiAARiAARiAARiAARiAARiAgZ4ygHANgD0F8HraJUJb2RUFAzAAAzAAAzAAAzAAAzAAAzAAAzAAAzAAAzAAAzAAAzAAAzAAA2kGEK4RrhGuYQAGYAAGYAAGYAAGYAAGYAAGYAAGYAAGYAAGYAAGYAAGYAAGYAAGYKCnDCBcA2BPAWRHSXpHCf1Cv8AADMAADMAADMAADMAADMAADMAADMAADMAADMAADMAADMAADFxPDCBcI1wjXMMADMAADMAADMAADMAADMAADMAADMAADMAADMAADMAADMAADMAADMBATxlAuAbAngJ4Pe0Soa3sioIBGIABGIABGIABGIABGIABGIABGIABGIABGIABGIABGIABGICBNAMI1wjXCNcwAAMwAAMwAAMwAAMwAAMwAAMwAAMwAAMwAAMwAAMwAAMwAAMwAAMw0FMGEK4BsKcAsqMkvaOEfqFfYAAGYAAGYAAGYAAGYAAGYAAGYAAGYAAGYAAGYAAGYAAGYAAGricGEK4RrhGuYQAGYAAGYAAGYAAGYAAGYAAGYAAGYAAGYAAGYAAGYAAGYAAGYAAGYKCnDCBcA2BPAbyedonQVnZFwQAMwAAMwAAMwAAMwAAMwAAMwAAMwAAMwAAMwAAMwAAMwAAMwECaAYRrhGuEaxiAARiAARiAARiAARiAARiAARiAARiAARiAARiAARiAARiAARiAARjoKQMI1wDYUwDZUZLeUUK/0C8wAAMwAAMwAAMwAAMwAAMwAAMwAAMwAAMwAAMwAAMwAAMwAAPXEwMI1wjXCNcwAAMwAAMwAAMwAAMwAAMwAAMwAAMwAAMwAAMwAAMwAAMwAAMwAAMw0FMGEK4BsKcAXk+7RGgru6JgAAZgAAZgAAZgAAZgAAZgAAZgAAZgAAZgAAZgAAZgAAZgAAZgIM0AwjXCNcI1DMAADMAADMAADMAADMAADMAADMAADMAADMAADMAADMAADMAADMAADPSUAYRrAOwpgOwoSe8ooV/oFxiAARiAARiAARiAARiAARiAARiAARiAARiAARiAARiAARiAgeuJAYRrhGuEaxiAARiAARiAARiAARiAARiAARiAARiAARiAARiAARiAARiAARiAARjoKQMI1wDYUwCvp10itJVdUTAAAzAAAzAAAzAAAzAAAzAAAzAAAzAAAzAAAzAAAzAAAzAAAzCQZgDhGuEa4RoGYAAGYAAGYAAGYAAGYAAGYAAGYAAGYAAGYAAGYAAGYAAGYAAGYAAGespAXwvX9ZmZMLb/SKid/n5FO2n6/b+H888fD/XZ2Sta7tSJk2H8yBNhfnQsWc7sj/8OE48/lXt/OXZjTL16Mkw+/UKYvzCdrMNylHG95zH1yhvGU14fN2Yvhdnv/xUac5fbxmD2hx/D5aGRtmvL2ZcTR58JF95+v6Pc5SyDvNI7hugX+gUGYAAGYAAGYAAGYAAGYAAGYAAGYAAGYAAGYAAGYAAGYAAG2hnoa+H60n/+EgZX3x7O3LQ2XHjrvSsm4MVQNC5fDqMPHAxnblgdxh58KDTm5q5YuTMffWrljNy9J9Qnz3eUU/vuh3D2lg3h7Kr14eJnX5iQPvfLb+GPRqMjbdyGbs4nHn86nLlxTRi5695weeTcsuXbTR2u9bSTz71s43xu5/1h/vxURx9rg4b6/+wtA+HC395t3bfnblwTRnfvTz4X99v81IUwuvdQuPjFV5X5EN8a+4knnwv1mYthfnyiVXacN+ftiyb9QX/AAAzAAAzAAAzAAAzAAAzAAAzAAAzAAAzAAAzAAAzAAAzAwPIz0NfCtUQ8E5D3He7OKrReNwGv9uU3XQtxl376OQz+dWMY2b47SAzMg06i89SJNyuLhKl8lIeEaQnUqfsSkofWbQ6TTz2/UE6jEcYPHw3Dd9wdaqe+W1LZXp7Ey8Fbbwuz//opWQdPx3Hxk08CtMYxb2OAC9fn7nuwjXNZ/ttzg8OVxqb21SnjSRb0Wevt1Php7CWYq3wJ1xK+h27b1pX4ncqXa4tnhb6j72AABmAABmAABmAABmAABmAABmAABmAABmAABmAABmAABq5XBvpWuJb75HP3PBAG19weLv3751LhTkKd0o0/dsyekeAtAbp2+rvSZ+PBl/WpnpWgN3rgSPJvbO9DJhC6tWoVkTAuw8/LhGu5EB9af0eQ8OnPSEyXqK6yxx95spJA6c9mj2Zdvnt/GBzYEubHxltlZNP553qtFv6o10vTeXqOCwurCdfr78h3+d5omGgsITnuM/Gh8c9zJR+n1bk4HN1zwNiILbez6fxzLFzrWszW1Ot/a6uLP8ORL0sYgAEYgAEYgAEYgAEYgAEYgAEYgAEYgAEYgAEYgAEYgAEYgIErwUDfCtdu+Tz20GOdlsX1uol5M598bjGihzbeaWKdxNzBdZtN2B079GiQ+CYr1Kpi69xvZ+z50f1HCp+RQC5BfXjrzjB3ZrBU4JOgmLLeXoxwLQi8/LOrBkLtm29Ly88Dxy19JYTXL9YK8zG37QNbwuSzLxX2TV5Z1/P1UuH6jz/MLX2hcN1ohPMvnbC/IlfxLS8FGRE81f9Z4Vpp3D19vFki9SzX+EKCARiAARiAARiAARiAARiAARiAARiAARiAARiAARiAARiAARhYTgb6VriW5bMspiVgq8EXTr5jsX7HjzxhVtDjjx4LF95+36yRz/5lfZh+94NC4bW00yI33CpbbppTz0iEHtt3OJhoLFH8j3Ig7ZkDR8LMR5+0ifCLFa5Vpuqodpswn6kK0Ta7AAAgAElEQVSD4ijLvXiexXjr+t5D1o6hga2Facf2HwmDazeZJbo2ByBel495zEVKuJ7+4OO2PtcYZMdhZMceGx+58Jb3AfW9/s6/8EobR3FZHhdefMTXU+cp4Vqi+OQzL5rreFnkp57jWnfjT3/RXzAAAzAAAzAAAzAAAzAAAzAAAzAAAzAAAzAAAzAAAzAAAzBQzkBfCtdyW61Yu0lr64xI6xaiEoGXMuASgOWWWa7FZYksoXD6vY868tS1szevWxBvG42O+3l1UD1lpT11/PWW6LgU4VqW3qO79yctuVWH+uT5MD8+0SorVS+LibxqIFx48x0Tui19pn9Tz3GtfGLFfRQL1/Oj42HiiWfD/MRk29hJRC60uK44LhKbZ7//MdRnZ0vZTArXzXJq3/4Q5Mlg9tTiLfrjPuC8O2boL/oLBmAABmAABmAABmAABmAABmAABmAABmAABmAABmAABmDgemOgL4VruTsevPU2c1tcNiDLIVxL5B2+c5dZdXt5lweHwvC2e9qEO4nasgKXa+2U629/NnW0eNIPHDTR2wXxpQjXKkPiZGNurlSgTNVHlrXaGDC0brO5O5eIPXH06UKhO5lPRUH1enlWccBlsdyyaj9wJAxt3tGynNaGDIuhvvP+FkMezz0pXK/bHC6PnFvUGItXucyP6xKfy8JbmynkQSC+rnpo/i02Tvz1Mta0kx8MMAADMAADMAADMAADMAADMAADMAADMAADMAADMAADMAADMLB8DPSdcC1BWLGj5RJZwur8helC0W6pwrW58T74SDj//PEO0daE6g1bTbyWkD24YasJ3LKaXQyEFz/9Rzhz01prn9q5JOG60QhTb7xtwrOsY7utj8fznjj6jLVbwvr44aNJK/Nu877e08tiP97YEFtcp/rGY42nhOuzt2yotIEjla82J1weHjEPAtn7svw3Af2ue5P3s+n5vHyLLn1JX8IADMAADMAADMAADMAADMAADMAADMAADMAADMAADMAADMBAJwN9J1wrbrXF8r1hdRjb93Cpy+MlCdeNhsULNtG6Xk+Kv7KOlvXp2Vs3LEm0FnxyDy33y/rTuQvXFz//Zzomtceg3ryjzSLWrGN37zfrbbOK3bA1SFivDHgznvegrK1/O9N6zqzMt+wMMx9/1rpWOU8sr3P7rIpwLdf0Frs66kdZwU8++3Kon5/KzTs7PtqIIdfvRZsrzMPAHXebcD28bVeoT89Uzj9bHp87F1X6hD6BARiAARiAARiAARiAARiAARiAARiAARiAARiAARiAARiAge4Z6Cvh2gS1bfeE8SNPBFmaSvArG9SlCNfT734YLn76RYeldavMRiPMfPSJ1UWW0nIBXSV2cOv5SIS0a3LPvf9wS6B04VptSMWklotoufKWC++JJ58L9Yu10v7ILTuqi8Xp/sv6Vj3iZ2RlrjIvnHwnv1+ivOJnOU9PwDzhWnHK/9CGCcVKz9k44X0qq2xZ2NdnLrYxIIvq8Uee/HNjQ3NDg9yAz/3yW1taz0uu+BWn/eyq9bYpY2z/EbPM9vsc0+NIv9AvMAADMAADMAADMAADMAADMAADMAADMAADMAADMAADMAADMHDlGOgr4VoWp2MHHwm1b75dEeG6CCy5KJer8rO3DISp1/8Wpj/82ES+wYEtYfqDj4MsW4uez7tnzzVFyli4TqV3UX76/b+HiSeeXXSs4zjv2VPfWpzuwTWbFqx5J893tMOF7XP3PYiguQwifUq4lmt2uQYfWn9HkHAcx5hOnY/svN88EYzcdW+H+/z5c6Mtd9/zo2OW5/S7H3SMqzhwa+tzu/aG0d37g/Kb/eHHMLxlZ5C3AxPRl6HNMXOcX7kFnL6lb2EABmAABmAABmAABmAABmAABmAABmAABmAABmAABmAABq4VBvpGuL70759NRJOVsQu2S7W4lkgrYa5bN9oXv/jK4lnLffPsv35qCYCybpWYK1fmErQVE/rSf/5Sai2bB4sE6aIYxnIhLsvYmU8+D+dffDXIdXReXqXXm9bjcnsuC916rWZW1fo89vDj7WJooxFkjS6LXIs1vvehhXbKMhhRs+s+cOHa2P76dBjde8hiiY/tfcj4lDW192tevGufE3mCtD/vwrU2Rfi11rHRCJPPvmQbF2a//9GEc80Plak5MnTbtjC273CHVXfreca+s0/pE/oEBmAABmAABmAABmAABmAABmAABmAABmAABmAABmAABmAABpaFgb4QrmWFbJbWp7+zRrlIJ8GvMT8fpk6czLVINSH5prVhZMeetjQSBSUKKwa0YkqXiteNRpj98d9heOtO+9P5/NQFExZH9xz4M2ZwoxFqp76zNB6LW+Ly0O13mYtzWa3W/vm1PVsk+EmUVr2KhGu5dJawLPFc51WE/FSZZj1+6FET4yXKx1a1Zl198zq7l+0jifLDzVjI1o/rNoexw0eDBHdZ7qbK4lrnrh65mBcrg2tuX7Byb7r7lsW1C8feb2XCdVKQjhbDIuFabuAHV29suYjPlq9454MbttqYXz7bRcz0qHxvB8dODugT+gQGYAAGYAAGYAAGYAAGYAAGYAAGYAAGYAAGYAAGYAAGYAAG8hnoC+HaXHG///eWEBoL1xq8xuylMD8+kbRs9rRlgl4uBPV6qH19OgzfuctcJ5sFddOy2EVAuVXuiG3daJgVsixUzTL5htUmkkvEliX25aGRVnvaym40LFbx2KFHw/Q7HxQK17KElmvy+bHxUDv9fZCA3lGPAtFQ4vLk0y+YyC5X58k4yo1GOP/8cRNWNQ5tdVXe9XqQla9cWku8lpA+9cobCNcF/a4+VCxqbTYY2ry9JVobW9FzWeF44bkZE7N1Lx6Lqpw7s9n5YJswtu+2zR3u5j5VvsV010aM9XeYC/G4DpznL6T0DX0DAzAAAzDw/9u7lyC5qvRO4NHhWTjszcSEw97YjpgIh2c2XnhlT3jv1ewmwjMRs5xNewY1Dd0ISQjxEG9oRCMaJCGpQYhH87BEA414NNC0ADXdvN/Prve7VKWqUlWmbMeZ+I64RVblzawsSaXMUv6IqMjUfd9zf3lZ/M93DgMMMMAAAwwwwAADDDDAAAMMMMAAAwwwcHYG2h5cV07MpLkvvioN6VqpMG410FsOJcLgCGwjsJ586khpEBuVzjmoferIkusrjhUVyjPvvp+qcyfTiTfeTCM/uTdN/vzZ0m1jnwidR/c9kAZv2pErsiNcbFRxHe0yGEHjjrtTzIe8MDaeBq67NQ+jXpy/7DO2jZA6AvWx+x9OJ7/8ekmFde0+cf1xTRFqRpBeOyx67Xb5+zcBf1Si162rCWO7fV10sCjmo44q6xgRINo2guAIlWvbJ57P+ai4jqA65s0OT/Gsi2soC66jGn/swCOnRyrYet05mVe9OJ/Ps3tZaz/txwADDDDAAAMMMMAAAwwwwAADDDDAAAMMMMAAAxeygbYH12WNW4TRaxVcT//69RTVxRFex/lj2O4YqjzCvdq/GH6853uXp6i4rl1efI85gSOcHH/osfJq5ppANwLkqL4dvPH2VJmYzOdtFlyf7OlLfZdf9e3w4NXq6TD64KOLwWNZ28WyqFAvWxfDUMdQ3zO/eyeH2bMffZKvafLw06uq5C47tmXfvignHn8yDwseriIIDsdlwXUsX/Pg+puK+gitC3fFsyoNrk+dyqMbxDD2YTvmVy+29/ntM9YW2oIBBhhggAEGGGCAAQYYYIABBhhggAEGGGCAAQYYOLcGujK4Xo4oKlLnBwbrAt+oiO3fcm3DqtO8ftPVab5voHG4V6mkyUNP5+HEY/7g2nmkmwXXMcz08mrsmD87H6PRMOQ1QXlxj1GBPX30WL63+B4V3BFIRpV5bJPnPf7hlSlC+OVDWcf648++mOK8pcOMl5yvOG83f4an2srmZsF1zHsd1fFFZ4j4Hsv6t2xfXBbrirnclw8Bvrydlw8VHnOYD9+5uy60jv0iuB647rZUmZqu8xvzykenDcH1uX3hLn9e/q19GWCAAQYYYIABBhhggAEGGGCAAQYYYIABBhhggIHTBgTXDcLXCB4Htt+SQ8Womi0D0yz4q90+zxt86RW5snvp8vKhwmP47hhuOv5q57SOKuz+TVfnoZwbXVPt8eP73KdfnJ4b+8RMvoe6KtuaOa5H7tlXd5/FMNMD19x8etjxBu21/Lz+/e1LtllwvZYV11OvHM1Wag3VPpewUFYJHtuE/9H9B0/PLe+Z1/0uatvR92+tawttwQADDDDAAAMMMMAAAwwwwAADDDDAAAMMMMAAA2dqQHDdIJSbevnXeX7rmbfeLQ2tYtjtCB2Hbr2zrlK77mFUq7myeXnY3Kjieuad9/O54xqWHCuGC99zX+r74ZWnj9fg2hf3+Wa+4ggoi2V1wXWElCOjueJ6rGYY8hjmOg91fepUrhKPSu+oAJ8++sbisYpj+mz+AmoYXD/yxDkfKnx+cCh3bogq+bnPvmg4v3k8s2bBtWfa/JlqH+3DAAMMMMAAAwwwwAADDDDAAAMMMMAAAwwwwAADDJxbA4LrkvB3YXQsxRy/MWxzVByXoYuwt2/LtWnk3vtL15fts3xZWXAdw3lH5XPMrx3h+PJ9ivm/Y87i2uGol28X/55594McNo8/8sTiccqC69g2hjCvrcyNa6sdljqGLo8hxvuvuiFVxicWj1d2XsuW/kgbBddlz6LoEBHratuxeO61z6R2fQzlfvz5l3JoHXOyx3zqeS7zEt/FfoLrpc+paBef2oUBBhhggAEGGGCAAQYYYIABBhhggAEGGGCAAQYYOP8GBNfLgr1iaOzl81Evx1kEicVc0cvXt/LvsuA6Krxj+OaYe7r0GNVqGt17IPVcdFkeSrxReB3V0lGZHfMUF5XTcbyysLTsPHFtE0/8fPEaFiYmUwwXHoH+wtj44vKyfS1b+kNe6+A65iaPZxMdKYp5yisTk2nolh/nCv2F41Olz6uw0MiQ57j0OWoP7cEAAwwwwAADDDDAAAMMMMAAAwwwwAADDDDAAAMMrJ2BCzq4zuHdbTtT3ZDby8LqAlhl+kQa3rk7h7Mnv+4pDfuKbScPP5N6v785NRpKvNiu2efy4DoqmWNe7YnHDjcd4jmqoyNYj/A6Asv53v4l1xpBZVRsR4V0DC1eWzVehJVl1dy11xpV2lFxXju8+fFnX8xVvbXb+b7yj3Mtg+vZDz/Ow8qXdbSICvqYp7r3ks15nvPwFkOJV2fnspcYNSAqtUufYbWaK+sXhkfSzG/fzvuVbtfgt2TblV1oI23EAAMMMMAAAwwwwAADDDDAAAMMMMAAAwwwwAADDHxroOOD68rMTIoQdfiefaV/Q7fflauKI6hdvk3/1utyuBvBXdPwulpNJ958KwfWo/c9uGTI7MBy8uvfpzhPhNqTzzyXJp96NldFx/Fz+HeG4d3p4HpLmnnvwxwuj+zan2Ke6dqguRHWqZdeTb0Xb1q8v6iOjmHGG21fLI9hyKMSe/LJX6Q4RtlfcX9x/PGHH28cbp7hfRfXcqF+hrWY+3z0pw+myWdfyK6iGnq5lehE0LdxW+4gUNiNzgKxrH/L9iWeC+dhZnm7xZDgM2++Vbe82C6qsAdv+XHuyBCdHWr/+i678rTlzdfkgLt2XXyPec3DfO0w8sVxfX77ItUW2oIBBhhggAEGGGCAAQYYYIABBhhggAEGGGCAAQYYODsDHR9cxwOOCuKo/GxYHXoWAercF1/lUHrk7n1pfmCwYfhXzCEcQV4O9zZsTGczTHjcV543+qLLcngcAXGutG5UAbv8HqvVvP3gDT9KuTq8Wm187TX7zn70SSoC/eUh5ZJ/b9iYq79Pfvl1S8f1Q1z6Q4ygNzoHRKeJaNfolLC8Y0Gr1e/RtotD0z/z3Bk/j6i0jurpcBbnDgcxLH3/pqsXO0HUGsgjCjQJxD3zpc9ce2gPBhhggAEGGGCAAQYYYIABBhhggAEGGGCAAQYYYODMDXRkcD378adp7MDDObBeq4cbgWxUUEelcgzR3ep5ojI7qmmjyrV2GO1W96/dbuqVo7nSOwLwCBRXfbxKpaXq7Npz+n7mP5YzabvjR15MI/fen2IY+uX7R2X7zLsftPTco+NGDAu+Fp03ll+Xf59fI9pbezPAAAMMMMAAAwwwwAADDDDAAAMMMMAAAwwwwAADp1JHBtcejB8nAwwwwAADDDDAAAMMMMAAAwwwwAADDDDAAAMMMMAAAwww0D0GBNc1w2iD3z3wPWvPmgEGGGCAAQYYYIABBhhggAEGGGCAAQYYYIABBhhggIHOMSC4FlzXDWHtB9o5P1DPwrNggAEGGGCAAQYYYIABBhhggAEGGGCAAQYYYIABBhjoBgOCa8G14JoBBhhggAEGGGCAAQYYYIABBhhggAEGGGCAAQYYYIABBhhoqwHBNYBtBdgNvUPco15QDDDAAAMMMMAAAwwwwAADDDDAAAMMMMAAAwwwwAADDDQ3ILgWXAuuGWCAAQYYYIABBhhggAEGGGCAAQYYYIABBhhggAEGGGCAgbYaEFwD2FaAepY071mifbQPAwwwwAADDDDAAAMMMMAAAwwwwAADDDDAAAMMMMBANxgQXAuuBdcMMMAAAwwwwAADDDDAAAMMMMAAAwwwwAADDDDAAAMMMMBAWw0IrgFsK8Bu6B3iHvWCYoABBhhggAEGGGCAAQYYYIABBhhggAEGGGCAAQYYYKC5AcG14FpwzQADDDDAAAMMMMAAAwwwwAADDDDAAAMMMMAAAwwwwAADDLTVgOB6HQOsTE+nkV3709SvjqZTlUpbIZ1ND5GF4ZE0uu+BND8wWH4PlUoau/+hNP7w42nh+FT5NufwOZ54/c00cteeNPfFV2t+rrNpN/s275WjfbQPAwwwwAADDDDAAAMMMMAAAwwwwAADDDDAAAMMMLB+DAiuz2Hgeb7hV+fn0/COu1PvxZvS5NNH2h+yVqvp+LMvpqHb70qVicmWr2fmrXdT7/c3p/6t16WTX35dul+E9IM33ZH6Nm5Lsx9/WrrNuWr/6VdfTz0XXZYGtt+S5vv61/Rc5+qaHWf9vHQ9K8+KAQYYYIABBhhggAEGGGCAAQYYYIABBhhggAEGGKg30HnBdbWaej44kp646e/SvRf9Ydr13e+kvd/74/TUHf+YRnreEiIuC9qjMnjwhh+lCHabAY+Qu9n6Yl2EtlHFPXzPvlX/Dd16Z+rZsPF06Hv9bWlheLSlc44dfDT1XrIlzbzzftPtY33vpVvS8RdertsuAubhnbvT/OBQ3bri3lr9LILr+Gx1H9vVv1y0iTZhgAEGGGCAAQYYYIABBhhggAEGGGCAAQYYYIABBhho1UBHBdeV+bn06kP/L+3+5z/IgXWE1rV/EWS/feTmdKpaFSh+E2C3ElyfOPbb1H/l9Wnm/Y9WbLfqyfk8ZHd1dm7FbVtF1my7XEl9w4/S4C0/TpXZ2TT1ytHGgfnO3al/8zVp5Cf3Ltlm5O59qe/yq04H5tfcfNbhteDaC7SZWev4YIABBhhggAEGGGCAAQYYYIABBhhggAEGGGCAAQbOvYGOCq4//NXuxdD6Z9f+Ter58Lk0Pd6TPj12MD2w6S9yiB3h9VfvPHleQtV2gov5nkf3H1wS0JZVQfdv2Z6Hzx75yd7SbUd27km9l16RQ92+Ldemuc+/7Ki2m/v0i9R32bbFKuoIzhdGx1J8tqv9Bdfn/kXTrmfpvJ4lAwwwwAADDDDAAAMMMMAAAwwwwAADDDDAAAMMMLA+DHRMcD093pse2vbXOZx+aOtfpcnhz5YElyO//126/7I/y+sP3fIPaW5mYsn6CxHcwtBwWpg83vQ+W6m47uS2mTz8TJ7bemGkfljxkz196VSl0vT+Zz/8pOUhyVttB8H1+nh5tfo8bed5MsAAAwwwwAADDDDAAAMMMMAAAwwwwAADDDDAAAOdb6BjguuPj+5brLbOw4Evm8s5ML3++MYcXO/d8Eep96Pnmwaa3YKvWXAdoXfM+zz14isdObx6DA0eQ4SP7Lmv9Pri3vLQ4HeXz7ddVJP3X3XDqsLrGJ48Au9GobjguvNfXN3y+3afLDLAAAMMMMAAAwwwwAADDDDAAAMMMMAAAwwwwEC3GOiM4LpaTc/f+79yKH3fD/80jfa8nUPpoS9fT/9y09+nqdGv8r8jrI7QOua9PnZ4a1cE17Mff5qD3bJhwmNZs6HCB7bfkocI7714U5p66dWOa6+Zd95PvZdsSUO37Uy5unpZZ4WRe/alwRt+lCJoLvtBLgyP5GB7/JEnSteX7RPLFiYm08A1N+dK7+nXflO3byvBdXW+fUOZN7ovy/2PiwEGGGCAAQYYYIABBhhggAEGGGCAAQYYYIABBhhgYL0a6Ijgeu7EeA6oI5B+7Lq/TbNTIzlMPProJTmk/vDVPfnfEWAf2PTnedkzd/33VFk4WRc6rtcH0fC6q9UU8103Cm+bVVw3POaygHittot5qqsnGzyjajUH8j0XXZYGrrstVSYm657l+KOHWguuHz1Ut2+ze4q2jEC8/6ob03xvf92+KwXXsx99kvq33ZCmj75Rt2+z81rnfxQMMMAAAwwwwAADDDDAAAMMMMAAAwwwwAADDDDAAAMMlBvoiOB6erwnPbD5L5cE0hFKRzgdYXYE2PEAawPuqMSOf3f7g11NcJ1D5Gr1vLRZDAOeK6Zv3FE6T3dUWPdtuTb1XnpFinsoe46xf9/GbWnkJ3tTacX5zt25YjsC7rL9Gy0rgutG5y2C68Gb7qg778jd+1Lf5VedrmS/9Arh9XnqBNHoWVpe/mLXLtqFAQYYYIABBhhggAEGGGCAAQYYYIABBhhggAEG1puBjgiuBz8/mvZf8h9zSP3cnn/KIeTczEQ6dMs/NFwWQXcE3uutwc/19bYaXM+8/1Hq33R1mjz8zJL5pCszMymG2i4Nhu8pn1u6lW2LYcqjonqwJLweO/hoGtm1Pw3fuatxcH3XnjyMeOXETOlzjqHC4zxTrxwtXd+orVsNriPAbnQMy73sGWCAAQYYYIABBhhggAEGGGCAAQYYYIABBhhggAEGGDh3Bjo2uJ4e700Hr/jPObiOADuC7Noq7As1uK7OnUyTh55uOUhuNsd1ETBHuN33g63fznf94itLw+vp6bQwOpZOVSorBrVFNfLZhLonv+5JUc08PziUQ+vayue5L75aHL67Oju34vXUvgwWhkdTBPSnVqgqF1yfuxdIbfv7rl0ZYIABBhhggAEGGGCAAQYYYIABBhhggAEGGGCAAQbO1EDHBtcnJgfSw1f91yXBddxkVGTH8OEXanAd97hwfCpFNXGzIDnmj44htHsv3nS6orlkjug4VgzZXZmaXlUA3AzTWQfX1Woaf/CxNPPeB/maIrSuDa6jEnvo9rtaDu6LcD4++7del9tjalkwv/x+BNdemMtN+DcTDDDAAAMMMMAAAwwwwAADDDDAAAMMMMAAAwwwwEB7DXRscF07VHjMdR3V1t1Qcd3SD6JaTROPHU4937s8f44//Hg68fpv6sLpCLdzoHvl9Wm+r79u/Urnmnr51+nEm28tqWA+2+D65JdfpxO/+d3itdQG1wsjozl8PpNq7gjoh269M43suS/NDww2Df0F1+196azkznrPhwEGGGCAAQYYYIABBhhggAEGGGCAAQYYYIABBhjoPgMdG1zHcM9Hdv2PXF39wt7/nYPO2jD7Qq64XumHOPXSq7myOELpCKfnPv0iDe/cnaurF/ctwu0NG1P/ldenyaeeTdWFhcXAeHG7U+XoK+MTaeCam1PPho1pdP/BFEOYxz7Lg+s4/9jBn6UTx367JOBe6fjF+sXgulpNYwceyeebfu1Yy9dZHGfmzbdSBO0rDRMe2wuuy5950ZY+tQ8DDDDAAAMMMMAAAwwwwAADDDDAAAMMMMAAAwwwwMD5NtARwfX0eE8e+juGAC+qq6MhfvPkthxcv/vC7aeD6xPj6V9u+vu8LD7nToyvOuA83w18rs83ffSN1HvpFWl4x91pYfJ4vv/q/Hwebnux6rpaTZO/eCHPaz35zHNNq48bXd/x536ZQ+TBG29PlZphyJcH17F/HrZ81/4ccEflc6Njli0vgusIk8cefDTFUOHFfZVtv3xZXNvIPftyeN9KaB37C669aJc78m8mGGCAAQYYYIABBhhggAEGGGCAAQYYYIABBhhggIH2GuiI4DoC6CKQfuy6v02zUyM5/Bz68vX08Lb/kkZ+f3po6anRr9KBTX+eg+vagLtbEBWh9eCNO+rC3ah4Hrj+trQwOpYmDz2dhu/cdXrI7AYV1c3abH5wKA/Z3ffDK9Psh58sCaLLgus4VgTWESAPbL81zfe2Pix5EVzXXk/cw+h9D7U0z3XMa91z0WWpb8u1ae7zL5dca+0xa78Lrtv70ql9Fr57FgwwwAADDDDAAAMMMMAAAwwwwAADDDDAAAMMMMAAA2GgI4LrqJR9/t7/lQPp+374p2m05+3SALL3o+fT3g1/lLc7dnhr6TYXJOxKJU0ceioPDx4h7fijh+ruPc/xfNvONLD9lnT8+ZfOqMo6t121mkb3HsjniiHJl7dno+A6totK6QjV+zZuOz03dguheVlwHceKocojwK6tol4pcF5+rY3+vdJxmt1jo2Na7oXKAAMMMMAAAwwwwAADDDDAAAMMMMAAAwwwwAADDDDAwJkb6Izg+tSp9PHRfWn3P/9BDqXfPnJzXWAaD/n1xzfm9RFeR4jdDQ8+hsIevuOe1HfF9hTDd/dvuro0uI62iOrovsuvSmWBc6ttFZXbvd/fnCYeO7wkNC72XynUnfvsixxc916y+fSc0yuE142C6+J8tZ8rBc612zb7vtJxVrrHZse27sxfRtpO2zHAAAMMMMAAAwwwwAADDDDAAAMMMMAAAwwwwAAD3WugY4Lr6fHe9NC2v87B9ENb/ypNDn+2JJge+sHjJ1QAAB6zSURBVOpYuv+yP8vrD93yD2luZmLJ+gsOcaWSK6cjqI4QOSqqF4ZHUv/maxoG19EGE48/mXov2ZKmfvmr0uC5WTvN9/XnIcJHdu3P81aXbdtKqDv14iup53uXpxhqfOa9D5o+J8F19758ynxZxgMDDDDAAAMMMMAAAwwwwAADDDDAAAMMMMAAAwww0J0GOia4DoAf/mr3YtX1z679m9Tz4XNperwnfXrsYHpg01/k0Prei/4wffXOk03D0HWNuVJJUfU8eOPtObBeOD61eK+tBNfVk/NpdP/BHByPP/hYDrxbaY88zPdNO1Kz0DqO00pwHdcQVeIxrHnMe93s/Os5uI5q+OhQ0Oz+rOvOF6vn7rkzwAADDDDAAAMMMMAAAwwwwAADDDDAAAMMMMAAA6sz0FHBdWV+Lg8HXgwZvuu738lhdfEZoXUeRrxavWDDwpm330sz735QOkd1aXBdqaTYZ+jWO9PM797J7RLB8fjDj6eeDRtzhfbkL15IlekTDdssto/Aeuzgow0rrYsfVivBdWw79+kXueJ65N77G543tluvwfXM+x/lIdEjmBder+6lU1jyqd0YYIABBhhggAEGGGCAAQYYYIABBhhggAEGGGCAAQYKAx0VXOeLqlZTzwdH0hM3/V2KoDpC673f++P01B3/mEZ63moaghY3daF+nuzpy3NYjz96KAfREUj3bbk2jey5L9VWZhftOP3qa6n30ity5XOE2APX3JzGDv4sTR99YzHIjtA6lh0/8mLd0OLV2blUGZ9YsjzOGZXUEWA3bedqNQ91fvLLr5tut9bB9cLYeBo78HAavmff4t/IT/bm0Ll/y/bFZbXrB2+6I99jfNYuL77HNff9YOvpdv2mqlx47aXa9Pewwlzv9uWHAQYYYIABBhhggAEGGGCAAQYYYIABBhhggAEGut1A5wXXAp6GQe/MW++m3u9vzmF176Vb8ufMex823D5wzw8MpqHb78rV1xE4R3gdFdoRWMf6GO56fnCo9BgRhk8+dSSfJ/Zd/NuwMU2/dqx0n9X+oFYKrid/8Xwae/DRNPXSqylC85jjO/ZZzXkifF8YHVsSwK9mf9v6HwUDDDDAAAMMMMAAAwwwwAADDDDAAAMMMMAAAwwwwAADa2tAcL2OgvLjL7x8OoDesDGN7P7pYtX0ij+SajXNfvJZGjvwSIq5rFfcfnmbVCpp8pnnUu/Fm3J43X/l9aeD4OXbrfbf1Woa3rl7xSA6Ks2Hbtt5OjjfsDFFO6z6HlZ7bbbXxgwwwAADDDDAAAMMMMAAAwwwwAADDDDAAAMMMMAAAwycNwOC63WELaqkR/cfTDEE+KnzPc93tZpG9z2QRu7elxaGR88J0Mr0dJ5bu5ibu1kYHVXTgzftSJOHnymd/7vZvtatbe8X7at9GWCAAQYYYIABBhhggAEGGGCAAQYYYIABBhhggAEGztaA4HodBddn+7Dt74XBAAMMMMAAAwwwwAADDDDAAAMMMMAAAwwwwAADDDDAAAOdaEBwLbg+J9XTnYjbNXnpMsAAAwwwwAADDDDAAAMMMMAAAwwwwAADDDDAAAMMMLA+DAiuBdeCawYYYIABBhhggAEGGGCAAQYYYIABBhhggAEGGGCAAQYYYKCtBgTXALYVoB4u66OHi+fkOTHAAAMMMMAAAwwwwAADDDDAAAMMMMAAAwwwwAADDKylAcG14FpwzQADDDDAAAMMMMAAAwwwwAADDDDAAAMMMMAAAwwwwAADDLTVgOAawLYCXMteGY6t1w8DDDDAAAMMMMAAAwwwwAADDDDAAAMMMMAAAwwwwAAD68OA4FpwLbhmgAEGGGCAAQYYYIABBhhggAEGGGCAAQYYYIABBhhggAEG2mpAcA1gWwHq4bI+erh4Tp4TAwwwwAADDDDAAAMMMMAAAwwwwAADDDDAAAMMMMDAWhoQXAuuBdcMMMAAAwwwwAADDDDAAAMMMMAAAwwwwAADDDDAAAMMMMBAWw0IrgFsK8C17JXh2Hr9MMAAAwwwwAADDDDAAAMMMMAAAwwwwAADDDDAAAMMMLA+DAiuBdeCawYYYIABBhhggAEGGGCAAQYYYIABBhhggAEGGGCAAQYYYKCtBgTXALYVoB4u66OHi+fkOTHAAAMMMMAAAwwwwAADDDDAAAMMMMAAAwwwwAADDKylAcH1Og6uK9PTaWTX/jT1q6PpVKVywQXQ1dm5NHzPvnT8+Zfadn+5jfceSCfefKtt17CWLwDH9j8YBhhggAEGGGCAAQYYYIABBhhggAEGGGCAAQYYYICBTjAguF7HwXV1fj4N77g79V68KU0+faT9wXW1mo4/+2Iauv2uVJmYPCfXM/fZF6lv47Y0eNOOtDA6dk6OuZofXgTXgzf8KPVtuTad/Or35/38q7lW2/qfCgMMMMAAAwwwwAADDDDAAAMMMMAAAwwwwAADDDDAwHo10HHB9dzMRPrq7UPp+T3/M933gz9Ju777nfz33J5/EhqWhOwjd+3JwWoErM0QRsjdbH2xbvrV13MVd1Q6r/Zv6NY7U8+GjannosvSwPW3pYXh0ZbOWZy79LNaTSN77svHjGsr3aakXVazXWV2No3+9MF04thv645fBNfRzqs5pm39T4EBBhhggAEGGGCAAQYYYIABBhhggAEGGGCAAQYYYICB1g10VHD90v3/J+3+5z9YDKuL0Do+BdflD7WV4DoC2f4rr08z73+0YvhaPTmf5gcGUwzTfb5+SMdfeLlphfb0a8dS38arUlRf111TVHk//1Ka7+2vX/dNoB33M7r/YMMgfmD7LTkY7/vhlXXhteC63F3dczjLzgOOp50ZYIABBhhggAEGGGCAAQYYYIABBhhggAEGGGCAge420FHBdYTTtWH1Ty/9T2n3//0PXVlxvVLYWlRD92/ZnofSHvnJ3tJgdmTnntR76RWng9kt16a5z79sGPC262UQ4XvfD7am+Czuq/Zz5O59afjO3aXriqHSey/dkmbeeb/hvS0MDaeVqtLL7l9w3d0vyDITljHBAAMMMMAAAwwwwAADDDDAAAMMMMAAAwwwwAADDJx7Ax0VXP/myW3p9ccvSwOf/SrNnzyRpsd70gOb/7Irg+vAHmHrwuTxhmFsbNNKxXWn/3DGH3ki9W++Ji0MjzS917L7iH1i3/GHHkunqtVV7192zNplgutz/9KpbV/ftS8DDDDAAAMMMMAAAwwwwAADDDDAAAMMMMAAAwwwwEAY6KjgejnKbg+ul7dH2b+bBdcReg/v3J2mXnxlTULdsus5k2Xjjx46++D60UPnPLSOe2kWXMfQ5Sd/37Mm5z2TdrSPlzoDDDDAAAMMMMAAAwwwwAADDDDAAAMMMMAAAwwwwMB6NSC47vC5eWc//jSN7LmvfJjse/alZkOFF3M39168KU299GrHBqydFFxXFxZSzLldDFUeQ7D3bdyW27lYFp/FEOwxDPuJN9/q2LZdry8m1+1/qgwwwAADDDDAAAMMMMAAAwwwwAADDDDAAAMMMMBAdxkQXHd4cB3DX8d8143mZ25Wcd3uH3P15Hyqnjy5YqjbKcH1zHsf5MB6YWx8cYj2RhXXxfKh2+9KcZ/tbmvn764Xt+fteTPAAAMMMMAAAwwwwAADDDDAAAMMMMAAAwwwwMCFZkBw3enB9QrXt5rgOofIazAPdNmPojI7m0bu2ZcGb9yxGAKXbRfLIrjuvWRLHta8tqq5pe87d+d9ox3Kjh8h9NiBhxcrqBsds6ig7rnosjS84+7Fay4C6rH7H15y/GJ5o/OWXYtl/gfCAAMMMMAAAwwwwAADDDDAAAMMMMAAAwwwwAADDDDAQLkBwfUKwXCnw2k1uJ55/6PUv+nqNHn4mSXzXVdmZtL4I0+sGOw2CnwbLS+GKY8geKXw+lxUXI/s2r8kWK59bpUTM0uqonPofOOONLr/YIqAvXbb5d8XJibTwDU353C9dp3guvyFUttGvmsjBhhggAEGGGCAAQYYYIABBhhggAEGGGCAAQYYYICBVg0IrjssuK7OnUyTh55uOUhuNsd1ESpHuN33g60pQuQ83/WLrywNr6en08LoWDpVqTQNcQPV9Kuv5+PEZ6vIVtrubILrCJ7n+weX3M9K55t55/1cpR3zU0//uvl9LAyPpP7N16Tjz/1yyf0Krr1kV3JmPSMMMMAAAwwwwAADDDDAAAMMMMAAAwwwwAADDDDAQOsGBNcdFlwH3oXjUykC02ZBcsyrPPKTvTmIzhXNE5NLgtXiRxDBbmVqunRdsc1qPtciuI5huCMczve81s+jWk0je+47HeC/9OqK7TL78aep74dXpunXji3ZVnDd+ktmNb5sq10ZYIABBhhggAEGGGCAAQYYYIABBhhggAEGGGCAge40ILhe66B0LY5fraaJxw6nnu9dnj/HH348nXj9N0uC1fhBR7gdVdf9V16f5vv669av9KOfevnX6cSbby2pZl6L4DoqwmM47hiWOyq/oyL6VItzccc9zvzunSVDgTe7r5Nf9+Qh06P94hw52G8Q+sdxIrCO4DoC7NrjxtzZ0a4xzHrtct+780XquXvuDDDAAAMMMMAAAwwwwAADDDDAAAMMMMAAAwwwwMDZGRBcr0WwvMbHnHrp1VwxHKF0BLdzn36RhnfuXjpfcxFub9iYA9bJp55N1YWFlkPWyvhEDpN7NmzMc0HHEObxY1seXMf5xw7+LJ049tuWw+baH23MPx0V44M3/ChFFXMemnvLtWnguttaGi598JYfp7jG4TvuyfvXHrvue7Waxg48smTO7QiuR+69P819/mVp20w88fPcfhFU1x6vGEI8hjmvXe772b2QtJ/2Y4ABBhhggAEGGGCAAQYYYIABBhhggAEGGGCAAQa604Dgeo1D5nP9w5o++kaKuZmHd9ydFiaP59C0Oj+fomp5seq6Wk2Tv3ghz2s9+cxzTYccb3R9MadzBMKDN96eKjUVycuD69g/wuuRXftzwB1BcKNjli2PKuuoto7rj/WrDYRnPvgot0fcb9nxa5fNffZFDqFn3vtgybZxjP6rbkizH32yZHlUZEeHgGjraOPaY632Omv39b07X7aeu+fOAAMMMMAAAwwwwAADDDDAAAMMMMAAAwwwwAADDDQ2ILheR8F1EVrnOa2/Ca0L3FHxPHD9bXmo7clDT6fhO3el+YHBJWFrse1Kn/ODQ6l/63Wnh8j+cGmYWxZcx/Fy5fI9+9LA9lvTfG/rw5Kf7OlLfZdflaKyOY6z2kC4CK7juprdV4TrUZUdgXzddtVqGt17IPVdsX3JkOq5HbZcmyafOlK3z2qvs+6c68ida2/8AtU22oYBBhhggAEGGGCAAQYYYIABBhhggAEGGGCAAQYYODcGBNfrIUCsVNLEoafy8OA9F12WyoanjuB46LadaWD7Len48y+dUZV1/lF9E+L2XrwpxZDky39ojYLr2C4qwCNU79u47fTc2C20bQTuvZdsPj3U+BoG1xFYR1V4BNjL7yn+HXNY9/1ga27Domp8+tXX8r2UDSMey/ou21b6LMqOb9m5eWFpR+3IAAMMMMAAAwwwwAADDDDAAAMMMMAAAwwwwAADDFyYBgTXLYSr7cQfw3RHpXBUA0f42r/p6oZh6eyHn+Tq5bLAudV7yEHy9zeniccOl85Z3Sy4jnPEcNwRXEcYPfXyr0tD4tpriRC+/8rrUzGH9GormVesuK5W09Qvf5Xn0I4hwqdeOZomn/xFnj87Qv6+mE/7mpvT6L4H8jYxDHscs+gIMBLziC8bJjyuf8Xzdrir2mfg+4X5cvdcPVcGGGCAAQYYYIABBhhggAEGGGCAAQYYYIABBhhYTwYE150aMFYquXI6guoIkSNIbSXUnXj8ydR7yZYc1sYczavBON/Xn4cIb1aZvFJwHeebevGV1PO9y/NQ48vnk669nqjQjvB47OCji9fZyj3WHmOlALkIoKNSPf6iknzw5jtyJ4CFoeEl4XzMER6he1RfR4Dfv/maHMTXnq/4PvPeh6n30i1ppSHKi+19+h8DAwwwwAADDDDAAAMMMMAAAwwwwAADDDDAAAMMMMAAA40NdFRwPTX2dfr0jQOLf+++eEe67wd/knZ99zvpX27+b4vLY5sv33oizc9NLwaeF8xDrlRyaDp44+05sF44PrV4j62EujEU9uj+gzk4Hn/wsRx4t9I2eZjvm3Y0HU47jtNKcF3MJx1BcVQsNzp/BMVRbT3f/+1c3K3cY+3xVgquY9uZt97NAXlce6OhwmO7yvhEinnEFyYmc/V1o6rz2DaO1fv9zfnYtdfje+OXjbbRNgwwwAADDDDAAAMMMMAAAwwwwAADDDDAAAMMMMAAA40MdFRw/flvf5ZD6giqV/p7YPNfpunxnoahaKMb7vTlM2+/l2be/aB0jurSULdSSbHP0K13ppnfvZPbI8LZ8YcfTz0bNuaq4clfvJAq0ycatlVsH1XWUfncLNiNtmsluI7t5j79Ildcj9x7f+l5i0roGP689pkU99h/9U15OO/he/Y1/Ry6/a4c0sd11R7njL9Xq2nswCP5nM3aYuKJn6diWPEzPlenVvu7rnNjSTtqRwYYYIABBhhggAEGGGCAAQYYYIABBhhggAEGGGCgZQOC63WE5WRPX57DOuaFjiA6AumYo3lkz32ptjI7B6nVapp+9bUcruZhsjdszHM5jx38Wa4qLoLsCGdj2fEjLy4ZNjuOUZ2dy1XItUOOxznjeCsGxdVqHur85Jdfl2KM4cRHdv+0Ligvguu4x1YC4aLienkA3sq+ddtUq7nKfeiWH6eoQC/Wz370SZofGFzsTBBtFoF5tP3CyOjidsX2PvUUYoABBhhggAEGGGCAAQYYYIABBhhggAEGGGCAAQYYYGB1BjoquPbwmj+8GPI6hqeOwDTmV47PmGu5WbtF4JqrkjdszIHzwDU35wrtopq4MjGZ5geHSo8RYfjkU0fyeXL4/c080VHJPf3asdJ9ml1LsS7m0o4K79pwuFh3JsF1/9br0tQrR8/4evK5I7R+4ud5aPMi1C+uKToMFG3Ye8nmFH/RHqN7D9SF/cU+Pptb1j7ahwEGGGCAAQYYYIABBhhggAEGGGCAAQYYYIABBhhgoNaA4HodVVwff+HlPPx3BMdRrbw8YK19sEu+V6tp9pPP8hDYZWHxkm3L2qNSSZPPPJd6L96UA9uYl3phdOzMguJKJQfEEV6XnTcqmKOaO4YSL1tft6xSOevwOM4Vw4NPHn5msaq67jzVap57vG/jtsUOAI0C/7p9y9rUstaer3bSTgwwwAADDDDAAAMMMMAAAwwwwAADDDDAAAMMMMBAVxgQXK8j6FElPbr/YB4CvHb47vMSlFaraXTfA2nk7n1pYfjCGR47Avi4r7nPv2zpBz999I00efjp1oP1deTrvDjSHi058yz0MGOAAQYYYIABBhhggAEGGGCAAQYYYIABBhhggIFuMyC4FqQJ0hhggAEGGGCAAQYYYIABBhhggAEGGGCAAQYYYIABBhhggIG2GhBcA9hWgN3WU8T96h3FAAMMMMAAAwwwwAADDDDAAAMMMMAAAwwwwAADDDDAQL0BwbXgWnDNAAMMMMAAAwwwwAADDDDAAAMMMMAAAwwwwAADDDDAAAMMtNWA4BrAtgLUm6S+N4k20SYMMMAAAwwwwAADDDDAAAMMMMAAAwwwwAADDDDAAAPdZkBwLbgWXDPAAAMMMMAAAwwwwAADDDDAAAMMMMAAAwwwwAADDDDAAANtNSC4BrCtALutp4j71TuKAQYYYIABBhhggAEGGGCAAQYYYIABBhhggAEGGGCAgXoDgmvBteCaAQYYYIABBhhggAEGGGCAAQYYYIABBhhggAEGGGCAAQYYaKsBwTWAbQWoN0l9bxJtok0YYIABBhhggAEGGGCAAQYYYIABBhhggAEGGGCAAQa6zYDgWnAtuGaAAQYYYIABBhhggAEGGGCAAQYYYIABBhhggAEGGGCAAQbaakBwDWBbAXZbTxH3q3cUAwwwwAADDDDAAAMMMMAAAwwwwAADDDDAAAMMMMAAA/UGBNeCa8E1AwwwwAADDDDAAAMMMMAAAwwwwAADDDDAAAMMMMAAAwww0FYDgmsA2wpQb5L63iTaRJswwAADDDDAAAMMMMAAAwwwwAADDDDAAAMMMMAAAwx0mwHBteBacM0AAwwwwAADDDDAAAMMMMAAAwwwwAADDDDAAAMMMMAAAwy01YDgGsC2Auy2niLuV+8oBhhggAEGGGCAAQYYYIABBhhggAEGGGCAAQYYYIABBuoNCK4F14JrBhhggAEGGGCAAQYYYIABBhhggAEGGGCAAQYYYIABBhhgoK0GBNcAthWg3iT1vUm0iTZhgAEGGGCAAQYYYIABBhhggAEGGGCAAQYYYIABBhjoNgOCa8G14JoBBhhggAEGGGCAAQYYYIABBhhggAEGGGCAAQYYYIABBhhoqwHBNYBtBdhtPUXcr95RDDDAAAMMMMAAAwwwwAADDDDAAAMMMMAAAwwwwAADDNQbEFwLrgXXDDDAAAMMMMAAAwwwwAADDDDAAAMMMMAAAwwwwAADDDDAQFsNCK4BbCtAvUnqe5NoE23CAAMMMMAAAwwwwAADDDDAAAMMMMAAAwwwwAADDDDQbQYE14JrwTUDDDDAAAMMMMAAAwwwwAADDDDAAAMMMMAAAwwwwAADDDDQVgOCawDbCrDbeoq4X72jGGCAAQYYYIABBhhggAEGGGCAAQYYYIABBhhggAEGGKg3ILgWXAuuGWCAAQYYYIABBhhggAEGGGCAAQYYYIABBhhggAEGGGCAgbYaEFwD2FaAepPU9ybRJtqEAQYYYIABBhhggAEGGGCAAQYYYIABBhhggAEGGGCg2wwIrgXXgmsGGGCAAQYYYIABBhhggAEGGGCAAQYYYIABBhhggAEGGGCgrQYE1wC2FWC39RRxv3pHMcAAAwwwwAADDDDAAAMMMMAAAwwwwAADDDDAAAMMMFBvQHAtuBZcM8AAAwwwwAADDDDAAAMMMMAAAwwwwAADDDDAAAMMMMAAA201ILgGsK0A9Sap702iTbQJAwwwwAADDDDAAAMMMMAAAwwwwAADDDDAAAMMMMBAtxkQXAuuBdcMMMAAAwwwwAADDDDAAAMMMMAAAwwwwAADDDDAAAMMMMBAWw0IrgFsK8Bu6ynifvWOYoABBhhggAEGGGCAAQYYYIABBhhggAEGGGCAAQYYYKDegOBacC24ZoABBhhggAEGGGCAAQYYYIABBhhggAEGGGCAAQYYYIABBtpqQHANYFsB6k1S35tEm2gTBhhggAEGGGCAAQYYYIABBhhggAEGGGCAAQYYYICBbjMguBZcC64ZYIABBhhggAEGGGCAAQYYYIABBhhggAEGGGCAAQYYYICBthoQXAPYVoDd1lPE/eodxQADDDDAAAMMMMAAAwwwwAADDDDAAAMMMMAAAwwwwEC9AcG14FpwzQADDDDAAAMMMMAAAwwwwAADDDDAAAMMMMAAAwwwwAADDLTVgOAawLYC1JukvjeJNtEmDDDAAAMMMMAAAwwwwAADDDDAAAMMMMAAAwwwwAAD3WZAcC24FlwzwAADDDDAAAMMMMAAAwwwwAADDDDAAAMMMMAAAwwwwAADbTUguAawrQC7raeI+9U7igEGGGCAAQYYYIABBhhggAEGGGCAAQYYYIABBhhggIF6A4JrwbXgmgEGGGCAAQYYYIABBhhggAEGGGCAAQYYYIABBhhggAEGGGirAcE1gG0FqDdJfW8SbaJNGGCAAQYYYIABBhhggAEGGGCAAQYYYIABBhhggAEGus2A4FpwLbhmgAEGGGCAAQYYYIABBhhggAEGGGCAAQYYYIABBhhggAEG2mpAcA1gWwF2W08R96t3FAMMMMAAAwwwwAADDDDAAAMMMMAAAwwwwAADDDDAAAP1BnJw/a//+q/CSwE2AwwwwAADDDDAAAMMMMAAAwwwwAADDDDAAAMMMMAAAwwwwEBbDAiuwWsLPL1I6nuRaBNtwgADDDDAAAMMMMAAAwwwwAADDDDAAAMMMMAAAwww0K0GcnD97//+78JLATYDDDDAAAMMMMAAAwwwwAADDDDAAAMMMMAAAwwwwAADDDDAQFsM5OA6pZQMF673Rrf23nDf7DPAAAMMMMAAAwwwwAADDDDAAAMMMMAAAwwwwAADDDDQPgORVS8G16qu2/cg/Ai0PQMMMMAAAwwwwAADDDDAAAMMMMAAAwwwwAADDDDAAAMMdKuByKoXg+uouv63f/u3tpR9d+sDcN9ePgwwwAADDDDAAAMMMMAAAwwwwAADDDDAAAMMMMAAAwww0M0GIqOO/5YE18JrP4pu/lG4d/4ZYIABBhhggAEGGGCAAQYYYIABBhhggAEGGGCAAQYYOH8GitC6NLiOhVGKbc7r8/dA4NfWDDDAAAMMMMAAAwwwwAADDDDAAAMMMMAAAwwwwAADDDDQLQYii45Muva//w8DLVqb4X6tFAAAAABJRU5ErkJggg==;clipPath=inset(22.06% 63.67% 4.41% 1%);" vertex="1" parent="1">
          <mxGeometry x="10" y="10.76" width="316.39" height="149.24" as="geometry" />
        </mxCell>
        <mxCell id="HlH4zOy5IhziWRLoiVb8-9" style="edgeStyle=orthogonalEdgeStyle;rounded=0;orthogonalLoop=1;jettySize=auto;html=1;exitX=0.5;exitY=1;exitDx=0;exitDy=0;entryX=0.5;entryY=0;entryDx=0;entryDy=0;" edge="1" parent="1" source="HlH4zOy5IhziWRLoiVb8-3" target="HlH4zOy5IhziWRLoiVb8-8">
          <mxGeometry relative="1" as="geometry" />
        </mxCell>
        <mxCell id="HlH4zOy5IhziWRLoiVb8-10" value="Yes" style="edgeLabel;html=1;align=center;verticalAlign=middle;resizable=0;points=[];" vertex="1" connectable="0" parent="HlH4zOy5IhziWRLoiVb8-9">
          <mxGeometry x="-0.2" y="1" relative="1" as="geometry">
            <mxPoint as="offset" />
          </mxGeometry>
        </mxCell>
        <mxCell id="HlH4zOy5IhziWRLoiVb8-3" value="参数校验" style="rhombus;whiteSpace=wrap;html=1;fillColor=#fff2cc;strokeColor=#d6b656;" vertex="1" parent="1">
          <mxGeometry x="374" y="150" width="80" height="80" as="geometry" />
        </mxCell>
        <mxCell id="HlH4zOy5IhziWRLoiVb8-4" value="抛出异常" style="strokeWidth=2;html=1;shape=mxgraph.flowchart.start_1;whiteSpace=wrap;fillColor=#f8cecc;strokeColor=#b85450;" vertex="1" parent="1">
          <mxGeometry x="510" y="165" width="90" height="50" as="geometry" />
        </mxCell>
        <mxCell id="HlH4zOy5IhziWRLoiVb8-6" style="edgeStyle=orthogonalEdgeStyle;rounded=0;orthogonalLoop=1;jettySize=auto;html=1;exitX=1;exitY=0.5;exitDx=0;exitDy=0;entryX=0;entryY=0.5;entryDx=0;entryDy=0;entryPerimeter=0;" edge="1" parent="1" source="HlH4zOy5IhziWRLoiVb8-3" target="HlH4zOy5IhziWRLoiVb8-4">
          <mxGeometry relative="1" as="geometry" />
        </mxCell>
        <mxCell id="HlH4zOy5IhziWRLoiVb8-7" value="No" style="edgeLabel;html=1;align=center;verticalAlign=middle;resizable=0;points=[];" vertex="1" connectable="0" parent="HlH4zOy5IhziWRLoiVb8-6">
          <mxGeometry x="-0.1071" y="1" relative="1" as="geometry">
            <mxPoint as="offset" />
          </mxGeometry>
        </mxCell>
        <mxCell id="HlH4zOy5IhziWRLoiVb8-14" style="edgeStyle=orthogonalEdgeStyle;rounded=0;orthogonalLoop=1;jettySize=auto;html=1;exitX=0.5;exitY=1;exitDx=0;exitDy=0;entryX=0.5;entryY=0;entryDx=0;entryDy=0;" edge="1" parent="1" source="HlH4zOy5IhziWRLoiVb8-8" target="HlH4zOy5IhziWRLoiVb8-11">
          <mxGeometry relative="1" as="geometry" />
        </mxCell>
        <mxCell id="HlH4zOy5IhziWRLoiVb8-8" value="从数据表fileAnalysis查询记录" style="rounded=0;whiteSpace=wrap;html=1;fillColor=#dae8fc;strokeColor=#6c8ebf;" vertex="1" parent="1">
          <mxGeometry x="354" y="260" width="120" height="40" as="geometry" />
        </mxCell>
        <mxCell id="HlH4zOy5IhziWRLoiVb8-17" style="edgeStyle=orthogonalEdgeStyle;rounded=0;orthogonalLoop=1;jettySize=auto;html=1;exitX=0.5;exitY=1;exitDx=0;exitDy=0;entryX=0.5;entryY=0;entryDx=0;entryDy=0;" edge="1" parent="1" source="HlH4zOy5IhziWRLoiVb8-11" target="HlH4zOy5IhziWRLoiVb8-16">
          <mxGeometry relative="1" as="geometry" />
        </mxCell>
        <mxCell id="HlH4zOy5IhziWRLoiVb8-18" value="Yes" style="edgeLabel;html=1;align=center;verticalAlign=middle;resizable=0;points=[];" vertex="1" connectable="0" parent="HlH4zOy5IhziWRLoiVb8-17">
          <mxGeometry x="-0.5" y="-1" relative="1" as="geometry">
            <mxPoint as="offset" />
          </mxGeometry>
        </mxCell>
        <mxCell id="HlH4zOy5IhziWRLoiVb8-11" value="记录是否&lt;div&gt;存在&lt;/div&gt;" style="rhombus;whiteSpace=wrap;html=1;fillColor=#fff2cc;strokeColor=#d6b656;" vertex="1" parent="1">
          <mxGeometry x="374" y="320" width="80" height="80" as="geometry" />
        </mxCell>
        <mxCell id="HlH4zOy5IhziWRLoiVb8-12" value="抛出异常" style="strokeWidth=2;html=1;shape=mxgraph.flowchart.start_1;whiteSpace=wrap;fillColor=#f8cecc;strokeColor=#b85450;" vertex="1" parent="1">
          <mxGeometry x="500" y="335" width="90" height="50" as="geometry" />
        </mxCell>
        <mxCell id="HlH4zOy5IhziWRLoiVb8-13" style="edgeStyle=orthogonalEdgeStyle;rounded=0;orthogonalLoop=1;jettySize=auto;html=1;exitX=1;exitY=0.5;exitDx=0;exitDy=0;entryX=0;entryY=0.5;entryDx=0;entryDy=0;entryPerimeter=0;" edge="1" parent="1" source="HlH4zOy5IhziWRLoiVb8-11" target="HlH4zOy5IhziWRLoiVb8-12">
          <mxGeometry relative="1" as="geometry" />
        </mxCell>
        <mxCell id="HlH4zOy5IhziWRLoiVb8-15" value="No" style="edgeLabel;html=1;align=center;verticalAlign=middle;resizable=0;points=[];" vertex="1" connectable="0" parent="HlH4zOy5IhziWRLoiVb8-13">
          <mxGeometry x="-0.1739" y="2" relative="1" as="geometry">
            <mxPoint as="offset" />
          </mxGeometry>
        </mxCell>
        <mxCell id="HlH4zOy5IhziWRLoiVb8-22" style="edgeStyle=orthogonalEdgeStyle;rounded=0;orthogonalLoop=1;jettySize=auto;html=1;exitX=0.5;exitY=1;exitDx=0;exitDy=0;entryX=0.5;entryY=0;entryDx=0;entryDy=0;" edge="1" parent="1" source="HlH4zOy5IhziWRLoiVb8-16" target="HlH4zOy5IhziWRLoiVb8-19">
          <mxGeometry relative="1" as="geometry" />
        </mxCell>
        <mxCell id="HlH4zOy5IhziWRLoiVb8-16" value="根据查询出的记录中的所有task的运行状态获取该job的状态" style="rounded=0;whiteSpace=wrap;html=1;fillColor=#dae8fc;strokeColor=#6c8ebf;" vertex="1" parent="1">
          <mxGeometry x="354" y="436" width="120" height="60" as="geometry" />
        </mxCell>
        <mxCell id="HlH4zOy5IhziWRLoiVb8-25" style="edgeStyle=orthogonalEdgeStyle;rounded=0;orthogonalLoop=1;jettySize=auto;html=1;exitX=0.5;exitY=1;exitDx=0;exitDy=0;entryX=0.5;entryY=0;entryDx=0;entryDy=0;" edge="1" parent="1" source="HlH4zOy5IhziWRLoiVb8-19" target="HlH4zOy5IhziWRLoiVb8-24">
          <mxGeometry relative="1" as="geometry" />
        </mxCell>
        <mxCell id="HlH4zOy5IhziWRLoiVb8-26" value="No" style="edgeLabel;html=1;align=center;verticalAlign=middle;resizable=0;points=[];" vertex="1" connectable="0" parent="HlH4zOy5IhziWRLoiVb8-25">
          <mxGeometry x="-0.6" y="-1" relative="1" as="geometry">
            <mxPoint as="offset" />
          </mxGeometry>
        </mxCell>
        <mxCell id="HlH4zOy5IhziWRLoiVb8-19" value="状态为FINISH" style="rhombus;whiteSpace=wrap;html=1;fillColor=#fff2cc;strokeColor=#d6b656;" vertex="1" parent="1">
          <mxGeometry x="374" y="520" width="80" height="80" as="geometry" />
        </mxCell>
        <mxCell id="HlH4zOy5IhziWRLoiVb8-20" value="抛出异常" style="strokeWidth=2;html=1;shape=mxgraph.flowchart.start_1;whiteSpace=wrap;fillColor=#f8cecc;strokeColor=#b85450;" vertex="1" parent="1">
          <mxGeometry x="500" y="535" width="90" height="50" as="geometry" />
        </mxCell>
        <mxCell id="HlH4zOy5IhziWRLoiVb8-21" style="edgeStyle=orthogonalEdgeStyle;rounded=0;orthogonalLoop=1;jettySize=auto;html=1;exitX=1;exitY=0.5;exitDx=0;exitDy=0;entryX=0;entryY=0.5;entryDx=0;entryDy=0;entryPerimeter=0;" edge="1" parent="1" source="HlH4zOy5IhziWRLoiVb8-19" target="HlH4zOy5IhziWRLoiVb8-20">
          <mxGeometry relative="1" as="geometry" />
        </mxCell>
        <mxCell id="HlH4zOy5IhziWRLoiVb8-23" value="Yes" style="edgeLabel;html=1;align=center;verticalAlign=middle;resizable=0;points=[];" vertex="1" connectable="0" parent="HlH4zOy5IhziWRLoiVb8-21">
          <mxGeometry x="-0.4348" y="3" relative="1" as="geometry">
            <mxPoint as="offset" />
          </mxGeometry>
        </mxCell>
        <mxCell id="HlH4zOy5IhziWRLoiVb8-30" style="edgeStyle=orthogonalEdgeStyle;rounded=0;orthogonalLoop=1;jettySize=auto;html=1;exitX=0.5;exitY=1;exitDx=0;exitDy=0;entryX=0.5;entryY=0;entryDx=0;entryDy=0;" edge="1" parent="1" source="HlH4zOy5IhziWRLoiVb8-24" target="HlH4zOy5IhziWRLoiVb8-27">
          <mxGeometry relative="1" as="geometry" />
        </mxCell>
        <mxCell id="HlH4zOy5IhziWRLoiVb8-24" value="修改数据表fileAnalysis中的enable状态" style="rounded=0;whiteSpace=wrap;html=1;fillColor=#dae8fc;strokeColor=#6c8ebf;" vertex="1" parent="1">
          <mxGeometry x="351" y="630" width="126" height="40" as="geometry" />
        </mxCell>
        <mxCell id="HlH4zOy5IhziWRLoiVb8-33" style="edgeStyle=orthogonalEdgeStyle;rounded=0;orthogonalLoop=1;jettySize=auto;html=1;exitX=0.5;exitY=1;exitDx=0;exitDy=0;entryX=0.5;entryY=0;entryDx=0;entryDy=0;" edge="1" parent="1" source="HlH4zOy5IhziWRLoiVb8-27" target="HlH4zOy5IhziWRLoiVb8-32">
          <mxGeometry relative="1" as="geometry" />
        </mxCell>
        <mxCell id="HlH4zOy5IhziWRLoiVb8-34" value="Yes" style="edgeLabel;html=1;align=center;verticalAlign=middle;resizable=0;points=[];" vertex="1" connectable="0" parent="HlH4zOy5IhziWRLoiVb8-33">
          <mxGeometry x="-0.25" relative="1" as="geometry">
            <mxPoint as="offset" />
          </mxGeometry>
        </mxCell>
        <mxCell id="HlH4zOy5IhziWRLoiVb8-27" value="修改成功" style="rhombus;whiteSpace=wrap;html=1;fillColor=#fff2cc;strokeColor=#d6b656;" vertex="1" parent="1">
          <mxGeometry x="374" y="690" width="80" height="80" as="geometry" />
        </mxCell>
        <mxCell id="HlH4zOy5IhziWRLoiVb8-28" value="抛出异常" style="strokeWidth=2;html=1;shape=mxgraph.flowchart.start_1;whiteSpace=wrap;fillColor=#f8cecc;strokeColor=#b85450;" vertex="1" parent="1">
          <mxGeometry x="500" y="705" width="90" height="50" as="geometry" />
        </mxCell>
        <mxCell id="HlH4zOy5IhziWRLoiVb8-29" style="edgeStyle=orthogonalEdgeStyle;rounded=0;orthogonalLoop=1;jettySize=auto;html=1;exitX=1;exitY=0.5;exitDx=0;exitDy=0;entryX=0;entryY=0.5;entryDx=0;entryDy=0;entryPerimeter=0;" edge="1" parent="1" source="HlH4zOy5IhziWRLoiVb8-27" target="HlH4zOy5IhziWRLoiVb8-28">
          <mxGeometry relative="1" as="geometry" />
        </mxCell>
        <mxCell id="HlH4zOy5IhziWRLoiVb8-31" value="No" style="edgeLabel;html=1;align=center;verticalAlign=middle;resizable=0;points=[];" vertex="1" connectable="0" parent="HlH4zOy5IhziWRLoiVb8-29">
          <mxGeometry x="0.087" relative="1" as="geometry">
            <mxPoint as="offset" />
          </mxGeometry>
        </mxCell>
        <mxCell id="HlH4zOy5IhziWRLoiVb8-37" style="edgeStyle=orthogonalEdgeStyle;rounded=0;orthogonalLoop=1;jettySize=auto;html=1;exitX=0.5;exitY=1;exitDx=0;exitDy=0;entryX=0.5;entryY=0;entryDx=0;entryDy=0;" edge="1" parent="1" source="HlH4zOy5IhziWRLoiVb8-32" target="HlH4zOy5IhziWRLoiVb8-35">
          <mxGeometry relative="1" as="geometry" />
        </mxCell>
        <mxCell id="HlH4zOy5IhziWRLoiVb8-38" style="edgeStyle=orthogonalEdgeStyle;rounded=0;orthogonalLoop=1;jettySize=auto;html=1;exitX=0.5;exitY=1;exitDx=0;exitDy=0;entryX=0.5;entryY=0;entryDx=0;entryDy=0;" edge="1" parent="1" source="HlH4zOy5IhziWRLoiVb8-32" target="HlH4zOy5IhziWRLoiVb8-36">
          <mxGeometry relative="1" as="geometry" />
        </mxCell>
        <mxCell id="HlH4zOy5IhziWRLoiVb8-32" value="根据启停任务添加或删除路由(EX)" style="rounded=0;whiteSpace=wrap;html=1;fillColor=#dae8fc;strokeColor=#6c8ebf;" vertex="1" parent="1">
          <mxGeometry x="354" y="810" width="120" height="60" as="geometry" />
        </mxCell>
        <mxCell id="HlH4zOy5IhziWRLoiVb8-35" value="VIDEO_PIC流" style="rounded=0;whiteSpace=wrap;html=1;fillColor=#dae8fc;strokeColor=#6c8ebf;" vertex="1" parent="1">
          <mxGeometry x="240" y="910" width="100" height="40" as="geometry" />
        </mxCell>
        <mxCell id="HlH4zOy5IhziWRLoiVb8-42" style="edgeStyle=orthogonalEdgeStyle;rounded=0;orthogonalLoop=1;jettySize=auto;html=1;exitX=0.5;exitY=1;exitDx=0;exitDy=0;entryX=0.5;entryY=0;entryDx=0;entryDy=0;" edge="1" parent="1" source="HlH4zOy5IhziWRLoiVb8-36" target="HlH4zOy5IhziWRLoiVb8-39">
          <mxGeometry relative="1" as="geometry">
            <Array as="points">
              <mxPoint x="514" y="960" />
              <mxPoint x="435" y="960" />
            </Array>
          </mxGeometry>
        </mxCell>
        <mxCell id="HlH4zOy5IhziWRLoiVb8-43" style="edgeStyle=orthogonalEdgeStyle;rounded=0;orthogonalLoop=1;jettySize=auto;html=1;exitX=0.5;exitY=1;exitDx=0;exitDy=0;" edge="1" parent="1" source="HlH4zOy5IhziWRLoiVb8-36" target="HlH4zOy5IhziWRLoiVb8-40">
          <mxGeometry relative="1" as="geometry">
            <Array as="points">
              <mxPoint x="514" y="960" />
              <mxPoint x="600" y="960" />
            </Array>
          </mxGeometry>
        </mxCell>
        <mxCell id="HlH4zOy5IhziWRLoiVb8-36" value="其它流" style="rounded=0;whiteSpace=wrap;html=1;fillColor=#dae8fc;strokeColor=#6c8ebf;" vertex="1" parent="1">
          <mxGeometry x="464" y="910" width="100" height="40" as="geometry" />
        </mxCell>
        <mxCell id="HlH4zOy5IhziWRLoiVb8-45" style="edgeStyle=orthogonalEdgeStyle;rounded=0;orthogonalLoop=1;jettySize=auto;html=1;exitX=0.5;exitY=1;exitDx=0;exitDy=0;entryX=0.5;entryY=0;entryDx=0;entryDy=0;" edge="1" parent="1" source="HlH4zOy5IhziWRLoiVb8-39" target="HlH4zOy5IhziWRLoiVb8-44">
          <mxGeometry relative="1" as="geometry" />
        </mxCell>
        <mxCell id="HlH4zOy5IhziWRLoiVb8-39" value="开启任务，task状态修改为JOB_WAITTING" style="rounded=0;whiteSpace=wrap;html=1;fillColor=#dae8fc;strokeColor=#6c8ebf;" vertex="1" parent="1">
          <mxGeometry x="380" y="980" width="110" height="50" as="geometry" />
        </mxCell>
        <mxCell id="HlH4zOy5IhziWRLoiVb8-47" style="edgeStyle=orthogonalEdgeStyle;rounded=0;orthogonalLoop=1;jettySize=auto;html=1;exitX=0.5;exitY=1;exitDx=0;exitDy=0;" edge="1" parent="1" source="HlH4zOy5IhziWRLoiVb8-40" target="HlH4zOy5IhziWRLoiVb8-44">
          <mxGeometry relative="1" as="geometry">
            <Array as="points">
              <mxPoint x="600" y="1050" />
              <mxPoint x="504" y="1050" />
            </Array>
          </mxGeometry>
        </mxCell>
        <mxCell id="HlH4zOy5IhziWRLoiVb8-40" value="停止任务，task状态修改为PAUSE" style="rounded=0;whiteSpace=wrap;html=1;fillColor=#dae8fc;strokeColor=#6c8ebf;" vertex="1" parent="1">
          <mxGeometry x="540" y="980" width="120" height="50" as="geometry" />
        </mxCell>
        <mxCell id="HlH4zOy5IhziWRLoiVb8-41" style="edgeStyle=orthogonalEdgeStyle;rounded=0;orthogonalLoop=1;jettySize=auto;html=1;exitX=0.5;exitY=1;exitDx=0;exitDy=0;" edge="1" parent="1" source="HlH4zOy5IhziWRLoiVb8-40" target="HlH4zOy5IhziWRLoiVb8-40">
          <mxGeometry relative="1" as="geometry" />
        </mxCell>
        <mxCell id="HlH4zOy5IhziWRLoiVb8-49" style="edgeStyle=orthogonalEdgeStyle;rounded=0;orthogonalLoop=1;jettySize=auto;html=1;exitX=0.5;exitY=1;exitDx=0;exitDy=0;entryX=0.5;entryY=0;entryDx=0;entryDy=0;" edge="1" parent="1" source="HlH4zOy5IhziWRLoiVb8-44" target="HlH4zOy5IhziWRLoiVb8-48">
          <mxGeometry relative="1" as="geometry" />
        </mxCell>
        <mxCell id="HlH4zOy5IhziWRLoiVb8-44" value="更新数据表task" style="rounded=0;whiteSpace=wrap;html=1;fillColor=#dae8fc;strokeColor=#6c8ebf;" vertex="1" parent="1">
          <mxGeometry x="444" y="1060" width="120" height="30" as="geometry" />
        </mxCell>
        <mxCell id="HlH4zOy5IhziWRLoiVb8-48" value="构建开启或停止task分析任务线程参数，交给videoTaskManager，排队或者直接执行，算子异步上报任务进度" style="rounded=0;whiteSpace=wrap;html=1;fillColor=#dae8fc;strokeColor=#6c8ebf;" vertex="1" parent="1">
          <mxGeometry x="436" y="1120" width="136" height="70" as="geometry" />
        </mxCell>
        <mxCell id="HlH4zOy5IhziWRLoiVb8-54" style="edgeStyle=orthogonalEdgeStyle;rounded=0;orthogonalLoop=1;jettySize=auto;html=1;exitX=0.5;exitY=1;exitDx=0;exitDy=0;entryX=0.5;entryY=0;entryDx=0;entryDy=0;" edge="1" parent="1" source="HlH4zOy5IhziWRLoiVb8-51" target="HlH4zOy5IhziWRLoiVb8-53">
          <mxGeometry relative="1" as="geometry" />
        </mxCell>
        <mxCell id="HlH4zOy5IhziWRLoiVb8-55" value="Yes" style="edgeLabel;html=1;align=center;verticalAlign=middle;resizable=0;points=[];" vertex="1" connectable="0" parent="HlH4zOy5IhziWRLoiVb8-54">
          <mxGeometry x="-0.5333" y="1" relative="1" as="geometry">
            <mxPoint as="offset" />
          </mxGeometry>
        </mxCell>
        <mxCell id="HlH4zOy5IhziWRLoiVb8-51" value="有异常" style="rhombus;whiteSpace=wrap;html=1;fillColor=#fff2cc;strokeColor=#d6b656;" vertex="1" parent="1">
          <mxGeometry x="90" y="970" width="80" height="80" as="geometry" />
        </mxCell>
        <mxCell id="HlH4zOy5IhziWRLoiVb8-53" value="数据库回滚" style="rounded=0;whiteSpace=wrap;html=1;fillColor=#dae8fc;strokeColor=#6c8ebf;" vertex="1" parent="1">
          <mxGeometry x="70" y="1080" width="120" height="40" as="geometry" />
        </mxCell>
        <mxCell id="HlH4zOy5IhziWRLoiVb8-56" value="end" style="strokeWidth=2;html=1;shape=mxgraph.flowchart.start_1;whiteSpace=wrap;fillColor=#d5e8d4;strokeColor=#82b366;" vertex="1" parent="1">
          <mxGeometry x="300" y="1250" width="90" height="40" as="geometry" />
        </mxCell>
        <mxCell id="HlH4zOy5IhziWRLoiVb8-57" value="抛出异常" style="strokeWidth=2;html=1;shape=mxgraph.flowchart.start_1;whiteSpace=wrap;fillColor=#f8cecc;strokeColor=#b85450;" vertex="1" parent="1">
          <mxGeometry x="85" y="1150" width="90" height="50" as="geometry" />
        </mxCell>
        <mxCell id="HlH4zOy5IhziWRLoiVb8-58" style="edgeStyle=orthogonalEdgeStyle;rounded=0;orthogonalLoop=1;jettySize=auto;html=1;exitX=0.5;exitY=1;exitDx=0;exitDy=0;entryX=0.5;entryY=0;entryDx=0;entryDy=0;entryPerimeter=0;" edge="1" parent="1" source="HlH4zOy5IhziWRLoiVb8-53" target="HlH4zOy5IhziWRLoiVb8-57">
          <mxGeometry relative="1" as="geometry" />
        </mxCell>
        <mxCell id="HlH4zOy5IhziWRLoiVb8-59" style="edgeStyle=orthogonalEdgeStyle;rounded=0;orthogonalLoop=1;jettySize=auto;html=1;exitX=0;exitY=0.5;exitDx=0;exitDy=0;entryX=0;entryY=0.5;entryDx=0;entryDy=0;entryPerimeter=0;" edge="1" parent="1" source="HlH4zOy5IhziWRLoiVb8-51" target="HlH4zOy5IhziWRLoiVb8-56">
          <mxGeometry relative="1" as="geometry">
            <Array as="points">
              <mxPoint x="60" y="1010" />
              <mxPoint x="60" y="1270" />
            </Array>
          </mxGeometry>
        </mxCell>
        <mxCell id="HlH4zOy5IhziWRLoiVb8-60" value="No" style="edgeLabel;html=1;align=center;verticalAlign=middle;resizable=0;points=[];" vertex="1" connectable="0" parent="HlH4zOy5IhziWRLoiVb8-59">
          <mxGeometry x="0.4642" y="2" relative="1" as="geometry">
            <mxPoint as="offset" />
          </mxGeometry>
        </mxCell>
      </root>
    </mxGraphModel>
  </diagram>
</mxfile>
